<svg xmlns="http://www.w3.org/2000/svg" xmlns:xlink="http://www.w3.org/1999/xlink" contentStyleType="text/css" height="429px" preserveAspectRatio="none" style="width:3984px;height:429px;background:#FFFFFF;" version="1.1" viewBox="0 0 3984 429" width="3984px" zoomAndPan="magnify"><defs/><g><!--cluster HyppoEngine\DTO\--><g id="cluster_HyppoEngine\DTO\"><path d="M2310,172 L2457,172 A3.75,3.75 0 0 1 2459.5,174.5 L2466.5,194.2969 L3117,194.2969 A2.5,2.5 0 0 1 3119.5,196.7969 L3119.5,335.5 A2.5,2.5 0 0 1 3117,338 L2310,338 A2.5,2.5 0 0 1 2307.5,335.5 L2307.5,174.5 A2.5,2.5 0 0 1 2310,172 " fill="none" style="stroke:#000000;stroke-width:1.5;"/><line style="stroke:#000000;stroke-width:1.5;" x1="2307.5" x2="2466.5" y1="194.2969" y2="194.2969"/><text fill="#000000" font-family="sans-serif" font-size="14" font-weight="bold" lengthAdjust="spacing" textLength="146" x="2311.5" y="186.9951">HyppoEngine\DTO\</text></g><!--cluster DTO\Document\--><g id="cluster_DTO\Document\"><path d="M2874,215 L2998,215 A3.75,3.75 0 0 1 3000.5,217.5 L3007.5,237.2969 L3093,237.2969 A2.5,2.5 0 0 1 3095.5,239.7969 L3095.5,311.5 A2.5,2.5 0 0 1 3093,314 L2874,314 A2.5,2.5 0 0 1 2871.5,311.5 L2871.5,217.5 A2.5,2.5 0 0 1 2874,215 " fill="none" style="stroke:#000000;stroke-width:1.5;"/><line style="stroke:#000000;stroke-width:1.5;" x1="2871.5" x2="3007.5" y1="237.2969" y2="237.2969"/><text fill="#000000" font-family="sans-serif" font-size="14" font-weight="bold" lengthAdjust="spacing" textLength="123" x="2875.5" y="229.9951">DTO\Document\</text></g><!--cluster HyppoEngine\Document--><g id="cluster_HyppoEngine\Document"><path d="M2834,49 L3023,49 A3.75,3.75 0 0 1 3025.5,51.5 L3032.5,71.2969 L3111,71.2969 A2.5,2.5 0 0 1 3113.5,73.7969 L3113.5,145.5 A2.5,2.5 0 0 1 3111,148 L2834,148 A2.5,2.5 0 0 1 2831.5,145.5 L2831.5,51.5 A2.5,2.5 0 0 1 2834,49 " fill="none" style="stroke:#000000;stroke-width:1.5;"/><line style="stroke:#000000;stroke-width:1.5;" x1="2831.5" x2="3032.5" y1="71.2969" y2="71.2969"/><text fill="#000000" font-family="sans-serif" font-size="14" font-weight="bold" lengthAdjust="spacing" textLength="188" x="2835.5" y="63.9951">HyppoEngine\Document</text></g><!--cluster HyppoEngine\Exception--><g id="cluster_HyppoEngine\Exception"><path d="M408,49 L594,49 A3.75,3.75 0 0 1 596.5,51.5 L603.5,71.2969 L1472,71.2969 A2.5,2.5 0 0 1 1474.5,73.7969 L1474.5,419.5 A2.5,2.5 0 0 1 1472,422 L408,422 A2.5,2.5 0 0 1 405.5,419.5 L405.5,51.5 A2.5,2.5 0 0 1 408,49 " fill="none" style="stroke:#000000;stroke-width:1.5;"/><line style="stroke:#000000;stroke-width:1.5;" x1="405.5" x2="603.5" y1="71.2969" y2="71.2969"/><text fill="#000000" font-family="sans-serif" font-size="14" font-weight="bold" lengthAdjust="spacing" textLength="185" x="409.5" y="63.9951">HyppoEngine\Exception</text></g><!--cluster HyppoEngine\Parser--><g id="cluster_HyppoEngine\Parser"><path d="M3140,49 L3301,49 A3.75,3.75 0 0 1 3303.5,51.5 L3310.5,71.2969 L3417,71.2969 A2.5,2.5 0 0 1 3419.5,73.7969 L3419.5,145.5 A2.5,2.5 0 0 1 3417,148 L3140,148 A2.5,2.5 0 0 1 3137.5,145.5 L3137.5,51.5 A2.5,2.5 0 0 1 3140,49 " fill="none" style="stroke:#000000;stroke-width:1.5;"/><line style="stroke:#000000;stroke-width:1.5;" x1="3137.5" x2="3310.5" y1="71.2969" y2="71.2969"/><text fill="#000000" font-family="sans-serif" font-size="14" font-weight="bold" lengthAdjust="spacing" textLength="160" x="3141.5" y="63.9951">HyppoEngine\Parser</text></g><!--cluster HyppoEngine\Render--><g id="cluster_HyppoEngine\Render"><path d="M3446,49 L3612,49 A3.75,3.75 0 0 1 3614.5,51.5 L3621.5,71.2969 L3689,71.2969 A2.5,2.5 0 0 1 3691.5,73.7969 L3691.5,145.5 A2.5,2.5 0 0 1 3689,148 L3446,148 A2.5,2.5 0 0 1 3443.5,145.5 L3443.5,51.5 A2.5,2.5 0 0 1 3446,49 " fill="none" style="stroke:#000000;stroke-width:1.5;"/><line style="stroke:#000000;stroke-width:1.5;" x1="3443.5" x2="3621.5" y1="71.2969" y2="71.2969"/><text fill="#000000" font-family="sans-serif" font-size="14" font-weight="bold" lengthAdjust="spacing" textLength="165" x="3447.5" y="63.9951">HyppoEngine\Render</text></g><!--cluster HyppoEngine\Repository--><g id="cluster_HyppoEngine\Repository"><path d="M3718,49 L3912,49 A3.75,3.75 0 0 1 3914.5,51.5 L3921.5,71.2969 L3975,71.2969 A2.5,2.5 0 0 1 3977.5,73.7969 L3977.5,145.5 A2.5,2.5 0 0 1 3975,148 L3718,148 A2.5,2.5 0 0 1 3715.5,145.5 L3715.5,51.5 A2.5,2.5 0 0 1 3718,49 " fill="none" style="stroke:#000000;stroke-width:1.5;"/><line style="stroke:#000000;stroke-width:1.5;" x1="3715.5" x2="3921.5" y1="71.2969" y2="71.2969"/><text fill="#000000" font-family="sans-serif" font-size="14" font-weight="bold" lengthAdjust="spacing" textLength="193" x="3719.5" y="63.9951">HyppoEngine\Repository</text></g><!--cluster HyppoEngine\Trait--><g id="cluster_HyppoEngine\Trait"><path d="M1501,6 L1646,6 A3.75,3.75 0 0 1 1648.5,8.5 L1655.5,28.2969 L2281,28.2969 A2.5,2.5 0 0 1 2283.5,30.7969 L2283.5,335.5 A2.5,2.5 0 0 1 2281,338 L1501,338 A2.5,2.5 0 0 1 1498.5,335.5 L1498.5,8.5 A2.5,2.5 0 0 1 1501,6 " fill="none" style="stroke:#000000;stroke-width:1.5;"/><line style="stroke:#000000;stroke-width:1.5;" x1="1498.5" x2="1655.5" y1="28.2969" y2="28.2969"/><text fill="#000000" font-family="sans-serif" font-size="14" font-weight="bold" lengthAdjust="spacing" textLength="144" x="1502.5" y="20.9951">HyppoEngine\Trait</text></g><!--cluster HyppoEngine\Pattern--><g id="cluster_HyppoEngine\Pattern"><path d="M1721,49 L1888,49 A3.75,3.75 0 0 1 1890.5,51.5 L1897.5,71.2969 L2257,71.2969 A2.5,2.5 0 0 1 2259.5,73.7969 L2259.5,311.5 A2.5,2.5 0 0 1 2257,314 L1721,314 A2.5,2.5 0 0 1 1718.5,311.5 L1718.5,51.5 A2.5,2.5 0 0 1 1721,49 " fill="none" style="stroke:#000000;stroke-width:1.5;"/><line style="stroke:#000000;stroke-width:1.5;" x1="1718.5" x2="1897.5" y1="71.2969" y2="71.2969"/><text fill="#000000" font-family="sans-serif" font-size="14" font-weight="bold" lengthAdjust="spacing" textLength="166" x="1722.5" y="63.9951">HyppoEngine\Pattern</text></g><!--class DTO\Document--><g id="elem_DTO\Document"><rect codeLine="8" fill="#F1F1F1" height="48" id="DTO\Document" rx="2.5" ry="2.5" style="stroke:#181818;stroke-width:0.5;" width="141" x="2711" y="250"/><ellipse cx="2726" cy="266" fill="#ADD1B2" rx="11" ry="11" style="stroke:#181818;stroke-width:1.0;"/><path d="M2728.9688,271.6406 Q2728.3906,271.9375 2727.75,272.0781 Q2727.1094,272.2344 2726.4063,272.2344 Q2723.9063,272.2344 2722.5781,270.5938 Q2721.2656,268.9375 2721.2656,265.8125 Q2721.2656,262.6875 2722.5781,261.0313 Q2723.9063,259.375 2726.4063,259.375 Q2727.1094,259.375 2727.75,259.5313 Q2728.4063,259.6875 2728.9688,259.9844 L2728.9688,262.7031 Q2728.3438,262.125 2727.75,261.8594 Q2727.1563,261.5781 2726.5313,261.5781 Q2725.1875,261.5781 2724.5,262.6563 Q2723.8125,263.7188 2723.8125,265.8125 Q2723.8125,267.9063 2724.5,268.9844 Q2725.1875,270.0469 2726.5313,270.0469 Q2727.1563,270.0469 2727.75,269.7813 Q2728.3438,269.5 2728.9688,268.9219 L2728.9688,271.6406 Z " fill="#000000"/><text fill="#000000" font-family="sans-serif" font-size="14" lengthAdjust="spacing" textLength="109" x="2740" y="270.8467">DTO\Document</text><line style="stroke:#181818;stroke-width:0.5;" x1="2712" x2="2851" y1="282" y2="282"/><line style="stroke:#181818;stroke-width:0.5;" x1="2712" x2="2851" y1="290" y2="290"/></g><!--class DTO\RepositoryNode--><g id="elem_DTO\RepositoryNode"><rect codeLine="10" fill="#F1F1F1" height="48" id="DTO\RepositoryNode" rx="2.5" ry="2.5" style="stroke:#181818;stroke-width:0.5;" width="179" x="2497" y="250"/><ellipse cx="2512" cy="266" fill="#ADD1B2" rx="11" ry="11" style="stroke:#181818;stroke-width:1.0;"/><path d="M2514.9688,271.6406 Q2514.3906,271.9375 2513.75,272.0781 Q2513.1094,272.2344 2512.4063,272.2344 Q2509.9063,272.2344 2508.5781,270.5938 Q2507.2656,268.9375 2507.2656,265.8125 Q2507.2656,262.6875 2508.5781,261.0313 Q2509.9063,259.375 2512.4063,259.375 Q2513.1094,259.375 2513.75,259.5313 Q2514.4063,259.6875 2514.9688,259.9844 L2514.9688,262.7031 Q2514.3438,262.125 2513.75,261.8594 Q2513.1563,261.5781 2512.5313,261.5781 Q2511.1875,261.5781 2510.5,262.6563 Q2509.8125,263.7188 2509.8125,265.8125 Q2509.8125,267.9063 2510.5,268.9844 Q2511.1875,270.0469 2512.5313,270.0469 Q2513.1563,270.0469 2513.75,269.7813 Q2514.3438,269.5 2514.9688,268.9219 L2514.9688,271.6406 Z " fill="#000000"/><text fill="#000000" font-family="sans-serif" font-size="14" lengthAdjust="spacing" textLength="147" x="2526" y="270.8467">DTO\RepositoryNode</text><line style="stroke:#181818;stroke-width:0.5;" x1="2498" x2="2675" y1="282" y2="282"/><line style="stroke:#181818;stroke-width:0.5;" x1="2498" x2="2675" y1="290" y2="290"/></g><!--class DTO\SyntaTree--><g id="elem_DTO\SyntaTree"><rect codeLine="12" fill="#F1F1F1" height="48" id="DTO\SyntaTree" rx="2.5" ry="2.5" style="stroke:#181818;stroke-width:0.5;" width="138" x="2323.5" y="250"/><ellipse cx="2338.5" cy="266" fill="#ADD1B2" rx="11" ry="11" style="stroke:#181818;stroke-width:1.0;"/><path d="M2341.4688,271.6406 Q2340.8906,271.9375 2340.25,272.0781 Q2339.6094,272.2344 2338.9063,272.2344 Q2336.4063,272.2344 2335.0781,270.5938 Q2333.7656,268.9375 2333.7656,265.8125 Q2333.7656,262.6875 2335.0781,261.0313 Q2336.4063,259.375 2338.9063,259.375 Q2339.6094,259.375 2340.25,259.5313 Q2340.9063,259.6875 2341.4688,259.9844 L2341.4688,262.7031 Q2340.8438,262.125 2340.25,261.8594 Q2339.6563,261.5781 2339.0313,261.5781 Q2337.6875,261.5781 2337,262.6563 Q2336.3125,263.7188 2336.3125,265.8125 Q2336.3125,267.9063 2337,268.9844 Q2337.6875,270.0469 2339.0313,270.0469 Q2339.6563,270.0469 2340.25,269.7813 Q2340.8438,269.5 2341.4688,268.9219 L2341.4688,271.6406 Z " fill="#000000"/><text fill="#000000" font-family="sans-serif" font-size="14" lengthAdjust="spacing" textLength="106" x="2352.5" y="270.8467">DTO\SyntaTree</text><line style="stroke:#181818;stroke-width:0.5;" x1="2324.5" x2="2460.5" y1="282" y2="282"/><line style="stroke:#181818;stroke-width:0.5;" x1="2324.5" x2="2460.5" y1="290" y2="290"/></g><!--class DTO\Document\Author--><g id="elem_DTO\Document\Author"><rect codeLine="4" fill="#F1F1F1" height="48" id="DTO\Document\Author" rx="2.5" ry="2.5" style="stroke:#181818;stroke-width:0.5;" width="192" x="2887.5" y="250"/><ellipse cx="2902.5" cy="266" fill="#ADD1B2" rx="11" ry="11" style="stroke:#181818;stroke-width:1.0;"/><path d="M2905.4688,271.6406 Q2904.8906,271.9375 2904.25,272.0781 Q2903.6094,272.2344 2902.9063,272.2344 Q2900.4063,272.2344 2899.0781,270.5938 Q2897.7656,268.9375 2897.7656,265.8125 Q2897.7656,262.6875 2899.0781,261.0313 Q2900.4063,259.375 2902.9063,259.375 Q2903.6094,259.375 2904.25,259.5313 Q2904.9063,259.6875 2905.4688,259.9844 L2905.4688,262.7031 Q2904.8438,262.125 2904.25,261.8594 Q2903.6563,261.5781 2903.0313,261.5781 Q2901.6875,261.5781 2901,262.6563 Q2900.3125,263.7188 2900.3125,265.8125 Q2900.3125,267.9063 2901,268.9844 Q2901.6875,270.0469 2903.0313,270.0469 Q2903.6563,270.0469 2904.25,269.7813 Q2904.8438,269.5 2905.4688,268.9219 L2905.4688,271.6406 Z " fill="#000000"/><text fill="#000000" font-family="sans-serif" font-size="14" lengthAdjust="spacing" textLength="160" x="2916.5" y="270.8467">DTO\Document\Author</text><line style="stroke:#181818;stroke-width:0.5;" x1="2888.5" x2="3078.5" y1="282" y2="282"/><line style="stroke:#181818;stroke-width:0.5;" x1="2888.5" x2="3078.5" y1="290" y2="290"/></g><!--class HyppoEngine\Document\Article--><g id="elem_HyppoEngine\Document\Article"><rect codeLine="3" fill="#F1F1F1" height="48" id="HyppoEngine\Document\Article" rx="2.5" ry="2.5" style="stroke:#181818;stroke-width:0.5;" width="249" x="2848" y="84"/><ellipse cx="2863" cy="100" fill="#ADD1B2" rx="11" ry="11" style="stroke:#181818;stroke-width:1.0;"/><path d="M2865.9688,105.6406 Q2865.3906,105.9375 2864.75,106.0781 Q2864.1094,106.2344 2863.4063,106.2344 Q2860.9063,106.2344 2859.5781,104.5938 Q2858.2656,102.9375 2858.2656,99.8125 Q2858.2656,96.6875 2859.5781,95.0313 Q2860.9063,93.375 2863.4063,93.375 Q2864.1094,93.375 2864.75,93.5313 Q2865.4063,93.6875 2865.9688,93.9844 L2865.9688,96.7031 Q2865.3438,96.125 2864.75,95.8594 Q2864.1563,95.5781 2863.5313,95.5781 Q2862.1875,95.5781 2861.5,96.6563 Q2860.8125,97.7188 2860.8125,99.8125 Q2860.8125,101.9063 2861.5,102.9844 Q2862.1875,104.0469 2863.5313,104.0469 Q2864.1563,104.0469 2864.75,103.7813 Q2865.3438,103.5 2865.9688,102.9219 L2865.9688,105.6406 Z " fill="#000000"/><text fill="#000000" font-family="sans-serif" font-size="14" lengthAdjust="spacing" textLength="217" x="2877" y="104.8467">HyppoEngine\Document\Article</text><line style="stroke:#181818;stroke-width:0.5;" x1="2849" x2="3096" y1="116" y2="116"/><line style="stroke:#181818;stroke-width:0.5;" x1="2849" x2="3096" y1="124" y2="124"/></g><!--class HyppoEngine\Exception\AccessDenied--><g id="elem_HyppoEngine\Exception\AccessDenied"><rect codeLine="3" fill="#F1F1F1" height="48" id="HyppoEngine\Exception\AccessDenied" rx="2.5" ry="2.5" style="stroke:#181818;stroke-width:0.5;" width="302" x="429.5" y="84"/><ellipse cx="444.5" cy="100" fill="#ADD1B2" rx="11" ry="11" style="stroke:#181818;stroke-width:1.0;"/><path d="M447.4688,105.6406 Q446.8906,105.9375 446.25,106.0781 Q445.6094,106.2344 444.9063,106.2344 Q442.4063,106.2344 441.0781,104.5938 Q439.7656,102.9375 439.7656,99.8125 Q439.7656,96.6875 441.0781,95.0313 Q442.4063,93.375 444.9063,93.375 Q445.6094,93.375 446.25,93.5313 Q446.9063,93.6875 447.4688,93.9844 L447.4688,96.7031 Q446.8438,96.125 446.25,95.8594 Q445.6563,95.5781 445.0313,95.5781 Q443.6875,95.5781 443,96.6563 Q442.3125,97.7188 442.3125,99.8125 Q442.3125,101.9063 443,102.9844 Q443.6875,104.0469 445.0313,104.0469 Q445.6563,104.0469 446.25,103.7813 Q446.8438,103.5 447.4688,102.9219 L447.4688,105.6406 Z " fill="#000000"/><text fill="#000000" font-family="sans-serif" font-size="14" lengthAdjust="spacing" textLength="270" x="458.5" y="104.8467">HyppoEngine\Exception\AccessDenied</text><line style="stroke:#181818;stroke-width:0.5;" x1="430.5" x2="730.5" y1="116" y2="116"/><line style="stroke:#181818;stroke-width:0.5;" x1="430.5" x2="730.5" y1="124" y2="124"/></g><!--class HyppoEngine\Exception\FileNotFound--><g id="elem_HyppoEngine\Exception\FileNotFound"><rect codeLine="5" fill="#F1F1F1" height="48" id="HyppoEngine\Exception\FileNotFound" rx="2.5" ry="2.5" style="stroke:#181818;stroke-width:0.5;" width="293" x="767" y="84"/><ellipse cx="782" cy="100" fill="#ADD1B2" rx="11" ry="11" style="stroke:#181818;stroke-width:1.0;"/><path d="M784.9688,105.6406 Q784.3906,105.9375 783.75,106.0781 Q783.1094,106.2344 782.4063,106.2344 Q779.9063,106.2344 778.5781,104.5938 Q777.2656,102.9375 777.2656,99.8125 Q777.2656,96.6875 778.5781,95.0313 Q779.9063,93.375 782.4063,93.375 Q783.1094,93.375 783.75,93.5313 Q784.4063,93.6875 784.9688,93.9844 L784.9688,96.7031 Q784.3438,96.125 783.75,95.8594 Q783.1563,95.5781 782.5313,95.5781 Q781.1875,95.5781 780.5,96.6563 Q779.8125,97.7188 779.8125,99.8125 Q779.8125,101.9063 780.5,102.9844 Q781.1875,104.0469 782.5313,104.0469 Q783.1563,104.0469 783.75,103.7813 Q784.3438,103.5 784.9688,102.9219 L784.9688,105.6406 Z " fill="#000000"/><text fill="#000000" font-family="sans-serif" font-size="14" lengthAdjust="spacing" textLength="261" x="796" y="104.8467">HyppoEngine\Exception\FileNotFound</text><line style="stroke:#181818;stroke-width:0.5;" x1="768" x2="1059" y1="116" y2="116"/><line style="stroke:#181818;stroke-width:0.5;" x1="768" x2="1059" y1="124" y2="124"/></g><!--class HyppoEngine\Exception\ParserNotExists--><g id="elem_HyppoEngine\Exception\ParserNotExists"><rect codeLine="7" fill="#F1F1F1" height="48" id="HyppoEngine\Exception\ParserNotExists" rx="2.5" ry="2.5" style="stroke:#181818;stroke-width:0.5;" width="310" x="1095.5" y="84"/><ellipse cx="1110.5" cy="100" fill="#ADD1B2" rx="11" ry="11" style="stroke:#181818;stroke-width:1.0;"/><path d="M1113.4688,105.6406 Q1112.8906,105.9375 1112.25,106.0781 Q1111.6094,106.2344 1110.9063,106.2344 Q1108.4063,106.2344 1107.0781,104.5938 Q1105.7656,102.9375 1105.7656,99.8125 Q1105.7656,96.6875 1107.0781,95.0313 Q1108.4063,93.375 1110.9063,93.375 Q1111.6094,93.375 1112.25,93.5313 Q1112.9063,93.6875 1113.4688,93.9844 L1113.4688,96.7031 Q1112.8438,96.125 1112.25,95.8594 Q1111.6563,95.5781 1111.0313,95.5781 Q1109.6875,95.5781 1109,96.6563 Q1108.3125,97.7188 1108.3125,99.8125 Q1108.3125,101.9063 1109,102.9844 Q1109.6875,104.0469 1111.0313,104.0469 Q1111.6563,104.0469 1112.25,103.7813 Q1112.8438,103.5 1113.4688,102.9219 L1113.4688,105.6406 Z " fill="#000000"/><text fill="#000000" font-family="sans-serif" font-size="14" lengthAdjust="spacing" textLength="278" x="1124.5" y="104.8467">HyppoEngine\Exception\ParserNotExists</text><line style="stroke:#181818;stroke-width:0.5;" x1="1096.5" x2="1404.5" y1="116" y2="116"/><line style="stroke:#181818;stroke-width:0.5;" x1="1096.5" x2="1404.5" y1="124" y2="124"/></g><!--class HyppoEngine\Exception\RenderNotExists--><g id="elem_HyppoEngine\Exception\RenderNotExists"><rect codeLine="9" fill="#F1F1F1" height="48" id="HyppoEngine\Exception\RenderNotExists" rx="2.5" ry="2.5" style="stroke:#181818;stroke-width:0.5;" width="317" x="422" y="250"/><ellipse cx="437" cy="266" fill="#ADD1B2" rx="11" ry="11" style="stroke:#181818;stroke-width:1.0;"/><path d="M439.9688,271.6406 Q439.3906,271.9375 438.75,272.0781 Q438.1094,272.2344 437.4063,272.2344 Q434.9063,272.2344 433.5781,270.5938 Q432.2656,268.9375 432.2656,265.8125 Q432.2656,262.6875 433.5781,261.0313 Q434.9063,259.375 437.4063,259.375 Q438.1094,259.375 438.75,259.5313 Q439.4063,259.6875 439.9688,259.9844 L439.9688,262.7031 Q439.3438,262.125 438.75,261.8594 Q438.1563,261.5781 437.5313,261.5781 Q436.1875,261.5781 435.5,262.6563 Q434.8125,263.7188 434.8125,265.8125 Q434.8125,267.9063 435.5,268.9844 Q436.1875,270.0469 437.5313,270.0469 Q438.1563,270.0469 438.75,269.7813 Q439.3438,269.5 439.9688,268.9219 L439.9688,271.6406 Z " fill="#000000"/><text fill="#000000" font-family="sans-serif" font-size="14" lengthAdjust="spacing" textLength="285" x="451" y="270.8467">HyppoEngine\Exception\RenderNotExists</text><line style="stroke:#181818;stroke-width:0.5;" x1="423" x2="738" y1="282" y2="282"/><line style="stroke:#181818;stroke-width:0.5;" x1="423" x2="738" y1="290" y2="290"/></g><!--class HyppoEngine\Exception\RepositoryError--><g id="elem_HyppoEngine\Exception\RepositoryError"><rect codeLine="11" fill="#F1F1F1" height="48" id="HyppoEngine\Exception\RepositoryError" rx="2.5" ry="2.5" style="stroke:#181818;stroke-width:0.5;" width="309" x="774" y="250"/><ellipse cx="789" cy="266" fill="#ADD1B2" rx="11" ry="11" style="stroke:#181818;stroke-width:1.0;"/><path d="M791.9688,271.6406 Q791.3906,271.9375 790.75,272.0781 Q790.1094,272.2344 789.4063,272.2344 Q786.9063,272.2344 785.5781,270.5938 Q784.2656,268.9375 784.2656,265.8125 Q784.2656,262.6875 785.5781,261.0313 Q786.9063,259.375 789.4063,259.375 Q790.1094,259.375 790.75,259.5313 Q791.4063,259.6875 791.9688,259.9844 L791.9688,262.7031 Q791.3438,262.125 790.75,261.8594 Q790.1563,261.5781 789.5313,261.5781 Q788.1875,261.5781 787.5,262.6563 Q786.8125,263.7188 786.8125,265.8125 Q786.8125,267.9063 787.5,268.9844 Q788.1875,270.0469 789.5313,270.0469 Q790.1563,270.0469 790.75,269.7813 Q791.3438,269.5 791.9688,268.9219 L791.9688,271.6406 Z " fill="#000000"/><text fill="#000000" font-family="sans-serif" font-size="14" lengthAdjust="spacing" textLength="277" x="803" y="270.8467">HyppoEngine\Exception\RepositoryError</text><line style="stroke:#181818;stroke-width:0.5;" x1="775" x2="1082" y1="282" y2="282"/><line style="stroke:#181818;stroke-width:0.5;" x1="775" x2="1082" y1="290" y2="290"/></g><!--class HyppoEngine\Exception\RepositoryNotExists--><g id="elem_HyppoEngine\Exception\RepositoryNotExists"><rect codeLine="13" fill="#F1F1F1" height="48" id="HyppoEngine\Exception\RepositoryNotExists" rx="2.5" ry="2.5" style="stroke:#181818;stroke-width:0.5;" width="340" x="1118.5" y="250"/><ellipse cx="1133.5" cy="266" fill="#ADD1B2" rx="11" ry="11" style="stroke:#181818;stroke-width:1.0;"/><path d="M1136.4688,271.6406 Q1135.8906,271.9375 1135.25,272.0781 Q1134.6094,272.2344 1133.9063,272.2344 Q1131.4063,272.2344 1130.0781,270.5938 Q1128.7656,268.9375 1128.7656,265.8125 Q1128.7656,262.6875 1130.0781,261.0313 Q1131.4063,259.375 1133.9063,259.375 Q1134.6094,259.375 1135.25,259.5313 Q1135.9063,259.6875 1136.4688,259.9844 L1136.4688,262.7031 Q1135.8438,262.125 1135.25,261.8594 Q1134.6563,261.5781 1134.0313,261.5781 Q1132.6875,261.5781 1132,262.6563 Q1131.3125,263.7188 1131.3125,265.8125 Q1131.3125,267.9063 1132,268.9844 Q1132.6875,270.0469 1134.0313,270.0469 Q1134.6563,270.0469 1135.25,269.7813 Q1135.8438,269.5 1136.4688,268.9219 L1136.4688,271.6406 Z " fill="#000000"/><text fill="#000000" font-family="sans-serif" font-size="14" lengthAdjust="spacing" textLength="308" x="1147.5" y="270.8467">HyppoEngine\Exception\RepositoryNotExists</text><line style="stroke:#181818;stroke-width:0.5;" x1="1119.5" x2="1457.5" y1="282" y2="282"/><line style="stroke:#181818;stroke-width:0.5;" x1="1119.5" x2="1457.5" y1="290" y2="290"/></g><!--class HyppoEngine\Exception\SyntaxTreeNotExists--><g id="elem_HyppoEngine\Exception\SyntaxTreeNotExists"><rect codeLine="15" fill="#F1F1F1" height="48" id="HyppoEngine\Exception\SyntaxTreeNotExists" rx="2.5" ry="2.5" style="stroke:#181818;stroke-width:0.5;" width="343" x="421" y="358"/><ellipse cx="436" cy="374" fill="#ADD1B2" rx="11" ry="11" style="stroke:#181818;stroke-width:1.0;"/><path d="M438.9688,379.6406 Q438.3906,379.9375 437.75,380.0781 Q437.1094,380.2344 436.4063,380.2344 Q433.9063,380.2344 432.5781,378.5938 Q431.2656,376.9375 431.2656,373.8125 Q431.2656,370.6875 432.5781,369.0313 Q433.9063,367.375 436.4063,367.375 Q437.1094,367.375 437.75,367.5313 Q438.4063,367.6875 438.9688,367.9844 L438.9688,370.7031 Q438.3438,370.125 437.75,369.8594 Q437.1563,369.5781 436.5313,369.5781 Q435.1875,369.5781 434.5,370.6563 Q433.8125,371.7188 433.8125,373.8125 Q433.8125,375.9063 434.5,376.9844 Q435.1875,378.0469 436.5313,378.0469 Q437.1563,378.0469 437.75,377.7813 Q438.3438,377.5 438.9688,376.9219 L438.9688,379.6406 Z " fill="#000000"/><text fill="#000000" font-family="sans-serif" font-size="14" lengthAdjust="spacing" textLength="311" x="450" y="378.8467">HyppoEngine\Exception\SyntaxTreeNotExists</text><line style="stroke:#181818;stroke-width:0.5;" x1="422" x2="763" y1="390" y2="390"/><line style="stroke:#181818;stroke-width:0.5;" x1="422" x2="763" y1="398" y2="398"/></g><!--class HyppoEngine\Parser\Markdown--><g id="elem_HyppoEngine\Parser\Markdown"><rect codeLine="3" fill="#F1F1F1" height="48" id="HyppoEngine\Parser\Markdown" rx="2.5" ry="2.5" style="stroke:#181818;stroke-width:0.5;" width="249" x="3154" y="84"/><ellipse cx="3169" cy="100" fill="#ADD1B2" rx="11" ry="11" style="stroke:#181818;stroke-width:1.0;"/><path d="M3171.9688,105.6406 Q3171.3906,105.9375 3170.75,106.0781 Q3170.1094,106.2344 3169.4063,106.2344 Q3166.9063,106.2344 3165.5781,104.5938 Q3164.2656,102.9375 3164.2656,99.8125 Q3164.2656,96.6875 3165.5781,95.0313 Q3166.9063,93.375 3169.4063,93.375 Q3170.1094,93.375 3170.75,93.5313 Q3171.4063,93.6875 3171.9688,93.9844 L3171.9688,96.7031 Q3171.3438,96.125 3170.75,95.8594 Q3170.1563,95.5781 3169.5313,95.5781 Q3168.1875,95.5781 3167.5,96.6563 Q3166.8125,97.7188 3166.8125,99.8125 Q3166.8125,101.9063 3167.5,102.9844 Q3168.1875,104.0469 3169.5313,104.0469 Q3170.1563,104.0469 3170.75,103.7813 Q3171.3438,103.5 3171.9688,102.9219 L3171.9688,105.6406 Z " fill="#000000"/><text fill="#000000" font-family="sans-serif" font-size="14" lengthAdjust="spacing" textLength="217" x="3183" y="104.8467">HyppoEngine\Parser\Markdown</text><line style="stroke:#181818;stroke-width:0.5;" x1="3155" x2="3402" y1="116" y2="116"/><line style="stroke:#181818;stroke-width:0.5;" x1="3155" x2="3402" y1="124" y2="124"/></g><!--class HyppoEngine\Render\Html--><g id="elem_HyppoEngine\Render\Html"><rect codeLine="3" fill="#F1F1F1" height="48" id="HyppoEngine\Render\Html" rx="2.5" ry="2.5" style="stroke:#181818;stroke-width:0.5;" width="216" x="3459.5" y="84"/><ellipse cx="3474.5" cy="100" fill="#ADD1B2" rx="11" ry="11" style="stroke:#181818;stroke-width:1.0;"/><path d="M3477.4688,105.6406 Q3476.8906,105.9375 3476.25,106.0781 Q3475.6094,106.2344 3474.9063,106.2344 Q3472.4063,106.2344 3471.0781,104.5938 Q3469.7656,102.9375 3469.7656,99.8125 Q3469.7656,96.6875 3471.0781,95.0313 Q3472.4063,93.375 3474.9063,93.375 Q3475.6094,93.375 3476.25,93.5313 Q3476.9063,93.6875 3477.4688,93.9844 L3477.4688,96.7031 Q3476.8438,96.125 3476.25,95.8594 Q3475.6563,95.5781 3475.0313,95.5781 Q3473.6875,95.5781 3473,96.6563 Q3472.3125,97.7188 3472.3125,99.8125 Q3472.3125,101.9063 3473,102.9844 Q3473.6875,104.0469 3475.0313,104.0469 Q3475.6563,104.0469 3476.25,103.7813 Q3476.8438,103.5 3477.4688,102.9219 L3477.4688,105.6406 Z " fill="#000000"/><text fill="#000000" font-family="sans-serif" font-size="14" lengthAdjust="spacing" textLength="184" x="3488.5" y="104.8467">HyppoEngine\Render\Html</text><line style="stroke:#181818;stroke-width:0.5;" x1="3460.5" x2="3674.5" y1="116" y2="116"/><line style="stroke:#181818;stroke-width:0.5;" x1="3460.5" x2="3674.5" y1="124" y2="124"/></g><!--class HyppoEngine\Repository\File--><g id="elem_HyppoEngine\Repository\File"><rect codeLine="3" fill="#F1F1F1" height="48" id="HyppoEngine\Repository\File" rx="2.5" ry="2.5" style="stroke:#181818;stroke-width:0.5;" width="231" x="3731" y="84"/><ellipse cx="3746" cy="100" fill="#ADD1B2" rx="11" ry="11" style="stroke:#181818;stroke-width:1.0;"/><path d="M3748.9688,105.6406 Q3748.3906,105.9375 3747.75,106.0781 Q3747.1094,106.2344 3746.4063,106.2344 Q3743.9063,106.2344 3742.5781,104.5938 Q3741.2656,102.9375 3741.2656,99.8125 Q3741.2656,96.6875 3742.5781,95.0313 Q3743.9063,93.375 3746.4063,93.375 Q3747.1094,93.375 3747.75,93.5313 Q3748.4063,93.6875 3748.9688,93.9844 L3748.9688,96.7031 Q3748.3438,96.125 3747.75,95.8594 Q3747.1563,95.5781 3746.5313,95.5781 Q3745.1875,95.5781 3744.5,96.6563 Q3743.8125,97.7188 3743.8125,99.8125 Q3743.8125,101.9063 3744.5,102.9844 Q3745.1875,104.0469 3746.5313,104.0469 Q3747.1563,104.0469 3747.75,103.7813 Q3748.3438,103.5 3748.9688,102.9219 L3748.9688,105.6406 Z " fill="#000000"/><text fill="#000000" font-family="sans-serif" font-size="14" lengthAdjust="spacing" textLength="199" x="3760" y="104.8467">HyppoEngine\Repository\File</text><line style="stroke:#181818;stroke-width:0.5;" x1="3732" x2="3961" y1="116" y2="116"/><line style="stroke:#181818;stroke-width:0.5;" x1="3732" x2="3961" y1="124" y2="124"/></g><!--class HyppoEngine\Attribute--><g id="elem_HyppoEngine\Attribute"><rect codeLine="12" fill="#F1F1F1" height="48" id="HyppoEngine\Attribute" rx="2.5" ry="2.5" style="stroke:#181818;stroke-width:0.5;" width="188" x="1514.5" y="84"/><ellipse cx="1529.5" cy="100" fill="#ADD1B2" rx="11" ry="11" style="stroke:#181818;stroke-width:1.0;"/><path d="M1532.4688,105.6406 Q1531.8906,105.9375 1531.25,106.0781 Q1530.6094,106.2344 1529.9063,106.2344 Q1527.4063,106.2344 1526.0781,104.5938 Q1524.7656,102.9375 1524.7656,99.8125 Q1524.7656,96.6875 1526.0781,95.0313 Q1527.4063,93.375 1529.9063,93.375 Q1530.6094,93.375 1531.25,93.5313 Q1531.9063,93.6875 1532.4688,93.9844 L1532.4688,96.7031 Q1531.8438,96.125 1531.25,95.8594 Q1530.6563,95.5781 1530.0313,95.5781 Q1528.6875,95.5781 1528,96.6563 Q1527.3125,97.7188 1527.3125,99.8125 Q1527.3125,101.9063 1528,102.9844 Q1528.6875,104.0469 1530.0313,104.0469 Q1530.6563,104.0469 1531.25,103.7813 Q1531.8438,103.5 1532.4688,102.9219 L1532.4688,105.6406 Z " fill="#000000"/><text fill="#000000" font-family="sans-serif" font-size="14" lengthAdjust="spacing" textLength="156" x="1543.5" y="104.8467">HyppoEngine\Attribute</text><line style="stroke:#181818;stroke-width:0.5;" x1="1515.5" x2="1701.5" y1="116" y2="116"/><line style="stroke:#181818;stroke-width:0.5;" x1="1515.5" x2="1701.5" y1="124" y2="124"/></g><!--class HyppoEngine\Pattern\Builder--><g id="elem_HyppoEngine\Pattern\Builder"><rect codeLine="2" fill="#F1F1F1" height="48" id="HyppoEngine\Pattern\Builder" rx="2.5" ry="2.5" style="stroke:#181818;stroke-width:0.5;" width="232" x="1737.5" y="84"/><ellipse cx="1752.5" cy="100" fill="#ADD1B2" rx="11" ry="11" style="stroke:#181818;stroke-width:1.0;"/><path d="M1755.4688,105.6406 Q1754.8906,105.9375 1754.25,106.0781 Q1753.6094,106.2344 1752.9063,106.2344 Q1750.4063,106.2344 1749.0781,104.5938 Q1747.7656,102.9375 1747.7656,99.8125 Q1747.7656,96.6875 1749.0781,95.0313 Q1750.4063,93.375 1752.9063,93.375 Q1753.6094,93.375 1754.25,93.5313 Q1754.9063,93.6875 1755.4688,93.9844 L1755.4688,96.7031 Q1754.8438,96.125 1754.25,95.8594 Q1753.6563,95.5781 1753.0313,95.5781 Q1751.6875,95.5781 1751,96.6563 Q1750.3125,97.7188 1750.3125,99.8125 Q1750.3125,101.9063 1751,102.9844 Q1751.6875,104.0469 1753.0313,104.0469 Q1753.6563,104.0469 1754.25,103.7813 Q1754.8438,103.5 1755.4688,102.9219 L1755.4688,105.6406 Z " fill="#000000"/><text fill="#000000" font-family="sans-serif" font-size="14" lengthAdjust="spacing" textLength="200" x="1766.5" y="104.8467">HyppoEngine\Pattern\Builder</text><line style="stroke:#181818;stroke-width:0.5;" x1="1738.5" x2="1968.5" y1="116" y2="116"/><line style="stroke:#181818;stroke-width:0.5;" x1="1738.5" x2="1968.5" y1="124" y2="124"/></g><!--class HyppoEngine\Pattern\Factory--><g id="elem_HyppoEngine\Pattern\Factory"><rect codeLine="5" fill="#F1F1F1" height="48" id="HyppoEngine\Pattern\Factory" rx="2.5" ry="2.5" style="stroke:#181818;stroke-width:0.5;" width="234" x="2004.5" y="84"/><ellipse cx="2019.5" cy="100" fill="#ADD1B2" rx="11" ry="11" style="stroke:#181818;stroke-width:1.0;"/><path d="M2022.4688,105.6406 Q2021.8906,105.9375 2021.25,106.0781 Q2020.6094,106.2344 2019.9063,106.2344 Q2017.4063,106.2344 2016.0781,104.5938 Q2014.7656,102.9375 2014.7656,99.8125 Q2014.7656,96.6875 2016.0781,95.0313 Q2017.4063,93.375 2019.9063,93.375 Q2020.6094,93.375 2021.25,93.5313 Q2021.9063,93.6875 2022.4688,93.9844 L2022.4688,96.7031 Q2021.8438,96.125 2021.25,95.8594 Q2020.6563,95.5781 2020.0313,95.5781 Q2018.6875,95.5781 2018,96.6563 Q2017.3125,97.7188 2017.3125,99.8125 Q2017.3125,101.9063 2018,102.9844 Q2018.6875,104.0469 2020.0313,104.0469 Q2020.6563,104.0469 2021.25,103.7813 Q2021.8438,103.5 2022.4688,102.9219 L2022.4688,105.6406 Z " fill="#000000"/><text fill="#000000" font-family="sans-serif" font-size="14" lengthAdjust="spacing" textLength="202" x="2033.5" y="104.8467">HyppoEngine\Pattern\Factory</text><line style="stroke:#181818;stroke-width:0.5;" x1="2005.5" x2="2237.5" y1="116" y2="116"/><line style="stroke:#181818;stroke-width:0.5;" x1="2005.5" x2="2237.5" y1="124" y2="124"/></g><!--class HyppoEngine\Pattern\DTO--><g id="elem_HyppoEngine\Pattern\DTO"><rect codeLine="7" fill="#F1F1F1" height="48" id="HyppoEngine\Pattern\DTO" rx="2.5" ry="2.5" style="stroke:#181818;stroke-width:0.5;" width="215" x="1735" y="250"/><ellipse cx="1750" cy="266" fill="#ADD1B2" rx="11" ry="11" style="stroke:#181818;stroke-width:1.0;"/><path d="M1752.9688,271.6406 Q1752.3906,271.9375 1751.75,272.0781 Q1751.1094,272.2344 1750.4063,272.2344 Q1747.9063,272.2344 1746.5781,270.5938 Q1745.2656,268.9375 1745.2656,265.8125 Q1745.2656,262.6875 1746.5781,261.0313 Q1747.9063,259.375 1750.4063,259.375 Q1751.1094,259.375 1751.75,259.5313 Q1752.4063,259.6875 1752.9688,259.9844 L1752.9688,262.7031 Q1752.3438,262.125 1751.75,261.8594 Q1751.1563,261.5781 1750.5313,261.5781 Q1749.1875,261.5781 1748.5,262.6563 Q1747.8125,263.7188 1747.8125,265.8125 Q1747.8125,267.9063 1748.5,268.9844 Q1749.1875,270.0469 1750.5313,270.0469 Q1751.1563,270.0469 1751.75,269.7813 Q1752.3438,269.5 1752.9688,268.9219 L1752.9688,271.6406 Z " fill="#000000"/><text fill="#000000" font-family="sans-serif" font-size="14" lengthAdjust="spacing" textLength="183" x="1764" y="270.8467">HyppoEngine\Pattern\DTO</text><line style="stroke:#181818;stroke-width:0.5;" x1="1736" x2="1949" y1="282" y2="282"/><line style="stroke:#181818;stroke-width:0.5;" x1="1736" x2="1949" y1="290" y2="290"/></g><!--class HyppoEngine\Pattern\Repository--><g id="elem_HyppoEngine\Pattern\Repository"><rect codeLine="9" fill="#F1F1F1" height="48" id="HyppoEngine\Pattern\Repository" rx="2.5" ry="2.5" style="stroke:#181818;stroke-width:0.5;" width="258" x="1985.5" y="250"/><ellipse cx="2000.5" cy="266" fill="#ADD1B2" rx="11" ry="11" style="stroke:#181818;stroke-width:1.0;"/><path d="M2003.4688,271.6406 Q2002.8906,271.9375 2002.25,272.0781 Q2001.6094,272.2344 2000.9063,272.2344 Q1998.4063,272.2344 1997.0781,270.5938 Q1995.7656,268.9375 1995.7656,265.8125 Q1995.7656,262.6875 1997.0781,261.0313 Q1998.4063,259.375 2000.9063,259.375 Q2001.6094,259.375 2002.25,259.5313 Q2002.9063,259.6875 2003.4688,259.9844 L2003.4688,262.7031 Q2002.8438,262.125 2002.25,261.8594 Q2001.6563,261.5781 2001.0313,261.5781 Q1999.6875,261.5781 1999,262.6563 Q1998.3125,263.7188 1998.3125,265.8125 Q1998.3125,267.9063 1999,268.9844 Q1999.6875,270.0469 2001.0313,270.0469 Q2001.6563,270.0469 2002.25,269.7813 Q2002.8438,269.5 2003.4688,268.9219 L2003.4688,271.6406 Z " fill="#000000"/><text fill="#000000" font-family="sans-serif" font-size="14" lengthAdjust="spacing" textLength="226" x="2014.5" y="270.8467">HyppoEngine\Pattern\Repository</text><line style="stroke:#181818;stroke-width:0.5;" x1="1986.5" x2="2242.5" y1="282" y2="282"/><line style="stroke:#181818;stroke-width:0.5;" x1="1986.5" x2="2242.5" y1="290" y2="290"/></g><!--class DTO--><g id="elem_DTO"><rect codeLine="0" fill="#F1F1F1" height="48" id="DTO" rx="2.5" ry="2.5" style="stroke:#181818;stroke-width:0.5;" width="63" x="2750" y="84"/><ellipse cx="2765" cy="100" fill="#ADD1B2" rx="11" ry="11" style="stroke:#181818;stroke-width:1.0;"/><path d="M2767.9688,105.6406 Q2767.3906,105.9375 2766.75,106.0781 Q2766.1094,106.2344 2765.4063,106.2344 Q2762.9063,106.2344 2761.5781,104.5938 Q2760.2656,102.9375 2760.2656,99.8125 Q2760.2656,96.6875 2761.5781,95.0313 Q2762.9063,93.375 2765.4063,93.375 Q2766.1094,93.375 2766.75,93.5313 Q2767.4063,93.6875 2767.9688,93.9844 L2767.9688,96.7031 Q2767.3438,96.125 2766.75,95.8594 Q2766.1563,95.5781 2765.5313,95.5781 Q2764.1875,95.5781 2763.5,96.6563 Q2762.8125,97.7188 2762.8125,99.8125 Q2762.8125,101.9063 2763.5,102.9844 Q2764.1875,104.0469 2765.5313,104.0469 Q2766.1563,104.0469 2766.75,103.7813 Q2767.3438,103.5 2767.9688,102.9219 L2767.9688,105.6406 Z " fill="#000000"/><text fill="#000000" font-family="sans-serif" font-size="14" lengthAdjust="spacing" textLength="31" x="2779" y="104.8467">DTO</text><line style="stroke:#181818;stroke-width:0.5;" x1="2751" x2="2812" y1="116" y2="116"/><line style="stroke:#181818;stroke-width:0.5;" x1="2751" x2="2812" y1="124" y2="124"/></g><!--class Document--><g id="elem_Document"><rect codeLine="0" fill="#F1F1F1" height="48" id="Document" rx="2.5" ry="2.5" style="stroke:#181818;stroke-width:0.5;" width="105" x="7" y="84"/><ellipse cx="22" cy="100" fill="#ADD1B2" rx="11" ry="11" style="stroke:#181818;stroke-width:1.0;"/><path d="M24.9688,105.6406 Q24.3906,105.9375 23.75,106.0781 Q23.1094,106.2344 22.4063,106.2344 Q19.9063,106.2344 18.5781,104.5938 Q17.2656,102.9375 17.2656,99.8125 Q17.2656,96.6875 18.5781,95.0313 Q19.9063,93.375 22.4063,93.375 Q23.1094,93.375 23.75,93.5313 Q24.4063,93.6875 24.9688,93.9844 L24.9688,96.7031 Q24.3438,96.125 23.75,95.8594 Q23.1563,95.5781 22.5313,95.5781 Q21.1875,95.5781 20.5,96.6563 Q19.8125,97.7188 19.8125,99.8125 Q19.8125,101.9063 20.5,102.9844 Q21.1875,104.0469 22.5313,104.0469 Q23.1563,104.0469 23.75,103.7813 Q24.3438,103.5 24.9688,102.9219 L24.9688,105.6406 Z " fill="#000000"/><text fill="#000000" font-family="sans-serif" font-size="14" lengthAdjust="spacing" textLength="73" x="36" y="104.8467">Document</text><line style="stroke:#181818;stroke-width:0.5;" x1="8" x2="111" y1="116" y2="116"/><line style="stroke:#181818;stroke-width:0.5;" x1="8" x2="111" y1="124" y2="124"/></g><!--class Exception--><g id="elem_Exception"><rect codeLine="0" fill="#F1F1F1" height="48" id="Exception" rx="2.5" ry="2.5" style="stroke:#181818;stroke-width:0.5;" width="100" x="147.5" y="84"/><ellipse cx="162.5" cy="100" fill="#ADD1B2" rx="11" ry="11" style="stroke:#181818;stroke-width:1.0;"/><path d="M165.4688,105.6406 Q164.8906,105.9375 164.25,106.0781 Q163.6094,106.2344 162.9063,106.2344 Q160.4063,106.2344 159.0781,104.5938 Q157.7656,102.9375 157.7656,99.8125 Q157.7656,96.6875 159.0781,95.0313 Q160.4063,93.375 162.9063,93.375 Q163.6094,93.375 164.25,93.5313 Q164.9063,93.6875 165.4688,93.9844 L165.4688,96.7031 Q164.8438,96.125 164.25,95.8594 Q163.6563,95.5781 163.0313,95.5781 Q161.6875,95.5781 161,96.6563 Q160.3125,97.7188 160.3125,99.8125 Q160.3125,101.9063 161,102.9844 Q161.6875,104.0469 163.0313,104.0469 Q163.6563,104.0469 164.25,103.7813 Q164.8438,103.5 165.4688,102.9219 L165.4688,105.6406 Z " fill="#000000"/><text fill="#000000" font-family="sans-serif" font-size="14" lengthAdjust="spacing" textLength="68" x="176.5" y="104.8467">Exception</text><line style="stroke:#181818;stroke-width:0.5;" x1="148.5" x2="246.5" y1="116" y2="116"/><line style="stroke:#181818;stroke-width:0.5;" x1="148.5" x2="246.5" y1="124" y2="124"/></g><!--class Parser--><g id="elem_Parser"><rect codeLine="0" fill="#F1F1F1" height="48" id="Parser" rx="2.5" ry="2.5" style="stroke:#181818;stroke-width:0.5;" width="76" x="282.5" y="84"/><ellipse cx="297.5" cy="100" fill="#ADD1B2" rx="11" ry="11" style="stroke:#181818;stroke-width:1.0;"/><path d="M300.4688,105.6406 Q299.8906,105.9375 299.25,106.0781 Q298.6094,106.2344 297.9063,106.2344 Q295.4063,106.2344 294.0781,104.5938 Q292.7656,102.9375 292.7656,99.8125 Q292.7656,96.6875 294.0781,95.0313 Q295.4063,93.375 297.9063,93.375 Q298.6094,93.375 299.25,93.5313 Q299.9063,93.6875 300.4688,93.9844 L300.4688,96.7031 Q299.8438,96.125 299.25,95.8594 Q298.6563,95.5781 298.0313,95.5781 Q296.6875,95.5781 296,96.6563 Q295.3125,97.7188 295.3125,99.8125 Q295.3125,101.9063 296,102.9844 Q296.6875,104.0469 298.0313,104.0469 Q298.6563,104.0469 299.25,103.7813 Q299.8438,103.5 300.4688,102.9219 L300.4688,105.6406 Z " fill="#000000"/><text fill="#000000" font-family="sans-serif" font-size="14" lengthAdjust="spacing" textLength="44" x="311.5" y="104.8467">Parser</text><line style="stroke:#181818;stroke-width:0.5;" x1="283.5" x2="357.5" y1="116" y2="116"/><line style="stroke:#181818;stroke-width:0.5;" x1="283.5" x2="357.5" y1="124" y2="124"/></g><!--class Render--><g id="elem_Render"><rect codeLine="0" fill="#F1F1F1" height="48" id="Render" rx="2.5" ry="2.5" style="stroke:#181818;stroke-width:0.5;" width="83" x="18" y="250"/><ellipse cx="33" cy="266" fill="#ADD1B2" rx="11" ry="11" style="stroke:#181818;stroke-width:1.0;"/><path d="M35.9688,271.6406 Q35.3906,271.9375 34.75,272.0781 Q34.1094,272.2344 33.4063,272.2344 Q30.9063,272.2344 29.5781,270.5938 Q28.2656,268.9375 28.2656,265.8125 Q28.2656,262.6875 29.5781,261.0313 Q30.9063,259.375 33.4063,259.375 Q34.1094,259.375 34.75,259.5313 Q35.4063,259.6875 35.9688,259.9844 L35.9688,262.7031 Q35.3438,262.125 34.75,261.8594 Q34.1563,261.5781 33.5313,261.5781 Q32.1875,261.5781 31.5,262.6563 Q30.8125,263.7188 30.8125,265.8125 Q30.8125,267.9063 31.5,268.9844 Q32.1875,270.0469 33.5313,270.0469 Q34.1563,270.0469 34.75,269.7813 Q35.3438,269.5 35.9688,268.9219 L35.9688,271.6406 Z " fill="#000000"/><text fill="#000000" font-family="sans-serif" font-size="14" lengthAdjust="spacing" textLength="51" x="47" y="270.8467">Render</text><line style="stroke:#181818;stroke-width:0.5;" x1="19" x2="100" y1="282" y2="282"/><line style="stroke:#181818;stroke-width:0.5;" x1="19" x2="100" y1="290" y2="290"/></g><!--class Repository--><g id="elem_Repository"><rect codeLine="0" fill="#F1F1F1" height="48" id="Repository" rx="2.5" ry="2.5" style="stroke:#181818;stroke-width:0.5;" width="106" x="136.5" y="250"/><ellipse cx="151.5" cy="266" fill="#ADD1B2" rx="11" ry="11" style="stroke:#181818;stroke-width:1.0;"/><path d="M154.4688,271.6406 Q153.8906,271.9375 153.25,272.0781 Q152.6094,272.2344 151.9063,272.2344 Q149.4063,272.2344 148.0781,270.5938 Q146.7656,268.9375 146.7656,265.8125 Q146.7656,262.6875 148.0781,261.0313 Q149.4063,259.375 151.9063,259.375 Q152.6094,259.375 153.25,259.5313 Q153.9063,259.6875 154.4688,259.9844 L154.4688,262.7031 Q153.8438,262.125 153.25,261.8594 Q152.6563,261.5781 152.0313,261.5781 Q150.6875,261.5781 150,262.6563 Q149.3125,263.7188 149.3125,265.8125 Q149.3125,267.9063 150,268.9844 Q150.6875,270.0469 152.0313,270.0469 Q152.6563,270.0469 153.25,269.7813 Q153.8438,269.5 154.4688,268.9219 L154.4688,271.6406 Z " fill="#000000"/><text fill="#000000" font-family="sans-serif" font-size="14" lengthAdjust="spacing" textLength="74" x="165.5" y="270.8467">Repository</text><line style="stroke:#181818;stroke-width:0.5;" x1="137.5" x2="241.5" y1="282" y2="282"/><line style="stroke:#181818;stroke-width:0.5;" x1="137.5" x2="241.5" y1="290" y2="290"/></g><!--class SyntaxTree--><g id="elem_SyntaxTree"><rect codeLine="0" fill="#F1F1F1" height="48" id="SyntaxTree" rx="2.5" ry="2.5" style="stroke:#181818;stroke-width:0.5;" width="109" x="278" y="250"/><ellipse cx="293" cy="266" fill="#ADD1B2" rx="11" ry="11" style="stroke:#181818;stroke-width:1.0;"/><path d="M295.9688,271.6406 Q295.3906,271.9375 294.75,272.0781 Q294.1094,272.2344 293.4063,272.2344 Q290.9063,272.2344 289.5781,270.5938 Q288.2656,268.9375 288.2656,265.8125 Q288.2656,262.6875 289.5781,261.0313 Q290.9063,259.375 293.4063,259.375 Q294.1094,259.375 294.75,259.5313 Q295.4063,259.6875 295.9688,259.9844 L295.9688,262.7031 Q295.3438,262.125 294.75,261.8594 Q294.1563,261.5781 293.5313,261.5781 Q292.1875,261.5781 291.5,262.6563 Q290.8125,263.7188 290.8125,265.8125 Q290.8125,267.9063 291.5,268.9844 Q292.1875,270.0469 293.5313,270.0469 Q294.1563,270.0469 294.75,269.7813 Q295.3438,269.5 295.9688,268.9219 L295.9688,271.6406 Z " fill="#000000"/><text fill="#000000" font-family="sans-serif" font-size="14" lengthAdjust="spacing" textLength="77" x="307" y="270.8467">SyntaxTree</text><line style="stroke:#181818;stroke-width:0.5;" x1="279" x2="386" y1="282" y2="282"/><line style="stroke:#181818;stroke-width:0.5;" x1="279" x2="386" y1="290" y2="290"/></g><!--link DTO\Document\Author to DTO--><g id="link_DTO\Document\Author_DTO"><path codeLine="6" d="M2969.36,249.96 C2952.36,224.43 2921.33,184.2 2883.5,164 C2862.87,152.98 2852.52,166.25 2831.5,156 C2819.93,150.36 2821.7432,154.0591 2813.2232,145.2491 " fill="none" id="DTO\Document\Author-to-DTO" style="stroke:#181818;stroke-width:1.0;stroke-dasharray:7.0,7.0;"/><polygon fill="none" points="2800.71,132.31,2808.9101,149.4202,2817.5362,141.078,2800.71,132.31" style="stroke:#181818;stroke-width:1.0;"/></g><!--reverse link DTO to DTO\Document--><g id="link_DTO_DTO\Document"><path codeLine="16" d="M2781.5,150.15 C2781.5,181.41 2781.5,218.77 2781.5,249.97 " fill="none" id="DTO-backto-DTO\Document" style="stroke:#181818;stroke-width:1.0;stroke-dasharray:7.0,7.0;"/><polygon fill="none" points="2781.5,132.15,2775.5,150.15,2787.5,150.15,2781.5,132.15" style="stroke:#181818;stroke-width:1.0;"/></g><!--reverse link DTO to DTO\RepositoryNode--><g id="link_DTO_DTO\RepositoryNode"><path codeLine="17" d="M2734.1896,135.4384 C2716.8896,145.4984 2711.06,149.9 2693.5,164 C2660.42,190.57 2626.89,226.5 2606.4,249.72 " fill="none" id="DTO-backto-DTO\RepositoryNode" style="stroke:#181818;stroke-width:1.0;stroke-dasharray:7.0,7.0;"/><polygon fill="none" points="2749.75,126.39,2731.1735,130.2516,2737.2057,140.6252,2749.75,126.39" style="stroke:#181818;stroke-width:1.0;"/></g><!--SRC=[TSv12e0W4030Uw_83_YAEXVb1nPTGgfTMPNqzzs2GCzp6UN9NjdXE9b51x0d7AYVw0Rr0Tjy8wMspiLYI9wfpIj8H6dRXkJw5ZZwn5BRRWHyPxHNIb2C8Fxy1G00]--></g></svg>