<svg xmlns="http://www.w3.org/2000/svg" xmlns:xlink="http://www.w3.org/1999/xlink" contentStyleType="text/css" height="1274px" preserveAspectRatio="none" style="width:2617px;height:1274px;background:#FFFFFF;" version="1.1" viewBox="0 0 2617 1274" width="2617px" zoomAndPan="magnify"><defs/><g><!--cluster HyppoEngine\Trait--><g id="cluster_HyppoEngine\Trait"><path d="M2111.5,49 L2256.5,49 A3.75,3.75 0 0 1 2259,51.5 L2266,71.2969 L2482.5,71.2969 A2.5,2.5 0 0 1 2485,73.7969 L2485,536.5 A2.5,2.5 0 0 1 2482.5,539 L2111.5,539 A2.5,2.5 0 0 1 2109,536.5 L2109,51.5 A2.5,2.5 0 0 1 2111.5,49 " fill="none" style="stroke:#000000;stroke-width:1.5;"/><line style="stroke:#000000;stroke-width:1.5;" x1="2109" x2="2266" y1="71.2969" y2="71.2969"/><text fill="#000000" font-family="sans-serif" font-size="14" font-weight="bold" lengthAdjust="spacing" textLength="144" x="2113" y="63.9951">HyppoEngine\Trait</text></g><!--cluster HyppoEngine\Trait\Pattern\--><g id="cluster_HyppoEngine\Trait\Pattern\"><path d="M2235.5,92 L2448.5,92 A3.75,3.75 0 0 1 2451,94.5 L2458,114.2969 L2458.5,114.2969 A2.5,2.5 0 0 1 2461,116.7969 L2461,512.5 A2.5,2.5 0 0 1 2458.5,515 L2235.5,515 A2.5,2.5 0 0 1 2233,512.5 L2233,94.5 A2.5,2.5 0 0 1 2235.5,92 " fill="none" style="stroke:#000000;stroke-width:1.5;"/><line style="stroke:#000000;stroke-width:1.5;" x1="2233" x2="2458" y1="114.2969" y2="114.2969"/><text fill="#000000" font-family="sans-serif" font-size="14" font-weight="bold" lengthAdjust="spacing" textLength="212" x="2237" y="106.9951">HyppoEngine\Trait\Pattern\</text></g><!--cluster HyppoEngine\DTO\--><g id="cluster_HyppoEngine\DTO\"><path d="M1033.5,1036 L1180.5,1036 A3.75,3.75 0 0 1 1183,1038.5 L1190,1058.2969 L1488.5,1058.2969 A2.5,2.5 0 0 1 1491,1060.7969 L1491,1264.5 A2.5,2.5 0 0 1 1488.5,1267 L1033.5,1267 A2.5,2.5 0 0 1 1031,1264.5 L1031,1038.5 A2.5,2.5 0 0 1 1033.5,1036 " fill="none" style="stroke:#000000;stroke-width:1.5;"/><line style="stroke:#000000;stroke-width:1.5;" x1="1031" x2="1190" y1="1058.2969" y2="1058.2969"/><text fill="#000000" font-family="sans-serif" font-size="14" font-weight="bold" lengthAdjust="spacing" textLength="146" x="1035" y="1050.9951">HyppoEngine\DTO\</text></g><!--cluster HyppoEngine\DTO\Document\--><g id="cluster_HyppoEngine\DTO\Document\"><path d="M1173.5,1144 L1405.5,1144 A3.75,3.75 0 0 1 1408,1146.5 L1415,1166.2969 L1415.5,1166.2969 A2.5,2.5 0 0 1 1418,1168.7969 L1418,1240.5 A2.5,2.5 0 0 1 1415.5,1243 L1173.5,1243 A2.5,2.5 0 0 1 1171,1240.5 L1171,1146.5 A2.5,2.5 0 0 1 1173.5,1144 " fill="none" style="stroke:#000000;stroke-width:1.5;"/><line style="stroke:#000000;stroke-width:1.5;" x1="1171" x2="1415" y1="1166.2969" y2="1166.2969"/><text fill="#000000" font-family="sans-serif" font-size="14" font-weight="bold" lengthAdjust="spacing" textLength="231" x="1175" y="1158.9951">HyppoEngine\DTO\Document\</text></g><!--cluster HyppoEngine\Exception\--><g id="cluster_HyppoEngine\Exception\"><path d="M8.5,6 L199.5,6 A3.75,3.75 0 0 1 202,8.5 L209,28.2969 L2082.5,28.2969 A2.5,2.5 0 0 1 2085,30.7969 L2085,404.5 A2.5,2.5 0 0 1 2082.5,407 L8.5,407 A2.5,2.5 0 0 1 6,404.5 L6,8.5 A2.5,2.5 0 0 1 8.5,6 " fill="none" style="stroke:#000000;stroke-width:1.5;"/><line style="stroke:#000000;stroke-width:1.5;" x1="6" x2="209" y1="28.2969" y2="28.2969"/><text fill="#000000" font-family="sans-serif" font-size="14" font-weight="bold" lengthAdjust="spacing" textLength="190" x="10" y="20.9951">HyppoEngine\Exception\</text></g><!--cluster HyppoEngine\Exception\Common\--><g id="cluster_HyppoEngine\Exception\Common\"><path d="M1127.5,92 L1392.5,92 A3.75,3.75 0 0 1 1395,94.5 L1402,114.2969 L1441.5,114.2969 A2.5,2.5 0 0 1 1444,116.7969 L1444,188.5 A2.5,2.5 0 0 1 1441.5,191 L1127.5,191 A2.5,2.5 0 0 1 1125,188.5 L1125,94.5 A2.5,2.5 0 0 1 1127.5,92 " fill="none" style="stroke:#000000;stroke-width:1.5;"/><line style="stroke:#000000;stroke-width:1.5;" x1="1125" x2="1402" y1="114.2969" y2="114.2969"/><text fill="#000000" font-family="sans-serif" font-size="14" font-weight="bold" lengthAdjust="spacing" textLength="264" x="1129" y="106.9951">HyppoEngine\Exception\Common\</text></g><!--cluster HyppoEngine\Exception\Parser\--><g id="cluster_HyppoEngine\Exception\Parser\"><path d="M613.5,49 L861.5,49 A3.75,3.75 0 0 1 864,51.5 L871,71.2969 L1098.5,71.2969 A2.5,2.5 0 0 1 1101,73.7969 L1101,296.5 A2.5,2.5 0 0 1 1098.5,299 L613.5,299 A2.5,2.5 0 0 1 611,296.5 L611,51.5 A2.5,2.5 0 0 1 613.5,49 " fill="none" style="stroke:#000000;stroke-width:1.5;"/><line style="stroke:#000000;stroke-width:1.5;" x1="611" x2="871" y1="71.2969" y2="71.2969"/><text fill="#000000" font-family="sans-serif" font-size="14" font-weight="bold" lengthAdjust="spacing" textLength="247" x="615" y="63.9951">HyppoEngine\Exception\Parser\</text></g><!--cluster HyppoEngine\Exception\Parser\Bnf\--><g id="cluster_HyppoEngine\Exception\Parser\Bnf\"><path d="M637.5,92 L916.5,92 A3.75,3.75 0 0 1 919,94.5 L926,114.2969 L926.5,114.2969 A2.5,2.5 0 0 1 929,116.7969 L929,188.5 A2.5,2.5 0 0 1 926.5,191 L637.5,191 A2.5,2.5 0 0 1 635,188.5 L635,94.5 A2.5,2.5 0 0 1 637.5,92 " fill="none" style="stroke:#000000;stroke-width:1.5;"/><line style="stroke:#000000;stroke-width:1.5;" x1="635" x2="926" y1="114.2969" y2="114.2969"/><text fill="#000000" font-family="sans-serif" font-size="14" font-weight="bold" lengthAdjust="spacing" textLength="278" x="639" y="106.9951">HyppoEngine\Exception\Parser\Bnf\</text></g><!--cluster HyppoEngine\Exception\Render\--><g id="cluster_HyppoEngine\Exception\Render\"><path d="M1470.5,92 L1723.5,92 A3.75,3.75 0 0 1 1726,94.5 L1733,114.2969 L1733.5,114.2969 A2.5,2.5 0 0 1 1736,116.7969 L1736,188.5 A2.5,2.5 0 0 1 1733.5,191 L1470.5,191 A2.5,2.5 0 0 1 1468,188.5 L1468,94.5 A2.5,2.5 0 0 1 1470.5,92 " fill="none" style="stroke:#000000;stroke-width:1.5;"/><line style="stroke:#000000;stroke-width:1.5;" x1="1468" x2="1733" y1="114.2969" y2="114.2969"/><text fill="#000000" font-family="sans-serif" font-size="14" font-weight="bold" lengthAdjust="spacing" textLength="252" x="1472" y="106.9951">HyppoEngine\Exception\Render\</text></g><!--cluster HyppoEngine\Exception\Repositopy\--><g id="cluster_HyppoEngine\Exception\Repositopy\"><path d="M32.5,49 L316.5,49 A3.75,3.75 0 0 1 319,51.5 L326,71.2969 L584.5,71.2969 A2.5,2.5 0 0 1 587,73.7969 L587,296.5 A2.5,2.5 0 0 1 584.5,299 L32.5,299 A2.5,2.5 0 0 1 30,296.5 L30,51.5 A2.5,2.5 0 0 1 32.5,49 " fill="none" style="stroke:#000000;stroke-width:1.5;"/><line style="stroke:#000000;stroke-width:1.5;" x1="30" x2="326" y1="71.2969" y2="71.2969"/><text fill="#000000" font-family="sans-serif" font-size="14" font-weight="bold" lengthAdjust="spacing" textLength="283" x="34" y="63.9951">HyppoEngine\Exception\Repositopy\</text></g><!--cluster HyppoEngine\Exception\Repositopy\File\--><g id="cluster_HyppoEngine\Exception\Repositopy\File\"><path d="M234.5,92 L550.5,92 A3.75,3.75 0 0 1 553,94.5 L560,114.2969 L560.5,114.2969 A2.5,2.5 0 0 1 563,116.7969 L563,188.5 A2.5,2.5 0 0 1 560.5,191 L234.5,191 A2.5,2.5 0 0 1 232,188.5 L232,94.5 A2.5,2.5 0 0 1 234.5,92 " fill="none" style="stroke:#000000;stroke-width:1.5;"/><line style="stroke:#000000;stroke-width:1.5;" x1="232" x2="560" y1="114.2969" y2="114.2969"/><text fill="#000000" font-family="sans-serif" font-size="14" font-weight="bold" lengthAdjust="spacing" textLength="315" x="236" y="106.9951">HyppoEngine\Exception\Repositopy\File\</text></g><!--cluster HyppoEngine\Exception\SyntaxTree\--><g id="cluster_HyppoEngine\Exception\SyntaxTree\"><path d="M1762.5,92 L2048.5,92 A3.75,3.75 0 0 1 2051,94.5 L2058,114.2969 L2058.5,114.2969 A2.5,2.5 0 0 1 2061,116.7969 L2061,188.5 A2.5,2.5 0 0 1 2058.5,191 L1762.5,191 A2.5,2.5 0 0 1 1760,188.5 L1760,94.5 A2.5,2.5 0 0 1 1762.5,92 " fill="none" style="stroke:#000000;stroke-width:1.5;"/><line style="stroke:#000000;stroke-width:1.5;" x1="1760" x2="2058" y1="114.2969" y2="114.2969"/><text fill="#000000" font-family="sans-serif" font-size="14" font-weight="bold" lengthAdjust="spacing" textLength="285" x="1764" y="106.9951">HyppoEngine\Exception\SyntaxTree\</text></g><!--cluster HyppoEngine\Document\--><g id="cluster_HyppoEngine\Document\"><path d="M1494.5,563 L1688.5,563 A3.75,3.75 0 0 1 1691,565.5 L1698,585.2969 L1698.5,585.2969 A2.5,2.5 0 0 1 1701,587.7969 L1701,659.5 A2.5,2.5 0 0 1 1698.5,662 L1494.5,662 A2.5,2.5 0 0 1 1492,659.5 L1492,565.5 A2.5,2.5 0 0 1 1494.5,563 " fill="none" style="stroke:#000000;stroke-width:1.5;"/><line style="stroke:#000000;stroke-width:1.5;" x1="1492" x2="1698" y1="585.2969" y2="585.2969"/><text fill="#000000" font-family="sans-serif" font-size="14" font-weight="bold" lengthAdjust="spacing" textLength="193" x="1496" y="577.9951">HyppoEngine\Document\</text></g><!--cluster HyppoEngine\Parser\--><g id="cluster_HyppoEngine\Parser\"><path d="M1025.5,809 L1191.5,809 A3.75,3.75 0 0 1 1194,811.5 L1201,831.2969 L1201.5,831.2969 A2.5,2.5 0 0 1 1204,833.7969 L1204,905.5 A2.5,2.5 0 0 1 1201.5,908 L1025.5,908 A2.5,2.5 0 0 1 1023,905.5 L1023,811.5 A2.5,2.5 0 0 1 1025.5,809 " fill="none" style="stroke:#000000;stroke-width:1.5;"/><line style="stroke:#000000;stroke-width:1.5;" x1="1023" x2="1201" y1="831.2969" y2="831.2969"/><text fill="#000000" font-family="sans-serif" font-size="14" font-weight="bold" lengthAdjust="spacing" textLength="165" x="1027" y="823.9951">HyppoEngine\Parser\</text></g><!--cluster HyppoEngine\Render\--><g id="cluster_HyppoEngine\Render\"><path d="M910.5,686 L1081.5,686 A3.75,3.75 0 0 1 1084,688.5 L1091,708.2969 L1091.5,708.2969 A2.5,2.5 0 0 1 1094,710.7969 L1094,782.5 A2.5,2.5 0 0 1 1091.5,785 L910.5,785 A2.5,2.5 0 0 1 908,782.5 L908,688.5 A2.5,2.5 0 0 1 910.5,686 " fill="none" style="stroke:#000000;stroke-width:1.5;"/><line style="stroke:#000000;stroke-width:1.5;" x1="908" x2="1091" y1="708.2969" y2="708.2969"/><text fill="#000000" font-family="sans-serif" font-size="14" font-weight="bold" lengthAdjust="spacing" textLength="170" x="912" y="700.9951">HyppoEngine\Render\</text></g><!--cluster HyppoEngine\Repository\--><g id="cluster_HyppoEngine\Repository\"><path d="M1321.5,809 L1520.5,809 A3.75,3.75 0 0 1 1523,811.5 L1530,831.2969 L1530.5,831.2969 A2.5,2.5 0 0 1 1533,833.7969 L1533,905.5 A2.5,2.5 0 0 1 1530.5,908 L1321.5,908 A2.5,2.5 0 0 1 1319,905.5 L1319,811.5 A2.5,2.5 0 0 1 1321.5,809 " fill="none" style="stroke:#000000;stroke-width:1.5;"/><line style="stroke:#000000;stroke-width:1.5;" x1="1319" x2="1530" y1="831.2969" y2="831.2969"/><text fill="#000000" font-family="sans-serif" font-size="14" font-weight="bold" lengthAdjust="spacing" textLength="198" x="1323" y="823.9951">HyppoEngine\Repository\</text></g><!--class HyppoEngine\Trait\Attribute--><g id="elem_HyppoEngine\Trait\Attribute"><rect codeLine="1" fill="#F1F1F1" height="48" id="HyppoEngine\Trait\Attribute" rx="2.5" ry="2.5" style="stroke:#181818;stroke-width:0.5;" width="91" x="2125.5" y="451"/><ellipse cx="2140.5" cy="467" fill="#ADD1B2" rx="11" ry="11" style="stroke:#181818;stroke-width:1.0;"/><path d="M2143.4688,472.6406 Q2142.8906,472.9375 2142.25,473.0781 Q2141.6094,473.2344 2140.9063,473.2344 Q2138.4063,473.2344 2137.0781,471.5938 Q2135.7656,469.9375 2135.7656,466.8125 Q2135.7656,463.6875 2137.0781,462.0313 Q2138.4063,460.375 2140.9063,460.375 Q2141.6094,460.375 2142.25,460.5313 Q2142.9063,460.6875 2143.4688,460.9844 L2143.4688,463.7031 Q2142.8438,463.125 2142.25,462.8594 Q2141.6563,462.5781 2141.0313,462.5781 Q2139.6875,462.5781 2139,463.6563 Q2138.3125,464.7188 2138.3125,466.8125 Q2138.3125,468.9063 2139,469.9844 Q2139.6875,471.0469 2141.0313,471.0469 Q2141.6563,471.0469 2142.25,470.7813 Q2142.8438,470.5 2143.4688,469.9219 L2143.4688,472.6406 Z " fill="#000000"/><text fill="#000000" font-family="sans-serif" font-size="14" lengthAdjust="spacing" textLength="59" x="2154.5" y="471.8467">Attribute</text><line style="stroke:#181818;stroke-width:0.5;" x1="2126.5" x2="2215.5" y1="483" y2="483"/><line style="stroke:#181818;stroke-width:0.5;" x1="2126.5" x2="2215.5" y1="491" y2="491"/></g><!--class HyppoEngine\Trait\Pattern\Builder--><g id="elem_HyppoEngine\Trait\Pattern\Builder"><rect codeLine="4" fill="#F1F1F1" height="48" id="HyppoEngine\Trait\Pattern\Builder" rx="2.5" ry="2.5" style="stroke:#181818;stroke-width:0.5;" width="80" x="2265" y="127"/><ellipse cx="2280" cy="143" fill="#ADD1B2" rx="11" ry="11" style="stroke:#181818;stroke-width:1.0;"/><path d="M2282.9688,148.6406 Q2282.3906,148.9375 2281.75,149.0781 Q2281.1094,149.2344 2280.4063,149.2344 Q2277.9063,149.2344 2276.5781,147.5938 Q2275.2656,145.9375 2275.2656,142.8125 Q2275.2656,139.6875 2276.5781,138.0313 Q2277.9063,136.375 2280.4063,136.375 Q2281.1094,136.375 2281.75,136.5313 Q2282.4063,136.6875 2282.9688,136.9844 L2282.9688,139.7031 Q2282.3438,139.125 2281.75,138.8594 Q2281.1563,138.5781 2280.5313,138.5781 Q2279.1875,138.5781 2278.5,139.6563 Q2277.8125,140.7188 2277.8125,142.8125 Q2277.8125,144.9063 2278.5,145.9844 Q2279.1875,147.0469 2280.5313,147.0469 Q2281.1563,147.0469 2281.75,146.7813 Q2282.3438,146.5 2282.9688,145.9219 L2282.9688,148.6406 Z " fill="#000000"/><text fill="#000000" font-family="sans-serif" font-size="14" lengthAdjust="spacing" textLength="48" x="2294" y="147.8467">Builder</text><line style="stroke:#181818;stroke-width:0.5;" x1="2266" x2="2344" y1="159" y2="159"/><line style="stroke:#181818;stroke-width:0.5;" x1="2266" x2="2344" y1="167" y2="167"/></g><!--class HyppoEngine\Trait\Pattern\Factory--><g id="elem_HyppoEngine\Trait\Pattern\Factory"><rect codeLine="6" fill="#F1F1F1" height="48" id="HyppoEngine\Trait\Pattern\Factory" rx="2.5" ry="2.5" style="stroke:#181818;stroke-width:0.5;" width="82" x="2264" y="235"/><ellipse cx="2279" cy="251" fill="#ADD1B2" rx="11" ry="11" style="stroke:#181818;stroke-width:1.0;"/><path d="M2281.9688,256.6406 Q2281.3906,256.9375 2280.75,257.0781 Q2280.1094,257.2344 2279.4063,257.2344 Q2276.9063,257.2344 2275.5781,255.5938 Q2274.2656,253.9375 2274.2656,250.8125 Q2274.2656,247.6875 2275.5781,246.0313 Q2276.9063,244.375 2279.4063,244.375 Q2280.1094,244.375 2280.75,244.5313 Q2281.4063,244.6875 2281.9688,244.9844 L2281.9688,247.7031 Q2281.3438,247.125 2280.75,246.8594 Q2280.1563,246.5781 2279.5313,246.5781 Q2278.1875,246.5781 2277.5,247.6563 Q2276.8125,248.7188 2276.8125,250.8125 Q2276.8125,252.9063 2277.5,253.9844 Q2278.1875,255.0469 2279.5313,255.0469 Q2280.1563,255.0469 2280.75,254.7813 Q2281.3438,254.5 2281.9688,253.9219 L2281.9688,256.6406 Z " fill="#000000"/><text fill="#000000" font-family="sans-serif" font-size="14" lengthAdjust="spacing" textLength="50" x="2293" y="255.8467">Facroty</text><line style="stroke:#181818;stroke-width:0.5;" x1="2265" x2="2345" y1="267" y2="267"/><line style="stroke:#181818;stroke-width:0.5;" x1="2265" x2="2345" y1="275" y2="275"/></g><!--class HyppoEngine\Trait\Pattern\DTO--><g id="elem_HyppoEngine\Trait\Pattern\DTO"><rect codeLine="8" fill="#F1F1F1" height="48" id="HyppoEngine\Trait\Pattern\DTO" rx="2.5" ry="2.5" style="stroke:#181818;stroke-width:0.5;" width="63" x="2273.5" y="343"/><ellipse cx="2288.5" cy="359" fill="#ADD1B2" rx="11" ry="11" style="stroke:#181818;stroke-width:1.0;"/><path d="M2291.4688,364.6406 Q2290.8906,364.9375 2290.25,365.0781 Q2289.6094,365.2344 2288.9063,365.2344 Q2286.4063,365.2344 2285.0781,363.5938 Q2283.7656,361.9375 2283.7656,358.8125 Q2283.7656,355.6875 2285.0781,354.0313 Q2286.4063,352.375 2288.9063,352.375 Q2289.6094,352.375 2290.25,352.5313 Q2290.9063,352.6875 2291.4688,352.9844 L2291.4688,355.7031 Q2290.8438,355.125 2290.25,354.8594 Q2289.6563,354.5781 2289.0313,354.5781 Q2287.6875,354.5781 2287,355.6563 Q2286.3125,356.7188 2286.3125,358.8125 Q2286.3125,360.9063 2287,361.9844 Q2287.6875,363.0469 2289.0313,363.0469 Q2289.6563,363.0469 2290.25,362.7813 Q2290.8438,362.5 2291.4688,361.9219 L2291.4688,364.6406 Z " fill="#000000"/><text fill="#000000" font-family="sans-serif" font-size="14" lengthAdjust="spacing" textLength="31" x="2302.5" y="363.8467">DTO</text><line style="stroke:#181818;stroke-width:0.5;" x1="2274.5" x2="2335.5" y1="375" y2="375"/><line style="stroke:#181818;stroke-width:0.5;" x1="2274.5" x2="2335.5" y1="383" y2="383"/></g><!--class HyppoEngine\Trait\Pattern\Repository--><g id="elem_HyppoEngine\Trait\Pattern\Repository"><rect codeLine="10" fill="#F1F1F1" height="48" id="HyppoEngine\Trait\Pattern\Repository" rx="2.5" ry="2.5" style="stroke:#181818;stroke-width:0.5;" width="106" x="2252" y="451"/><ellipse cx="2267" cy="467" fill="#ADD1B2" rx="11" ry="11" style="stroke:#181818;stroke-width:1.0;"/><path d="M2269.9688,472.6406 Q2269.3906,472.9375 2268.75,473.0781 Q2268.1094,473.2344 2267.4063,473.2344 Q2264.9063,473.2344 2263.5781,471.5938 Q2262.2656,469.9375 2262.2656,466.8125 Q2262.2656,463.6875 2263.5781,462.0313 Q2264.9063,460.375 2267.4063,460.375 Q2268.1094,460.375 2268.75,460.5313 Q2269.4063,460.6875 2269.9688,460.9844 L2269.9688,463.7031 Q2269.3438,463.125 2268.75,462.8594 Q2268.1563,462.5781 2267.5313,462.5781 Q2266.1875,462.5781 2265.5,463.6563 Q2264.8125,464.7188 2264.8125,466.8125 Q2264.8125,468.9063 2265.5,469.9844 Q2266.1875,471.0469 2267.5313,471.0469 Q2268.1563,471.0469 2268.75,470.7813 Q2269.3438,470.5 2269.9688,469.9219 L2269.9688,472.6406 Z " fill="#000000"/><text fill="#000000" font-family="sans-serif" font-size="14" lengthAdjust="spacing" textLength="74" x="2281" y="471.8467">Reposiroty</text><line style="stroke:#181818;stroke-width:0.5;" x1="2253" x2="2357" y1="483" y2="483"/><line style="stroke:#181818;stroke-width:0.5;" x1="2253" x2="2357" y1="491" y2="491"/></g><!--class HyppoEngine\DTO\Document--><g id="elem_HyppoEngine\DTO\Document"><rect codeLine="4" fill="#F1F1F1" height="48" id="HyppoEngine\DTO\Document" rx="2.5" ry="2.5" style="stroke:#181818;stroke-width:0.5;" width="105" x="1191.5" y="1071"/><ellipse cx="1206.5" cy="1087" fill="#ADD1B2" rx="11" ry="11" style="stroke:#181818;stroke-width:1.0;"/><path d="M1209.4688,1092.6406 Q1208.8906,1092.9375 1208.25,1093.0781 Q1207.6094,1093.2344 1206.9063,1093.2344 Q1204.4063,1093.2344 1203.0781,1091.5938 Q1201.7656,1089.9375 1201.7656,1086.8125 Q1201.7656,1083.6875 1203.0781,1082.0313 Q1204.4063,1080.375 1206.9063,1080.375 Q1207.6094,1080.375 1208.25,1080.5313 Q1208.9063,1080.6875 1209.4688,1080.9844 L1209.4688,1083.7031 Q1208.8438,1083.125 1208.25,1082.8594 Q1207.6563,1082.5781 1207.0313,1082.5781 Q1205.6875,1082.5781 1205,1083.6563 Q1204.3125,1084.7188 1204.3125,1086.8125 Q1204.3125,1088.9063 1205,1089.9844 Q1205.6875,1091.0469 1207.0313,1091.0469 Q1207.6563,1091.0469 1208.25,1090.7813 Q1208.8438,1090.5 1209.4688,1089.9219 L1209.4688,1092.6406 Z " fill="#000000"/><text fill="#000000" font-family="sans-serif" font-size="14" lengthAdjust="spacing" textLength="73" x="1220.5" y="1091.8467">Document</text><line style="stroke:#181818;stroke-width:0.5;" x1="1192.5" x2="1295.5" y1="1103" y2="1103"/><line style="stroke:#181818;stroke-width:0.5;" x1="1192.5" x2="1295.5" y1="1111" y2="1111"/></g><!--class HyppoEngine\DTO\RepositoryNode--><g id="elem_HyppoEngine\DTO\RepositoryNode"><rect codeLine="16" fill="#F1F1F1" height="48" id="HyppoEngine\DTO\RepositoryNode" rx="2.5" ry="2.5" style="stroke:#181818;stroke-width:0.5;" width="143" x="1331.5" y="1071"/><ellipse cx="1346.5" cy="1087" fill="#ADD1B2" rx="11" ry="11" style="stroke:#181818;stroke-width:1.0;"/><path d="M1349.4688,1092.6406 Q1348.8906,1092.9375 1348.25,1093.0781 Q1347.6094,1093.2344 1346.9063,1093.2344 Q1344.4063,1093.2344 1343.0781,1091.5938 Q1341.7656,1089.9375 1341.7656,1086.8125 Q1341.7656,1083.6875 1343.0781,1082.0313 Q1344.4063,1080.375 1346.9063,1080.375 Q1347.6094,1080.375 1348.25,1080.5313 Q1348.9063,1080.6875 1349.4688,1080.9844 L1349.4688,1083.7031 Q1348.8438,1083.125 1348.25,1082.8594 Q1347.6563,1082.5781 1347.0313,1082.5781 Q1345.6875,1082.5781 1345,1083.6563 Q1344.3125,1084.7188 1344.3125,1086.8125 Q1344.3125,1088.9063 1345,1089.9844 Q1345.6875,1091.0469 1347.0313,1091.0469 Q1347.6563,1091.0469 1348.25,1090.7813 Q1348.8438,1090.5 1349.4688,1089.9219 L1349.4688,1092.6406 Z " fill="#000000"/><text fill="#000000" font-family="sans-serif" font-size="14" lengthAdjust="spacing" textLength="111" x="1360.5" y="1091.8467">RepositoryNode</text><line style="stroke:#181818;stroke-width:0.5;" x1="1332.5" x2="1473.5" y1="1103" y2="1103"/><line style="stroke:#181818;stroke-width:0.5;" x1="1332.5" x2="1473.5" y1="1111" y2="1111"/></g><!--class HyppoEngine\DTO\SyntaTree--><g id="elem_HyppoEngine\DTO\SyntaTree"><rect codeLine="20" fill="#F1F1F1" height="48" id="HyppoEngine\DTO\SyntaTree" rx="2.5" ry="2.5" style="stroke:#181818;stroke-width:0.5;" width="109" x="1047.5" y="1071"/><ellipse cx="1062.5" cy="1087" fill="#ADD1B2" rx="11" ry="11" style="stroke:#181818;stroke-width:1.0;"/><path d="M1065.4688,1092.6406 Q1064.8906,1092.9375 1064.25,1093.0781 Q1063.6094,1093.2344 1062.9063,1093.2344 Q1060.4063,1093.2344 1059.0781,1091.5938 Q1057.7656,1089.9375 1057.7656,1086.8125 Q1057.7656,1083.6875 1059.0781,1082.0313 Q1060.4063,1080.375 1062.9063,1080.375 Q1063.6094,1080.375 1064.25,1080.5313 Q1064.9063,1080.6875 1065.4688,1080.9844 L1065.4688,1083.7031 Q1064.8438,1083.125 1064.25,1082.8594 Q1063.6563,1082.5781 1063.0313,1082.5781 Q1061.6875,1082.5781 1061,1083.6563 Q1060.3125,1084.7188 1060.3125,1086.8125 Q1060.3125,1088.9063 1061,1089.9844 Q1061.6875,1091.0469 1063.0313,1091.0469 Q1063.6563,1091.0469 1064.25,1090.7813 Q1064.8438,1090.5 1065.4688,1089.9219 L1065.4688,1092.6406 Z " fill="#000000"/><text fill="#000000" font-family="sans-serif" font-size="14" lengthAdjust="spacing" textLength="77" x="1076.5" y="1091.8467">SyntaxTree</text><line style="stroke:#181818;stroke-width:0.5;" x1="1048.5" x2="1155.5" y1="1103" y2="1103"/><line style="stroke:#181818;stroke-width:0.5;" x1="1048.5" x2="1155.5" y1="1111" y2="1111"/></g><!--class HyppoEngine\DTO\Document\Author--><g id="elem_HyppoEngine\DTO\Document\Author"><rect codeLine="8" fill="#F1F1F1" height="48" id="HyppoEngine\DTO\Document\Author" rx="2.5" ry="2.5" style="stroke:#181818;stroke-width:0.5;" width="78" x="1254" y="1179"/><ellipse cx="1269" cy="1195" fill="#ADD1B2" rx="11" ry="11" style="stroke:#181818;stroke-width:1.0;"/><path d="M1271.9688,1200.6406 Q1271.3906,1200.9375 1270.75,1201.0781 Q1270.1094,1201.2344 1269.4063,1201.2344 Q1266.9063,1201.2344 1265.5781,1199.5938 Q1264.2656,1197.9375 1264.2656,1194.8125 Q1264.2656,1191.6875 1265.5781,1190.0313 Q1266.9063,1188.375 1269.4063,1188.375 Q1270.1094,1188.375 1270.75,1188.5313 Q1271.4063,1188.6875 1271.9688,1188.9844 L1271.9688,1191.7031 Q1271.3438,1191.125 1270.75,1190.8594 Q1270.1563,1190.5781 1269.5313,1190.5781 Q1268.1875,1190.5781 1267.5,1191.6563 Q1266.8125,1192.7188 1266.8125,1194.8125 Q1266.8125,1196.9063 1267.5,1197.9844 Q1268.1875,1199.0469 1269.5313,1199.0469 Q1270.1563,1199.0469 1270.75,1198.7813 Q1271.3438,1198.5 1271.9688,1197.9219 L1271.9688,1200.6406 Z " fill="#000000"/><text fill="#000000" font-family="sans-serif" font-size="14" lengthAdjust="spacing" textLength="46" x="1283" y="1199.8467">Author</text><line style="stroke:#181818;stroke-width:0.5;" x1="1255" x2="1331" y1="1211" y2="1211"/><line style="stroke:#181818;stroke-width:0.5;" x1="1255" x2="1331" y1="1219" y2="1219"/></g><!--class HyppoEngine\Exception\Common--><g id="elem_HyppoEngine\Exception\Common"><rect codeLine="4" fill="#F1F1F1" height="48" id="HyppoEngine\Exception\Common" rx="2.5" ry="2.5" style="stroke:#181818;stroke-width:0.5;" width="95" x="1211.5" y="235"/><ellipse cx="1226.5" cy="251" fill="#ADD1B2" rx="11" ry="11" style="stroke:#181818;stroke-width:1.0;"/><path d="M1229.4688,256.6406 Q1228.8906,256.9375 1228.25,257.0781 Q1227.6094,257.2344 1226.9063,257.2344 Q1224.4063,257.2344 1223.0781,255.5938 Q1221.7656,253.9375 1221.7656,250.8125 Q1221.7656,247.6875 1223.0781,246.0313 Q1224.4063,244.375 1226.9063,244.375 Q1227.6094,244.375 1228.25,244.5313 Q1228.9063,244.6875 1229.4688,244.9844 L1229.4688,247.7031 Q1228.8438,247.125 1228.25,246.8594 Q1227.6563,246.5781 1227.0313,246.5781 Q1225.6875,246.5781 1225,247.6563 Q1224.3125,248.7188 1224.3125,250.8125 Q1224.3125,252.9063 1225,253.9844 Q1225.6875,255.0469 1227.0313,255.0469 Q1227.6563,255.0469 1228.25,254.7813 Q1228.8438,254.5 1229.4688,253.9219 L1229.4688,256.6406 Z " fill="#000000"/><text fill="#000000" font-family="sans-serif" font-size="14" lengthAdjust="spacing" textLength="63" x="1240.5" y="255.8467">Common</text><line style="stroke:#181818;stroke-width:0.5;" x1="1212.5" x2="1305.5" y1="267" y2="267"/><line style="stroke:#181818;stroke-width:0.5;" x1="1212.5" x2="1305.5" y1="275" y2="275"/></g><!--class HyppoEngine\Exception\Parser--><g id="elem_HyppoEngine\Exception\Parser"><rect codeLine="19" fill="#F1F1F1" height="48" id="HyppoEngine\Exception\Parser" rx="2.5" ry="2.5" style="stroke:#181818;stroke-width:0.5;" width="76" x="977" y="343"/><ellipse cx="992" cy="359" fill="#ADD1B2" rx="11" ry="11" style="stroke:#181818;stroke-width:1.0;"/><path d="M994.9688,364.6406 Q994.3906,364.9375 993.75,365.0781 Q993.1094,365.2344 992.4063,365.2344 Q989.9063,365.2344 988.5781,363.5938 Q987.2656,361.9375 987.2656,358.8125 Q987.2656,355.6875 988.5781,354.0313 Q989.9063,352.375 992.4063,352.375 Q993.1094,352.375 993.75,352.5313 Q994.4063,352.6875 994.9688,352.9844 L994.9688,355.7031 Q994.3438,355.125 993.75,354.8594 Q993.1563,354.5781 992.5313,354.5781 Q991.1875,354.5781 990.5,355.6563 Q989.8125,356.7188 989.8125,358.8125 Q989.8125,360.9063 990.5,361.9844 Q991.1875,363.0469 992.5313,363.0469 Q993.1563,363.0469 993.75,362.7813 Q994.3438,362.5 994.9688,361.9219 L994.9688,364.6406 Z " fill="#000000"/><text fill="#000000" font-family="sans-serif" font-size="14" lengthAdjust="spacing" textLength="44" x="1006" y="363.8467">Parser</text><line style="stroke:#181818;stroke-width:0.5;" x1="978" x2="1052" y1="375" y2="375"/><line style="stroke:#181818;stroke-width:0.5;" x1="978" x2="1052" y1="383" y2="383"/></g><!--class HyppoEngine\Exception\Render--><g id="elem_HyppoEngine\Exception\Render"><rect codeLine="40" fill="#F1F1F1" height="48" id="HyppoEngine\Exception\Render" rx="2.5" ry="2.5" style="stroke:#181818;stroke-width:0.5;" width="83" x="1457.5" y="235"/><ellipse cx="1472.5" cy="251" fill="#ADD1B2" rx="11" ry="11" style="stroke:#181818;stroke-width:1.0;"/><path d="M1475.4688,256.6406 Q1474.8906,256.9375 1474.25,257.0781 Q1473.6094,257.2344 1472.9063,257.2344 Q1470.4063,257.2344 1469.0781,255.5938 Q1467.7656,253.9375 1467.7656,250.8125 Q1467.7656,247.6875 1469.0781,246.0313 Q1470.4063,244.375 1472.9063,244.375 Q1473.6094,244.375 1474.25,244.5313 Q1474.9063,244.6875 1475.4688,244.9844 L1475.4688,247.7031 Q1474.8438,247.125 1474.25,246.8594 Q1473.6563,246.5781 1473.0313,246.5781 Q1471.6875,246.5781 1471,247.6563 Q1470.3125,248.7188 1470.3125,250.8125 Q1470.3125,252.9063 1471,253.9844 Q1471.6875,255.0469 1473.0313,255.0469 Q1473.6563,255.0469 1474.25,254.7813 Q1474.8438,254.5 1475.4688,253.9219 L1475.4688,256.6406 Z " fill="#000000"/><text fill="#000000" font-family="sans-serif" font-size="14" lengthAdjust="spacing" textLength="51" x="1486.5" y="255.8467">Render</text><line style="stroke:#181818;stroke-width:0.5;" x1="1458.5" x2="1539.5" y1="267" y2="267"/><line style="stroke:#181818;stroke-width:0.5;" x1="1458.5" x2="1539.5" y1="275" y2="275"/></g><!--class HyppoEngine\Exception\Repository--><g id="elem_HyppoEngine\Exception\Repository"><rect codeLine="52" fill="#F1F1F1" height="48" id="HyppoEngine\Exception\Repository" rx="2.5" ry="2.5" style="stroke:#181818;stroke-width:0.5;" width="106" x="346" y="343"/><ellipse cx="361" cy="359" fill="#ADD1B2" rx="11" ry="11" style="stroke:#181818;stroke-width:1.0;"/><path d="M363.9688,364.6406 Q363.3906,364.9375 362.75,365.0781 Q362.1094,365.2344 361.4063,365.2344 Q358.9063,365.2344 357.5781,363.5938 Q356.2656,361.9375 356.2656,358.8125 Q356.2656,355.6875 357.5781,354.0313 Q358.9063,352.375 361.4063,352.375 Q362.1094,352.375 362.75,352.5313 Q363.4063,352.6875 363.9688,352.9844 L363.9688,355.7031 Q363.3438,355.125 362.75,354.8594 Q362.1563,354.5781 361.5313,354.5781 Q360.1875,354.5781 359.5,355.6563 Q358.8125,356.7188 358.8125,358.8125 Q358.8125,360.9063 359.5,361.9844 Q360.1875,363.0469 361.5313,363.0469 Q362.1563,363.0469 362.75,362.7813 Q363.3438,362.5 363.9688,361.9219 L363.9688,364.6406 Z " fill="#000000"/><text fill="#000000" font-family="sans-serif" font-size="14" lengthAdjust="spacing" textLength="74" x="375" y="363.8467">Repository</text><line style="stroke:#181818;stroke-width:0.5;" x1="347" x2="451" y1="375" y2="375"/><line style="stroke:#181818;stroke-width:0.5;" x1="347" x2="451" y1="383" y2="383"/></g><!--class HyppoEngine\Exception\SyntaxTree--><g id="elem_HyppoEngine\Exception\SyntaxTree"><rect codeLine="72" fill="#F1F1F1" height="48" id="HyppoEngine\Exception\SyntaxTree" rx="2.5" ry="2.5" style="stroke:#181818;stroke-width:0.5;" width="109" x="1720.5" y="235"/><ellipse cx="1735.5" cy="251" fill="#ADD1B2" rx="11" ry="11" style="stroke:#181818;stroke-width:1.0;"/><path d="M1738.4688,256.6406 Q1737.8906,256.9375 1737.25,257.0781 Q1736.6094,257.2344 1735.9063,257.2344 Q1733.4063,257.2344 1732.0781,255.5938 Q1730.7656,253.9375 1730.7656,250.8125 Q1730.7656,247.6875 1732.0781,246.0313 Q1733.4063,244.375 1735.9063,244.375 Q1736.6094,244.375 1737.25,244.5313 Q1737.9063,244.6875 1738.4688,244.9844 L1738.4688,247.7031 Q1737.8438,247.125 1737.25,246.8594 Q1736.6563,246.5781 1736.0313,246.5781 Q1734.6875,246.5781 1734,247.6563 Q1733.3125,248.7188 1733.3125,250.8125 Q1733.3125,252.9063 1734,253.9844 Q1734.6875,255.0469 1736.0313,255.0469 Q1736.6563,255.0469 1737.25,254.7813 Q1737.8438,254.5 1738.4688,253.9219 L1738.4688,256.6406 Z " fill="#000000"/><text fill="#000000" font-family="sans-serif" font-size="14" lengthAdjust="spacing" textLength="77" x="1749.5" y="255.8467">SyntaxTree</text><line style="stroke:#181818;stroke-width:0.5;" x1="1721.5" x2="1828.5" y1="267" y2="267"/><line style="stroke:#181818;stroke-width:0.5;" x1="1721.5" x2="1828.5" y1="275" y2="275"/></g><!--class HyppoEngine\Exception\Common\AccessDenied--><g id="elem_HyppoEngine\Exception\Common\AccessDenied"><rect codeLine="9" fill="#F1F1F1" height="48" id="HyppoEngine\Exception\Common\AccessDenied" rx="2.5" ry="2.5" style="stroke:#181818;stroke-width:0.5;" width="132" x="1296" y="127"/><ellipse cx="1311" cy="143" fill="#ADD1B2" rx="11" ry="11" style="stroke:#181818;stroke-width:1.0;"/><path d="M1313.9688,148.6406 Q1313.3906,148.9375 1312.75,149.0781 Q1312.1094,149.2344 1311.4063,149.2344 Q1308.9063,149.2344 1307.5781,147.5938 Q1306.2656,145.9375 1306.2656,142.8125 Q1306.2656,139.6875 1307.5781,138.0313 Q1308.9063,136.375 1311.4063,136.375 Q1312.1094,136.375 1312.75,136.5313 Q1313.4063,136.6875 1313.9688,136.9844 L1313.9688,139.7031 Q1313.3438,139.125 1312.75,138.8594 Q1312.1563,138.5781 1311.5313,138.5781 Q1310.1875,138.5781 1309.5,139.6563 Q1308.8125,140.7188 1308.8125,142.8125 Q1308.8125,144.9063 1309.5,145.9844 Q1310.1875,147.0469 1311.5313,147.0469 Q1312.1563,147.0469 1312.75,146.7813 Q1313.3438,146.5 1313.9688,145.9219 L1313.9688,148.6406 Z " fill="#000000"/><text fill="#000000" font-family="sans-serif" font-size="14" lengthAdjust="spacing" textLength="100" x="1325" y="147.8467">AccessDenied</text><line style="stroke:#181818;stroke-width:0.5;" x1="1297" x2="1427" y1="159" y2="159"/><line style="stroke:#181818;stroke-width:0.5;" x1="1297" x2="1427" y1="167" y2="167"/></g><!--class HyppoEngine\Exception\Common\FileNotExists--><g id="elem_HyppoEngine\Exception\Common\FileNotExists"><rect codeLine="13" fill="#F1F1F1" height="48" id="HyppoEngine\Exception\Common\FileNotExists" rx="2.5" ry="2.5" style="stroke:#181818;stroke-width:0.5;" width="119" x="1141.5" y="127"/><ellipse cx="1156.5" cy="143" fill="#ADD1B2" rx="11" ry="11" style="stroke:#181818;stroke-width:1.0;"/><path d="M1159.4688,148.6406 Q1158.8906,148.9375 1158.25,149.0781 Q1157.6094,149.2344 1156.9063,149.2344 Q1154.4063,149.2344 1153.0781,147.5938 Q1151.7656,145.9375 1151.7656,142.8125 Q1151.7656,139.6875 1153.0781,138.0313 Q1154.4063,136.375 1156.9063,136.375 Q1157.6094,136.375 1158.25,136.5313 Q1158.9063,136.6875 1159.4688,136.9844 L1159.4688,139.7031 Q1158.8438,139.125 1158.25,138.8594 Q1157.6563,138.5781 1157.0313,138.5781 Q1155.6875,138.5781 1155,139.6563 Q1154.3125,140.7188 1154.3125,142.8125 Q1154.3125,144.9063 1155,145.9844 Q1155.6875,147.0469 1157.0313,147.0469 Q1157.6563,147.0469 1158.25,146.7813 Q1158.8438,146.5 1159.4688,145.9219 L1159.4688,148.6406 Z " fill="#000000"/><text fill="#000000" font-family="sans-serif" font-size="14" lengthAdjust="spacing" textLength="87" x="1170.5" y="147.8467">FileNotExists</text><line style="stroke:#181818;stroke-width:0.5;" x1="1142.5" x2="1259.5" y1="159" y2="159"/><line style="stroke:#181818;stroke-width:0.5;" x1="1142.5" x2="1259.5" y1="167" y2="167"/></g><!--class HyppoEngine\Exception\Parser\ParserNotExists--><g id="elem_HyppoEngine\Exception\Parser\ParserNotExists"><rect codeLine="24" fill="#F1F1F1" height="48" id="HyppoEngine\Exception\Parser\ParserNotExists" rx="2.5" ry="2.5" style="stroke:#181818;stroke-width:0.5;" width="140" x="945" y="127"/><ellipse cx="960" cy="143" fill="#ADD1B2" rx="11" ry="11" style="stroke:#181818;stroke-width:1.0;"/><path d="M962.9688,148.6406 Q962.3906,148.9375 961.75,149.0781 Q961.1094,149.2344 960.4063,149.2344 Q957.9063,149.2344 956.5781,147.5938 Q955.2656,145.9375 955.2656,142.8125 Q955.2656,139.6875 956.5781,138.0313 Q957.9063,136.375 960.4063,136.375 Q961.1094,136.375 961.75,136.5313 Q962.4063,136.6875 962.9688,136.9844 L962.9688,139.7031 Q962.3438,139.125 961.75,138.8594 Q961.1563,138.5781 960.5313,138.5781 Q959.1875,138.5781 958.5,139.6563 Q957.8125,140.7188 957.8125,142.8125 Q957.8125,144.9063 958.5,145.9844 Q959.1875,147.0469 960.5313,147.0469 Q961.1563,147.0469 961.75,146.7813 Q962.3438,146.5 962.9688,145.9219 L962.9688,148.6406 Z " fill="#000000"/><text fill="#000000" font-family="sans-serif" font-size="14" lengthAdjust="spacing" textLength="108" x="974" y="147.8467">ParserNotExists</text><line style="stroke:#181818;stroke-width:0.5;" x1="946" x2="1084" y1="159" y2="159"/><line style="stroke:#181818;stroke-width:0.5;" x1="946" x2="1084" y1="167" y2="167"/></g><!--class HyppoEngine\Exception\Parser\Bnf--><g id="elem_HyppoEngine\Exception\Parser\Bnf"><rect codeLine="28" fill="#F1F1F1" height="48" id="HyppoEngine\Exception\Parser\Bnf" rx="2.5" ry="2.5" style="stroke:#181818;stroke-width:0.5;" width="55" x="873.5" y="235"/><ellipse cx="888.5" cy="251" fill="#ADD1B2" rx="11" ry="11" style="stroke:#181818;stroke-width:1.0;"/><path d="M891.4688,256.6406 Q890.8906,256.9375 890.25,257.0781 Q889.6094,257.2344 888.9063,257.2344 Q886.4063,257.2344 885.0781,255.5938 Q883.7656,253.9375 883.7656,250.8125 Q883.7656,247.6875 885.0781,246.0313 Q886.4063,244.375 888.9063,244.375 Q889.6094,244.375 890.25,244.5313 Q890.9063,244.6875 891.4688,244.9844 L891.4688,247.7031 Q890.8438,247.125 890.25,246.8594 Q889.6563,246.5781 889.0313,246.5781 Q887.6875,246.5781 887,247.6563 Q886.3125,248.7188 886.3125,250.8125 Q886.3125,252.9063 887,253.9844 Q887.6875,255.0469 889.0313,255.0469 Q889.6563,255.0469 890.25,254.7813 Q890.8438,254.5 891.4688,253.9219 L891.4688,256.6406 Z " fill="#000000"/><text fill="#000000" font-family="sans-serif" font-size="14" lengthAdjust="spacing" textLength="23" x="902.5" y="255.8467">Bnf</text><line style="stroke:#181818;stroke-width:0.5;" x1="874.5" x2="927.5" y1="267" y2="267"/><line style="stroke:#181818;stroke-width:0.5;" x1="874.5" x2="927.5" y1="275" y2="275"/></g><!--class HyppoEngine\Exception\Parser\Bnf\BnfNotExists--><g id="elem_HyppoEngine\Exception\Parser\Bnf\BnfNotExists"><rect codeLine="33" fill="#F1F1F1" height="48" id="HyppoEngine\Exception\Parser\Bnf\BnfNotExists" rx="2.5" ry="2.5" style="stroke:#181818;stroke-width:0.5;" width="119" x="790.5" y="127"/><ellipse cx="805.5" cy="143" fill="#ADD1B2" rx="11" ry="11" style="stroke:#181818;stroke-width:1.0;"/><path d="M808.4688,148.6406 Q807.8906,148.9375 807.25,149.0781 Q806.6094,149.2344 805.9063,149.2344 Q803.4063,149.2344 802.0781,147.5938 Q800.7656,145.9375 800.7656,142.8125 Q800.7656,139.6875 802.0781,138.0313 Q803.4063,136.375 805.9063,136.375 Q806.6094,136.375 807.25,136.5313 Q807.9063,136.6875 808.4688,136.9844 L808.4688,139.7031 Q807.8438,139.125 807.25,138.8594 Q806.6563,138.5781 806.0313,138.5781 Q804.6875,138.5781 804,139.6563 Q803.3125,140.7188 803.3125,142.8125 Q803.3125,144.9063 804,145.9844 Q804.6875,147.0469 806.0313,147.0469 Q806.6563,147.0469 807.25,146.7813 Q807.8438,146.5 808.4688,145.9219 L808.4688,148.6406 Z " fill="#000000"/><text fill="#000000" font-family="sans-serif" font-size="14" lengthAdjust="spacing" textLength="87" x="819.5" y="147.8467">BnfNotExists</text><line style="stroke:#181818;stroke-width:0.5;" x1="791.5" x2="908.5" y1="159" y2="159"/><line style="stroke:#181818;stroke-width:0.5;" x1="791.5" x2="908.5" y1="167" y2="167"/></g><!--class HyppoEngine\Exception\Render\RenderNotExists--><g id="elem_HyppoEngine\Exception\Render\RenderNotExists"><rect codeLine="45" fill="#F1F1F1" height="48" id="HyppoEngine\Exception\Render\RenderNotExists" rx="2.5" ry="2.5" style="stroke:#181818;stroke-width:0.5;" width="147" x="1484.5" y="127"/><ellipse cx="1499.5" cy="143" fill="#ADD1B2" rx="11" ry="11" style="stroke:#181818;stroke-width:1.0;"/><path d="M1502.4688,148.6406 Q1501.8906,148.9375 1501.25,149.0781 Q1500.6094,149.2344 1499.9063,149.2344 Q1497.4063,149.2344 1496.0781,147.5938 Q1494.7656,145.9375 1494.7656,142.8125 Q1494.7656,139.6875 1496.0781,138.0313 Q1497.4063,136.375 1499.9063,136.375 Q1500.6094,136.375 1501.25,136.5313 Q1501.9063,136.6875 1502.4688,136.9844 L1502.4688,139.7031 Q1501.8438,139.125 1501.25,138.8594 Q1500.6563,138.5781 1500.0313,138.5781 Q1498.6875,138.5781 1498,139.6563 Q1497.3125,140.7188 1497.3125,142.8125 Q1497.3125,144.9063 1498,145.9844 Q1498.6875,147.0469 1500.0313,147.0469 Q1500.6563,147.0469 1501.25,146.7813 Q1501.8438,146.5 1502.4688,145.9219 L1502.4688,148.6406 Z " fill="#000000"/><text fill="#000000" font-family="sans-serif" font-size="14" lengthAdjust="spacing" textLength="115" x="1513.5" y="147.8467">RenderNotExists</text><line style="stroke:#181818;stroke-width:0.5;" x1="1485.5" x2="1630.5" y1="159" y2="159"/><line style="stroke:#181818;stroke-width:0.5;" x1="1485.5" x2="1630.5" y1="167" y2="167"/></g><!--class HyppoEngine\Exception\Repository\RepositoryNotExists--><g id="elem_HyppoEngine\Exception\Repository\RepositoryNotExists"><rect codeLine="57" fill="#F1F1F1" height="48" id="HyppoEngine\Exception\Repository\RepositoryNotExists" rx="2.5" ry="2.5" style="stroke:#181818;stroke-width:0.5;" width="170" x="46" y="127"/><ellipse cx="61" cy="143" fill="#ADD1B2" rx="11" ry="11" style="stroke:#181818;stroke-width:1.0;"/><path d="M63.9688,148.6406 Q63.3906,148.9375 62.75,149.0781 Q62.1094,149.2344 61.4063,149.2344 Q58.9063,149.2344 57.5781,147.5938 Q56.2656,145.9375 56.2656,142.8125 Q56.2656,139.6875 57.5781,138.0313 Q58.9063,136.375 61.4063,136.375 Q62.1094,136.375 62.75,136.5313 Q63.4063,136.6875 63.9688,136.9844 L63.9688,139.7031 Q63.3438,139.125 62.75,138.8594 Q62.1563,138.5781 61.5313,138.5781 Q60.1875,138.5781 59.5,139.6563 Q58.8125,140.7188 58.8125,142.8125 Q58.8125,144.9063 59.5,145.9844 Q60.1875,147.0469 61.5313,147.0469 Q62.1563,147.0469 62.75,146.7813 Q63.3438,146.5 63.9688,145.9219 L63.9688,148.6406 Z " fill="#000000"/><text fill="#000000" font-family="sans-serif" font-size="14" lengthAdjust="spacing" textLength="138" x="75" y="147.8467">RepositoryNotExists</text><line style="stroke:#181818;stroke-width:0.5;" x1="47" x2="215" y1="159" y2="159"/><line style="stroke:#181818;stroke-width:0.5;" x1="47" x2="215" y1="167" y2="167"/></g><!--class HyppoEngine\Exception\Repository\File--><g id="elem_HyppoEngine\Exception\Repository\File"><rect codeLine="61" fill="#F1F1F1" height="48" id="HyppoEngine\Exception\Repository\File" rx="2.5" ry="2.5" style="stroke:#181818;stroke-width:0.5;" width="55" x="371.5" y="235"/><ellipse cx="386.5" cy="251" fill="#ADD1B2" rx="11" ry="11" style="stroke:#181818;stroke-width:1.0;"/><path d="M389.4688,256.6406 Q388.8906,256.9375 388.25,257.0781 Q387.6094,257.2344 386.9063,257.2344 Q384.4063,257.2344 383.0781,255.5938 Q381.7656,253.9375 381.7656,250.8125 Q381.7656,247.6875 383.0781,246.0313 Q384.4063,244.375 386.9063,244.375 Q387.6094,244.375 388.25,244.5313 Q388.9063,244.6875 389.4688,244.9844 L389.4688,247.7031 Q388.8438,247.125 388.25,246.8594 Q387.6563,246.5781 387.0313,246.5781 Q385.6875,246.5781 385,247.6563 Q384.3125,248.7188 384.3125,250.8125 Q384.3125,252.9063 385,253.9844 Q385.6875,255.0469 387.0313,255.0469 Q387.6563,255.0469 388.25,254.7813 Q388.8438,254.5 389.4688,253.9219 L389.4688,256.6406 Z " fill="#000000"/><text fill="#000000" font-family="sans-serif" font-size="14" lengthAdjust="spacing" textLength="23" x="400.5" y="255.8467">File</text><line style="stroke:#181818;stroke-width:0.5;" x1="372.5" x2="425.5" y1="267" y2="267"/><line style="stroke:#181818;stroke-width:0.5;" x1="372.5" x2="425.5" y1="275" y2="275"/></g><!--class HyppoEngine\Exception\Repository\File\FileNotExists--><g id="elem_HyppoEngine\Exception\Repository\File\FileNotExists"><rect codeLine="66" fill="#F1F1F1" height="48" id="HyppoEngine\Exception\Repository\File\FileNotExists" rx="2.5" ry="2.5" style="stroke:#181818;stroke-width:0.5;" width="119" x="339.5" y="127"/><ellipse cx="354.5" cy="143" fill="#ADD1B2" rx="11" ry="11" style="stroke:#181818;stroke-width:1.0;"/><path d="M357.4688,148.6406 Q356.8906,148.9375 356.25,149.0781 Q355.6094,149.2344 354.9063,149.2344 Q352.4063,149.2344 351.0781,147.5938 Q349.7656,145.9375 349.7656,142.8125 Q349.7656,139.6875 351.0781,138.0313 Q352.4063,136.375 354.9063,136.375 Q355.6094,136.375 356.25,136.5313 Q356.9063,136.6875 357.4688,136.9844 L357.4688,139.7031 Q356.8438,139.125 356.25,138.8594 Q355.6563,138.5781 355.0313,138.5781 Q353.6875,138.5781 353,139.6563 Q352.3125,140.7188 352.3125,142.8125 Q352.3125,144.9063 353,145.9844 Q353.6875,147.0469 355.0313,147.0469 Q355.6563,147.0469 356.25,146.7813 Q356.8438,146.5 357.4688,145.9219 L357.4688,148.6406 Z " fill="#000000"/><text fill="#000000" font-family="sans-serif" font-size="14" lengthAdjust="spacing" textLength="87" x="368.5" y="147.8467">FileNotExists</text><line style="stroke:#181818;stroke-width:0.5;" x1="340.5" x2="457.5" y1="159" y2="159"/><line style="stroke:#181818;stroke-width:0.5;" x1="340.5" x2="457.5" y1="167" y2="167"/></g><!--class HyppoEngine\Exception\SyntaxTree\SyntaxTreeNotExists--><g id="elem_HyppoEngine\Exception\SyntaxTree\SyntaxTreeNotExists"><rect codeLine="77" fill="#F1F1F1" height="48" id="HyppoEngine\Exception\SyntaxTree\SyntaxTreeNotExists" rx="2.5" ry="2.5" style="stroke:#181818;stroke-width:0.5;" width="173" x="1776.5" y="127"/><ellipse cx="1791.5" cy="143" fill="#ADD1B2" rx="11" ry="11" style="stroke:#181818;stroke-width:1.0;"/><path d="M1794.4688,148.6406 Q1793.8906,148.9375 1793.25,149.0781 Q1792.6094,149.2344 1791.9063,149.2344 Q1789.4063,149.2344 1788.0781,147.5938 Q1786.7656,145.9375 1786.7656,142.8125 Q1786.7656,139.6875 1788.0781,138.0313 Q1789.4063,136.375 1791.9063,136.375 Q1792.6094,136.375 1793.25,136.5313 Q1793.9063,136.6875 1794.4688,136.9844 L1794.4688,139.7031 Q1793.8438,139.125 1793.25,138.8594 Q1792.6563,138.5781 1792.0313,138.5781 Q1790.6875,138.5781 1790,139.6563 Q1789.3125,140.7188 1789.3125,142.8125 Q1789.3125,144.9063 1790,145.9844 Q1790.6875,147.0469 1792.0313,147.0469 Q1792.6563,147.0469 1793.25,146.7813 Q1793.8438,146.5 1794.4688,145.9219 L1794.4688,148.6406 Z " fill="#000000"/><text fill="#000000" font-family="sans-serif" font-size="14" lengthAdjust="spacing" textLength="141" x="1805.5" y="147.8467">SyntaxTreeNotExists</text><line style="stroke:#181818;stroke-width:0.5;" x1="1777.5" x2="1948.5" y1="159" y2="159"/><line style="stroke:#181818;stroke-width:0.5;" x1="1777.5" x2="1948.5" y1="167" y2="167"/></g><!--class HyppoEngine\Document\Article--><g id="elem_HyppoEngine\Document\Article"><rect codeLine="10" fill="#F1F1F1" height="48" id="HyppoEngine\Document\Article" rx="2.5" ry="2.5" style="stroke:#181818;stroke-width:0.5;" width="74" x="1509" y="598"/><ellipse cx="1524" cy="614" fill="#ADD1B2" rx="11" ry="11" style="stroke:#181818;stroke-width:1.0;"/><path d="M1526.9688,619.6406 Q1526.3906,619.9375 1525.75,620.0781 Q1525.1094,620.2344 1524.4063,620.2344 Q1521.9063,620.2344 1520.5781,618.5938 Q1519.2656,616.9375 1519.2656,613.8125 Q1519.2656,610.6875 1520.5781,609.0313 Q1521.9063,607.375 1524.4063,607.375 Q1525.1094,607.375 1525.75,607.5313 Q1526.4063,607.6875 1526.9688,607.9844 L1526.9688,610.7031 Q1526.3438,610.125 1525.75,609.8594 Q1525.1563,609.5781 1524.5313,609.5781 Q1523.1875,609.5781 1522.5,610.6563 Q1521.8125,611.7188 1521.8125,613.8125 Q1521.8125,615.9063 1522.5,616.9844 Q1523.1875,618.0469 1524.5313,618.0469 Q1525.1563,618.0469 1525.75,617.7813 Q1526.3438,617.5 1526.9688,616.9219 L1526.9688,619.6406 Z " fill="#000000"/><text fill="#000000" font-family="sans-serif" font-size="14" lengthAdjust="spacing" textLength="42" x="1538" y="618.8467">Article</text><line style="stroke:#181818;stroke-width:0.5;" x1="1510" x2="1582" y1="630" y2="630"/><line style="stroke:#181818;stroke-width:0.5;" x1="1510" x2="1582" y1="638" y2="638"/></g><!--class HyppoEngine\Parser\Bnf--><g id="elem_HyppoEngine\Parser\Bnf"><rect codeLine="5" fill="#F1F1F1" height="48" id="HyppoEngine\Parser\Bnf" rx="2.5" ry="2.5" style="stroke:#181818;stroke-width:0.5;" width="55" x="1125.5" y="844"/><ellipse cx="1140.5" cy="860" fill="#ADD1B2" rx="11" ry="11" style="stroke:#181818;stroke-width:1.0;"/><path d="M1143.4688,865.6406 Q1142.8906,865.9375 1142.25,866.0781 Q1141.6094,866.2344 1140.9063,866.2344 Q1138.4063,866.2344 1137.0781,864.5938 Q1135.7656,862.9375 1135.7656,859.8125 Q1135.7656,856.6875 1137.0781,855.0313 Q1138.4063,853.375 1140.9063,853.375 Q1141.6094,853.375 1142.25,853.5313 Q1142.9063,853.6875 1143.4688,853.9844 L1143.4688,856.7031 Q1142.8438,856.125 1142.25,855.8594 Q1141.6563,855.5781 1141.0313,855.5781 Q1139.6875,855.5781 1139,856.6563 Q1138.3125,857.7188 1138.3125,859.8125 Q1138.3125,861.9063 1139,862.9844 Q1139.6875,864.0469 1141.0313,864.0469 Q1141.6563,864.0469 1142.25,863.7813 Q1142.8438,863.5 1143.4688,862.9219 L1143.4688,865.6406 Z " fill="#000000"/><text fill="#000000" font-family="sans-serif" font-size="14" lengthAdjust="spacing" textLength="23" x="1154.5" y="864.8467">Bnf</text><line style="stroke:#181818;stroke-width:0.5;" x1="1126.5" x2="1179.5" y1="876" y2="876"/><line style="stroke:#181818;stroke-width:0.5;" x1="1126.5" x2="1179.5" y1="884" y2="884"/></g><!--class HyppoEngine\Render\Html--><g id="elem_HyppoEngine\Render\Html"><rect codeLine="7" fill="#F1F1F1" height="48" id="HyppoEngine\Render\Html" rx="2.5" ry="2.5" style="stroke:#181818;stroke-width:0.5;" width="63" x="1008.5" y="721"/><ellipse cx="1023.5" cy="737" fill="#ADD1B2" rx="11" ry="11" style="stroke:#181818;stroke-width:1.0;"/><path d="M1026.4688,742.6406 Q1025.8906,742.9375 1025.25,743.0781 Q1024.6094,743.2344 1023.9063,743.2344 Q1021.4063,743.2344 1020.0781,741.5938 Q1018.7656,739.9375 1018.7656,736.8125 Q1018.7656,733.6875 1020.0781,732.0313 Q1021.4063,730.375 1023.9063,730.375 Q1024.6094,730.375 1025.25,730.5313 Q1025.9063,730.6875 1026.4688,730.9844 L1026.4688,733.7031 Q1025.8438,733.125 1025.25,732.8594 Q1024.6563,732.5781 1024.0313,732.5781 Q1022.6875,732.5781 1022,733.6563 Q1021.3125,734.7188 1021.3125,736.8125 Q1021.3125,738.9063 1022,739.9844 Q1022.6875,741.0469 1024.0313,741.0469 Q1024.6563,741.0469 1025.25,740.7813 Q1025.8438,740.5 1026.4688,739.9219 L1026.4688,742.6406 Z " fill="#000000"/><text fill="#000000" font-family="sans-serif" font-size="14" lengthAdjust="spacing" textLength="31" x="1037.5" y="741.8467">Html</text><line style="stroke:#181818;stroke-width:0.5;" x1="1009.5" x2="1070.5" y1="753" y2="753"/><line style="stroke:#181818;stroke-width:0.5;" x1="1009.5" x2="1070.5" y1="761" y2="761"/></g><!--class HyppoEngine\Repository\File--><g id="elem_HyppoEngine\Repository\File"><rect codeLine="5" fill="#F1F1F1" height="48" id="HyppoEngine\Repository\File" rx="2.5" ry="2.5" style="stroke:#181818;stroke-width:0.5;" width="55" x="1375.5" y="844"/><ellipse cx="1390.5" cy="860" fill="#ADD1B2" rx="11" ry="11" style="stroke:#181818;stroke-width:1.0;"/><path d="M1393.4688,865.6406 Q1392.8906,865.9375 1392.25,866.0781 Q1391.6094,866.2344 1390.9063,866.2344 Q1388.4063,866.2344 1387.0781,864.5938 Q1385.7656,862.9375 1385.7656,859.8125 Q1385.7656,856.6875 1387.0781,855.0313 Q1388.4063,853.375 1390.9063,853.375 Q1391.6094,853.375 1392.25,853.5313 Q1392.9063,853.6875 1393.4688,853.9844 L1393.4688,856.7031 Q1392.8438,856.125 1392.25,855.8594 Q1391.6563,855.5781 1391.0313,855.5781 Q1389.6875,855.5781 1389,856.6563 Q1388.3125,857.7188 1388.3125,859.8125 Q1388.3125,861.9063 1389,862.9844 Q1389.6875,864.0469 1391.0313,864.0469 Q1391.6563,864.0469 1392.25,863.7813 Q1392.8438,863.5 1393.4688,862.9219 L1393.4688,865.6406 Z " fill="#000000"/><text fill="#000000" font-family="sans-serif" font-size="14" lengthAdjust="spacing" textLength="23" x="1404.5" y="864.8467">File</text><line style="stroke:#181818;stroke-width:0.5;" x1="1376.5" x2="1429.5" y1="876" y2="876"/><line style="stroke:#181818;stroke-width:0.5;" x1="1376.5" x2="1429.5" y1="884" y2="884"/></g><!--class HyppoEngine\DTO--><g id="elem_HyppoEngine\DTO"><rect codeLine="0" fill="#F1F1F1" height="58.5938" id="HyppoEngine\DTO" rx="2.5" ry="2.5" style="stroke:#181818;stroke-width:0.5;" width="155" x="1325.5" y="952"/><ellipse cx="1340.5" cy="973.2969" fill="#ADD1B2" rx="11" ry="11" style="stroke:#181818;stroke-width:1.0;"/><path d="M1343.4688,978.9375 Q1342.8906,979.2344 1342.25,979.375 Q1341.6094,979.5313 1340.9063,979.5313 Q1338.4063,979.5313 1337.0781,977.8906 Q1335.7656,976.2344 1335.7656,973.1094 Q1335.7656,969.9844 1337.0781,968.3281 Q1338.4063,966.6719 1340.9063,966.6719 Q1341.6094,966.6719 1342.25,966.8281 Q1342.9063,966.9844 1343.4688,967.2813 L1343.4688,970 Q1342.8438,969.4219 1342.25,969.1563 Q1341.6563,968.875 1341.0313,968.875 Q1339.6875,968.875 1339,969.9531 Q1338.3125,971.0156 1338.3125,973.1094 Q1338.3125,975.2031 1339,976.2813 Q1339.6875,977.3438 1341.0313,977.3438 Q1341.6563,977.3438 1342.25,977.0781 Q1342.8438,976.7969 1343.4688,976.2188 L1343.4688,978.9375 Z " fill="#000000"/><text fill="#000000" font-family="sans-serif" font-size="14" lengthAdjust="spacing" textLength="31" x="1400.5" y="969.9951">DTO</text><text fill="#000000" font-family="sans-serif" font-size="14" lengthAdjust="spacing" textLength="123" x="1354.5" y="986.292">uses DTO,Factory</text><line style="stroke:#181818;stroke-width:0.5;" x1="1326.5" x2="1479.5" y1="994.5938" y2="994.5938"/><line style="stroke:#181818;stroke-width:0.5;" x1="1326.5" x2="1479.5" y1="1002.5938" y2="1002.5938"/></g><!--class HyppoEngine\Exception--><g id="elem_HyppoEngine\Exception"><rect codeLine="0" fill="#F1F1F1" height="48" id="HyppoEngine\Exception" rx="2.5" ry="2.5" style="stroke:#181818;stroke-width:0.5;" width="100" x="1209" y="451"/><ellipse cx="1224" cy="467" fill="#ADD1B2" rx="11" ry="11" style="stroke:#181818;stroke-width:1.0;"/><path d="M1226.9688,472.6406 Q1226.3906,472.9375 1225.75,473.0781 Q1225.1094,473.2344 1224.4063,473.2344 Q1221.9063,473.2344 1220.5781,471.5938 Q1219.2656,469.9375 1219.2656,466.8125 Q1219.2656,463.6875 1220.5781,462.0313 Q1221.9063,460.375 1224.4063,460.375 Q1225.1094,460.375 1225.75,460.5313 Q1226.4063,460.6875 1226.9688,460.9844 L1226.9688,463.7031 Q1226.3438,463.125 1225.75,462.8594 Q1225.1563,462.5781 1224.5313,462.5781 Q1223.1875,462.5781 1222.5,463.6563 Q1221.8125,464.7188 1221.8125,466.8125 Q1221.8125,468.9063 1222.5,469.9844 Q1223.1875,471.0469 1224.5313,471.0469 Q1225.1563,471.0469 1225.75,470.7813 Q1226.3438,470.5 1226.9688,469.9219 L1226.9688,472.6406 Z " fill="#000000"/><text fill="#000000" font-family="sans-serif" font-size="14" lengthAdjust="spacing" textLength="68" x="1238" y="471.8467">Exception</text><line style="stroke:#181818;stroke-width:0.5;" x1="1210" x2="1308" y1="483" y2="483"/><line style="stroke:#181818;stroke-width:0.5;" x1="1210" x2="1308" y1="491" y2="491"/></g><!--class HyppoEngine\Document--><g id="elem_HyppoEngine\Document"><rect codeLine="0" fill="#F1F1F1" height="48" id="HyppoEngine\Document" rx="2.5" ry="2.5" style="stroke:#181818;stroke-width:0.5;" width="105" x="1206.5" y="598"/><ellipse cx="1221.5" cy="614" fill="#ADD1B2" rx="11" ry="11" style="stroke:#181818;stroke-width:1.0;"/><path d="M1224.4688,619.6406 Q1223.8906,619.9375 1223.25,620.0781 Q1222.6094,620.2344 1221.9063,620.2344 Q1219.4063,620.2344 1218.0781,618.5938 Q1216.7656,616.9375 1216.7656,613.8125 Q1216.7656,610.6875 1218.0781,609.0313 Q1219.4063,607.375 1221.9063,607.375 Q1222.6094,607.375 1223.25,607.5313 Q1223.9063,607.6875 1224.4688,607.9844 L1224.4688,610.7031 Q1223.8438,610.125 1223.25,609.8594 Q1222.6563,609.5781 1222.0313,609.5781 Q1220.6875,609.5781 1220,610.6563 Q1219.3125,611.7188 1219.3125,613.8125 Q1219.3125,615.9063 1220,616.9844 Q1220.6875,618.0469 1222.0313,618.0469 Q1222.6563,618.0469 1223.25,617.7813 Q1223.8438,617.5 1224.4688,616.9219 L1224.4688,619.6406 Z " fill="#000000"/><text fill="#000000" font-family="sans-serif" font-size="14" lengthAdjust="spacing" textLength="73" x="1235.5" y="618.8467">Document</text><line style="stroke:#181818;stroke-width:0.5;" x1="1207.5" x2="1310.5" y1="630" y2="630"/><line style="stroke:#181818;stroke-width:0.5;" x1="1207.5" x2="1310.5" y1="638" y2="638"/></g><!--class HyppoEngine\Repository--><g id="elem_HyppoEngine\Repository"><rect codeLine="0" fill="#F1F1F1" height="48" id="HyppoEngine\Repository" rx="2.5" ry="2.5" style="stroke:#181818;stroke-width:0.5;" width="106" x="1297" y="721"/><ellipse cx="1312" cy="737" fill="#ADD1B2" rx="11" ry="11" style="stroke:#181818;stroke-width:1.0;"/><path d="M1314.9688,742.6406 Q1314.3906,742.9375 1313.75,743.0781 Q1313.1094,743.2344 1312.4063,743.2344 Q1309.9063,743.2344 1308.5781,741.5938 Q1307.2656,739.9375 1307.2656,736.8125 Q1307.2656,733.6875 1308.5781,732.0313 Q1309.9063,730.375 1312.4063,730.375 Q1313.1094,730.375 1313.75,730.5313 Q1314.4063,730.6875 1314.9688,730.9844 L1314.9688,733.7031 Q1314.3438,733.125 1313.75,732.8594 Q1313.1563,732.5781 1312.5313,732.5781 Q1311.1875,732.5781 1310.5,733.6563 Q1309.8125,734.7188 1309.8125,736.8125 Q1309.8125,738.9063 1310.5,739.9844 Q1311.1875,741.0469 1312.5313,741.0469 Q1313.1563,741.0469 1313.75,740.7813 Q1314.3438,740.5 1314.9688,739.9219 L1314.9688,742.6406 Z " fill="#000000"/><text fill="#000000" font-family="sans-serif" font-size="14" lengthAdjust="spacing" textLength="74" x="1326" y="741.8467">Repository</text><line style="stroke:#181818;stroke-width:0.5;" x1="1298" x2="1402" y1="753" y2="753"/><line style="stroke:#181818;stroke-width:0.5;" x1="1298" x2="1402" y1="761" y2="761"/></g><!--class HyppoEngine\Parser--><g id="elem_HyppoEngine\Parser"><rect codeLine="0" fill="#F1F1F1" height="48" id="HyppoEngine\Parser" rx="2.5" ry="2.5" style="stroke:#181818;stroke-width:0.5;" width="76" x="1115" y="721"/><ellipse cx="1130" cy="737" fill="#ADD1B2" rx="11" ry="11" style="stroke:#181818;stroke-width:1.0;"/><path d="M1132.9688,742.6406 Q1132.3906,742.9375 1131.75,743.0781 Q1131.1094,743.2344 1130.4063,743.2344 Q1127.9063,743.2344 1126.5781,741.5938 Q1125.2656,739.9375 1125.2656,736.8125 Q1125.2656,733.6875 1126.5781,732.0313 Q1127.9063,730.375 1130.4063,730.375 Q1131.1094,730.375 1131.75,730.5313 Q1132.4063,730.6875 1132.9688,730.9844 L1132.9688,733.7031 Q1132.3438,733.125 1131.75,732.8594 Q1131.1563,732.5781 1130.5313,732.5781 Q1129.1875,732.5781 1128.5,733.6563 Q1127.8125,734.7188 1127.8125,736.8125 Q1127.8125,738.9063 1128.5,739.9844 Q1129.1875,741.0469 1130.5313,741.0469 Q1131.1563,741.0469 1131.75,740.7813 Q1132.3438,740.5 1132.9688,739.9219 L1132.9688,742.6406 Z " fill="#000000"/><text fill="#000000" font-family="sans-serif" font-size="14" lengthAdjust="spacing" textLength="44" x="1144" y="741.8467">Parser</text><line style="stroke:#181818;stroke-width:0.5;" x1="1116" x2="1190" y1="753" y2="753"/><line style="stroke:#181818;stroke-width:0.5;" x1="1116" x2="1190" y1="761" y2="761"/></g><!--class HyppoEngine\Render--><g id="elem_HyppoEngine\Render"><rect codeLine="0" fill="#F1F1F1" height="58.5938" id="HyppoEngine\Render" rx="2.5" ry="2.5" style="stroke:#181818;stroke-width:0.5;" width="120" x="980" y="592.5"/><ellipse cx="995" cy="613.7969" fill="#ADD1B2" rx="11" ry="11" style="stroke:#181818;stroke-width:1.0;"/><path d="M997.9688,619.4375 Q997.3906,619.7344 996.75,619.875 Q996.1094,620.0313 995.4063,620.0313 Q992.9063,620.0313 991.5781,618.3906 Q990.2656,616.7344 990.2656,613.6094 Q990.2656,610.4844 991.5781,608.8281 Q992.9063,607.1719 995.4063,607.1719 Q996.1094,607.1719 996.75,607.3281 Q997.4063,607.4844 997.9688,607.7813 L997.9688,610.5 Q997.3438,609.9219 996.75,609.6563 Q996.1563,609.375 995.5313,609.375 Q994.1875,609.375 993.5,610.4531 Q992.8125,611.5156 992.8125,613.6094 Q992.8125,615.7031 993.5,616.7813 Q994.1875,617.8438 995.5313,617.8438 Q996.1563,617.8438 996.75,617.5781 Q997.3438,617.2969 997.9688,616.7188 L997.9688,619.4375 Z " fill="#000000"/><text fill="#000000" font-family="sans-serif" font-size="14" lengthAdjust="spacing" textLength="51" x="1027.5" y="610.4951">Render</text><text fill="#000000" font-family="sans-serif" font-size="14" lengthAdjust="spacing" textLength="88" x="1009" y="626.792">uses Factory</text><line style="stroke:#181818;stroke-width:0.5;" x1="981" x2="1099" y1="635.0938" y2="635.0938"/><line style="stroke:#181818;stroke-width:0.5;" x1="981" x2="1099" y1="643.0938" y2="643.0938"/></g><!--class SyntaxTree--><g id="elem_SyntaxTree"><rect codeLine="0" fill="#F1F1F1" height="48" id="SyntaxTree" rx="2.5" ry="2.5" style="stroke:#181818;stroke-width:0.5;" width="109" x="2501.5" y="127"/><ellipse cx="2516.5" cy="143" fill="#ADD1B2" rx="11" ry="11" style="stroke:#181818;stroke-width:1.0;"/><path d="M2519.4688,148.6406 Q2518.8906,148.9375 2518.25,149.0781 Q2517.6094,149.2344 2516.9063,149.2344 Q2514.4063,149.2344 2513.0781,147.5938 Q2511.7656,145.9375 2511.7656,142.8125 Q2511.7656,139.6875 2513.0781,138.0313 Q2514.4063,136.375 2516.9063,136.375 Q2517.6094,136.375 2518.25,136.5313 Q2518.9063,136.6875 2519.4688,136.9844 L2519.4688,139.7031 Q2518.8438,139.125 2518.25,138.8594 Q2517.6563,138.5781 2517.0313,138.5781 Q2515.6875,138.5781 2515,139.6563 Q2514.3125,140.7188 2514.3125,142.8125 Q2514.3125,144.9063 2515,145.9844 Q2515.6875,147.0469 2517.0313,147.0469 Q2517.6563,147.0469 2518.25,146.7813 Q2518.8438,146.5 2519.4688,145.9219 L2519.4688,148.6406 Z " fill="#000000"/><text fill="#000000" font-family="sans-serif" font-size="14" lengthAdjust="spacing" textLength="77" x="2530.5" y="147.8467">SyntaxTree</text><line style="stroke:#181818;stroke-width:0.5;" x1="2502.5" x2="2609.5" y1="159" y2="159"/><line style="stroke:#181818;stroke-width:0.5;" x1="2502.5" x2="2609.5" y1="167" y2="167"/></g><!--reverse link HyppoEngine\Trait\Attribute to HyppoEngine\Trait\Pattern\Repository--><g id="link_HyppoEngine\Trait\Attribute_HyppoEngine\Trait\Pattern\Repository"><path codeLine="12" d="M2222.54,475 C2234.29,475 2240.04,475 2251.79,475 " fill="none" id="HyppoEngine\Trait\Attribute-backto-HyppoEngine\Trait\Pattern\Repository" style="stroke:#181818;stroke-width:1.0;"/><polygon fill="#181818" points="2216.54,475,2225.54,479,2221.54,475,2225.54,471,2216.54,475" style="stroke:#181818;stroke-width:1.0;"/></g><!--link HyppoEngine\Trait\Pattern\Builder to HyppoEngine\Trait\Pattern\Factory--><g id="link_HyppoEngine\Trait\Pattern\Builder_HyppoEngine\Trait\Pattern\Factory"><path codeLine="14" d="M2305,175 C2305,192.66 2305,216.94 2305,234.68 " fill="none" id="HyppoEngine\Trait\Pattern\Builder-HyppoEngine\Trait\Pattern\Factory" style="stroke:#181818;stroke-width:1.0;stroke-dasharray:7.0,7.0;"/></g><!--link HyppoEngine\Trait\Pattern\Factory to HyppoEngine\Trait\Pattern\DTO--><g id="link_HyppoEngine\Trait\Pattern\Factory_HyppoEngine\Trait\Pattern\DTO"><path codeLine="15" d="M2305,283 C2305,300.66 2305,324.94 2305,342.68 " fill="none" id="HyppoEngine\Trait\Pattern\Factory-HyppoEngine\Trait\Pattern\DTO" style="stroke:#181818;stroke-width:1.0;stroke-dasharray:7.0,7.0;"/></g><!--link HyppoEngine\Trait\Pattern\DTO to HyppoEngine\Trait\Pattern\Repository--><g id="link_HyppoEngine\Trait\Pattern\DTO_HyppoEngine\Trait\Pattern\Repository"><path codeLine="16" d="M2305,391 C2305,408.66 2305,432.94 2305,450.68 " fill="none" id="HyppoEngine\Trait\Pattern\DTO-HyppoEngine\Trait\Pattern\Repository" style="stroke:#181818;stroke-width:1.0;stroke-dasharray:7.0,7.0;"/></g><!--reverse link HyppoEngine\DTO to HyppoEngine\DTO\Document\Author--><g id="link_HyppoEngine\DTO_HyppoEngine\DTO\Document\Author"><path codeLine="10" d="M1489.9207,1022.5412 C1495.8007,1027.3612 1487.07,1021.54 1491,1028 C1512.03,1062.55 1513.4,1085.32 1491,1119 C1455.7,1172.07 1379.22,1191.28 1332.32,1198.18 " fill="none" id="HyppoEngine\DTO-backto-HyppoEngine\DTO\Document\Author" style="stroke:#181818;stroke-width:1.0;"/><polygon fill="none" points="1476,1011.13,1486.117,1027.1814,1493.7244,1017.9009,1476,1011.13" style="stroke:#181818;stroke-width:1.0;"/></g><!--link HyppoEngine\DTO\Document to HyppoEngine\DTO\Document\Author--><g id="link_HyppoEngine\DTO\Document_HyppoEngine\DTO\Document\Author"><path codeLine="12" d="M1254.63,1119 C1262.79,1136.66 1268.9851,1150.0474 1277.1851,1167.7874 " fill="none" id="HyppoEngine\DTO\Document-to-HyppoEngine\DTO\Document\Author" style="stroke:#181818;stroke-width:1.0;"/><polygon fill="none" points="1282.22,1178.68,1283.3334,1171.5554,1277.1851,1167.7874,1276.0717,1174.912,1282.22,1178.68" style="stroke:#181818;stroke-width:1.0;"/></g><!--reverse link HyppoEngine\DTO to HyppoEngine\DTO\Document--><g id="link_HyppoEngine\DTO_HyppoEngine\DTO\Document"><path codeLine="14" d="M1325.5745,1019.8061 C1316.1545,1024.9961 1322.51,1022 1314,1028 C1296.26,1040.52 1278.48,1057.34 1265.28,1070.87 " fill="none" id="HyppoEngine\DTO-backto-HyppoEngine\DTO\Document" style="stroke:#181818;stroke-width:1.0;"/><polygon fill="none" points="1341.34,1011.12,1322.6791,1014.5509,1328.4698,1025.0613,1341.34,1011.12" style="stroke:#181818;stroke-width:1.0;"/></g><!--reverse link HyppoEngine\DTO to HyppoEngine\DTO\RepositoryNode--><g id="link_HyppoEngine\DTO_HyppoEngine\DTO\RepositoryNode"><path codeLine="18" d="M1403,1029.21 C1403,1047.8 1403,1053.67 1403,1071 " fill="none" id="HyppoEngine\DTO-backto-HyppoEngine\DTO\RepositoryNode" style="stroke:#181818;stroke-width:1.0;"/><polygon fill="none" points="1403,1011.21,1397,1029.21,1409,1029.21,1403,1011.21" style="stroke:#181818;stroke-width:1.0;"/></g><!--link HyppoEngine\Exception\Common to HyppoEngine\Exception--><g id="link_HyppoEngine\Exception\Common_HyppoEngine\Exception"><path codeLine="6" d="M1259,283.31 C1259,324.47 1259,391.58 1259,432.72 " fill="none" id="HyppoEngine\Exception\Common-to-HyppoEngine\Exception" style="stroke:#181818;stroke-width:1.0;"/><polygon fill="none" points="1259,450.72,1265,432.72,1253,432.72,1259,450.72" style="stroke:#181818;stroke-width:1.0;"/></g><!--link HyppoEngine\Exception\Common\AccessDenied to HyppoEngine\Exception\Common--><g id="link_HyppoEngine\Exception\Common\AccessDenied_HyppoEngine\Exception\Common"><path codeLine="11" d="M1339.65,175 C1322.49,192.66 1311.4447,204.0315 1294.2047,221.7715 " fill="none" id="HyppoEngine\Exception\Common\AccessDenied-to-HyppoEngine\Exception\Common" style="stroke:#181818;stroke-width:1.0;"/><polygon fill="none" points="1281.66,234.68,1298.5076,225.953,1289.9019,217.5899,1281.66,234.68" style="stroke:#181818;stroke-width:1.0;"/></g><!--link HyppoEngine\Exception\Common\FileNotExists to HyppoEngine\Exception\Common--><g id="link_HyppoEngine\Exception\Common\FileNotExists_HyppoEngine\Exception\Common"><path codeLine="15" d="M1213.59,175 C1223.25,192.66 1227.8876,201.1505 1237.5976,218.8905 " fill="none" id="HyppoEngine\Exception\Common\FileNotExists-to-HyppoEngine\Exception\Common" style="stroke:#181818;stroke-width:1.0;"/><polygon fill="none" points="1246.24,234.68,1242.8608,216.0097,1232.3344,221.7713,1246.24,234.68" style="stroke:#181818;stroke-width:1.0;"/></g><!--link HyppoEngine\Exception\Parser to HyppoEngine\Exception--><g id="link_HyppoEngine\Exception\Parser_HyppoEngine\Exception"><path codeLine="21" d="M1053.12,384.56 C1095.08,402.79 1146.1713,424.9763 1192.3813,445.0563 " fill="none" id="HyppoEngine\Exception\Parser-to-HyppoEngine\Exception" style="stroke:#181818;stroke-width:1.0;"/><polygon fill="none" points="1208.89,452.23,1194.7725,439.5534,1189.99,450.5592,1208.89,452.23" style="stroke:#181818;stroke-width:1.0;"/></g><!--link HyppoEngine\Exception\Parser\ParserNotExists to HyppoEngine\Exception\Parser--><g id="link_HyppoEngine\Exception\Parser\ParserNotExists_HyppoEngine\Exception\Parser"><path codeLine="26" d="M1015,175.31 C1015,216.47 1015,283.58 1015,324.72 " fill="none" id="HyppoEngine\Exception\Parser\ParserNotExists-to-HyppoEngine\Exception\Parser" style="stroke:#181818;stroke-width:1.0;"/><polygon fill="none" points="1015,342.72,1021,324.72,1009,324.72,1015,342.72" style="stroke:#181818;stroke-width:1.0;"/></g><!--link HyppoEngine\Exception\Parser\Bnf to HyppoEngine\Exception\Parser--><g id="link_HyppoEngine\Exception\Parser\Bnf_HyppoEngine\Exception\Parser"><path codeLine="30" d="M914.49,283.21 C919.72,291.21 926.11,299.93 933,307 C946.1,320.44 947.6791,322.8375 962.4191,332.8475 " fill="none" id="HyppoEngine\Exception\Parser\Bnf-to-HyppoEngine\Exception\Parser" style="stroke:#181818;stroke-width:1.0;"/><polygon fill="none" points="977.31,342.96,965.7899,327.8839,959.0483,337.8112,977.31,342.96" style="stroke:#181818;stroke-width:1.0;"/></g><!--link HyppoEngine\Exception\Parser\Bnf\BnfNotExists to HyppoEngine\Exception\Parser\Bnf--><g id="link_HyppoEngine\Exception\Parser\Bnf\BnfNotExists_HyppoEngine\Exception\Parser\Bnf"><path codeLine="35" d="M861.07,175 C869.56,192.66 873.4498,200.7179 881.9798,218.4579 " fill="none" id="HyppoEngine\Exception\Parser\Bnf\BnfNotExists-to-HyppoEngine\Exception\Parser\Bnf" style="stroke:#181818;stroke-width:1.0;"/><polygon fill="none" points="889.78,234.68,887.3872,215.8578,876.5725,221.0579,889.78,234.68" style="stroke:#181818;stroke-width:1.0;"/></g><!--link HyppoEngine\Exception\Render to HyppoEngine\Exception--><g id="link_HyppoEngine\Exception\Render_HyppoEngine\Exception"><path codeLine="42" d="M1472.86,283.31 C1426.69,324.47 1344.685,397.6009 1298.545,438.7409 " fill="none" id="HyppoEngine\Exception\Render-to-HyppoEngine\Exception" style="stroke:#181818;stroke-width:1.0;"/><polygon fill="none" points="1285.11,450.72,1302.5381,443.2192,1294.552,434.2625,1285.11,450.72" style="stroke:#181818;stroke-width:1.0;"/></g><!--link HyppoEngine\Exception\Render\RenderNotExists to HyppoEngine\Exception\Render--><g id="link_HyppoEngine\Exception\Render\RenderNotExists_HyppoEngine\Exception\Render"><path codeLine="47" d="M1545.2,175 C1535.37,192.66 1530.6014,201.2106 1520.7314,218.9506 " fill="none" id="HyppoEngine\Exception\Render\RenderNotExists-to-HyppoEngine\Exception\Render" style="stroke:#181818;stroke-width:1.0;"/><polygon fill="none" points="1511.98,234.68,1525.9745,221.8677,1515.4882,216.0335,1511.98,234.68" style="stroke:#181818;stroke-width:1.0;"/></g><!--link HyppoEngine\Exception\Repository to HyppoEngine\Exception--><g id="link_HyppoEngine\Exception\Repository_HyppoEngine\Exception"><path codeLine="54" d="M452.15,374.55 C607.24,393.67 1039.9252,446.9976 1191.0452,465.6276 " fill="none" id="HyppoEngine\Exception\Repository-to-HyppoEngine\Exception" style="stroke:#181818;stroke-width:1.0;"/><polygon fill="none" points="1208.91,467.83,1191.7794,459.6727,1190.3111,471.5826,1208.91,467.83" style="stroke:#181818;stroke-width:1.0;"/></g><!--link HyppoEngine\Exception\Repository\RepositoryNotExists to HyppoEngine\Exception\Repository--><g id="link_HyppoEngine\Exception\Repository\RepositoryNotExists_HyppoEngine\Exception\Repository"><path codeLine="59" d="M159.94,175.11 C211.5,216.28 304.6334,290.6492 356.1234,331.7592 " fill="none" id="HyppoEngine\Exception\Repository\RepositoryNotExists-to-HyppoEngine\Exception\Repository" style="stroke:#181818;stroke-width:1.0;"/><polygon fill="none" points="370.19,342.99,359.8671,327.0703,352.3798,336.448,370.19,342.99" style="stroke:#181818;stroke-width:1.0;"/></g><!--link HyppoEngine\Exception\Repository\File to HyppoEngine\Exception\Repository--><g id="link_HyppoEngine\Exception\Repository\File_HyppoEngine\Exception\Repository"><path codeLine="63" d="M399,283 C399,300.66 399,306.94 399,324.68 " fill="none" id="HyppoEngine\Exception\Repository\File-to-HyppoEngine\Exception\Repository" style="stroke:#181818;stroke-width:1.0;"/><polygon fill="none" points="399,342.68,405,324.68,393,324.68,399,342.68" style="stroke:#181818;stroke-width:1.0;"/></g><!--link HyppoEngine\Exception\Repository\File\FileNotExists to HyppoEngine\Exception\Repository\File--><g id="link_HyppoEngine\Exception\Repository\File\FileNotExists_HyppoEngine\Exception\Repository\File"><path codeLine="68" d="M399,175 C399,192.66 399,198.94 399,216.68 " fill="none" id="HyppoEngine\Exception\Repository\File\FileNotExists-to-HyppoEngine\Exception\Repository\File" style="stroke:#181818;stroke-width:1.0;"/><polygon fill="none" points="399,234.68,405,216.68,393,216.68,399,234.68" style="stroke:#181818;stroke-width:1.0;"/></g><!--link HyppoEngine\Exception\SyntaxTree to HyppoEngine\Exception--><g id="link_HyppoEngine\Exception\SyntaxTree_HyppoEngine\Exception"><path codeLine="74" d="M1720.27,282.7 C1619.63,324.44 1423.2571,405.8851 1325.9771,446.2251 " fill="none" id="HyppoEngine\Exception\SyntaxTree-to-HyppoEngine\Exception" style="stroke:#181818;stroke-width:1.0;"/><polygon fill="none" points="1309.35,453.12,1328.2754,451.7675,1323.6788,440.6827,1309.35,453.12" style="stroke:#181818;stroke-width:1.0;"/></g><!--link HyppoEngine\Exception\SyntaxTree\SyntaxTreeNotExists to HyppoEngine\Exception\SyntaxTree--><g id="link_HyppoEngine\Exception\SyntaxTree\SyntaxTreeNotExists_HyppoEngine\Exception\SyntaxTree"><path codeLine="79" d="M1843.91,175 C1829.25,192.66 1820.5887,203.0916 1805.8587,220.8316 " fill="none" id="HyppoEngine\Exception\SyntaxTree\SyntaxTreeNotExists-to-HyppoEngine\Exception\SyntaxTree" style="stroke:#181818;stroke-width:1.0;"/><polygon fill="none" points="1794.36,234.68,1810.4749,224.6645,1801.2426,216.9987,1794.36,234.68" style="stroke:#181818;stroke-width:1.0;"/></g><!--reverse link HyppoEngine\Exception to HyppoEngine\Document--><g id="link_HyppoEngine\Exception_HyppoEngine\Document"><path codeLine="2" d="M1259,505.3 C1259,532.36 1259,570.73 1259,597.76 " fill="none" id="HyppoEngine\Exception-backto-HyppoEngine\Document" style="stroke:#181818;stroke-width:1.0;stroke-dasharray:7.0,7.0;"/><polygon fill="#181818" points="1259,499.3,1255,508.3,1259,504.3,1263,508.3,1259,499.3" style="stroke:#181818;stroke-width:1.0;"/></g><!--link HyppoEngine\Document to HyppoEngine\Repository--><g id="link_HyppoEngine\Document_HyppoEngine\Repository"><path codeLine="3" d="M1276.33,646.04 C1292.42,667.44 1309.05,689.5375 1325.21,711.0375 " fill="none" id="HyppoEngine\Document-to-HyppoEngine\Repository" style="stroke:#181818;stroke-width:1.0;"/><polygon fill="none" points="1332.42,720.63,1332.0125,713.4304,1325.21,711.0375,1325.6175,718.2371,1332.42,720.63" style="stroke:#181818;stroke-width:1.0;"/></g><!--link HyppoEngine\Document to HyppoEngine\Parser--><g id="link_HyppoEngine\Document_HyppoEngine\Parser"><path codeLine="4" d="M1238.81,646.04 C1220.07,667.44 1200.2186,690.1048 1181.3786,711.6048 " fill="none" id="HyppoEngine\Document-to-HyppoEngine\Parser" style="stroke:#181818;stroke-width:1.0;"/><polygon fill="none" points="1173.47,720.63,1180.4327,718.7536,1181.3786,711.6048,1174.4159,713.4812,1173.47,720.63" style="stroke:#181818;stroke-width:1.0;"/></g><!--link HyppoEngine\Document to HyppoEngine\DTO\Document--><g id="link_HyppoEngine\Document_HyppoEngine\DTO\Document"><path codeLine="5" d="M1258.27,646.04 C1255.72,725.92 1247.6827,978.4961 1245.1227,1058.7361 " fill="none" id="HyppoEngine\Document-to-HyppoEngine\DTO\Document" style="stroke:#181818;stroke-width:1.0;"/><polygon fill="none" points="1244.74,1070.73,1248.9293,1064.8606,1245.1227,1058.7361,1240.9334,1064.6055,1244.74,1070.73" style="stroke:#181818;stroke-width:1.0;"/></g><!--link HyppoEngine\Document\Article to HyppoEngine\Document--><g id="link_HyppoEngine\Document\Article_HyppoEngine\Document"><path codeLine="12" d="M1508.93,622 C1443.18,622 1395.44,622 1329.69,622 " fill="none" id="HyppoEngine\Document\Article-to-HyppoEngine\Document" style="stroke:#181818;stroke-width:1.0;"/><polygon fill="none" points="1311.69,622,1329.69,628,1329.69,616,1311.69,622" style="stroke:#181818;stroke-width:1.0;"/></g><!--reverse link HyppoEngine\Exception to HyppoEngine\Parser--><g id="link_HyppoEngine\Exception_HyppoEngine\Parser"><path codeLine="2" d="M1228.1335,503.2075 C1213.0735,517.7475 1199.5,533.62 1189,555 C1161.83,610.31 1155.12,684.07 1153.5,720.95 " fill="none" id="HyppoEngine\Exception-backto-HyppoEngine\Parser" style="stroke:#181818;stroke-width:1.0;stroke-dasharray:7.0,7.0;"/><polygon fill="#181818" points="1232.45,499.04,1223.1969,502.4135,1228.8529,502.5129,1228.7535,508.1689,1232.45,499.04" style="stroke:#181818;stroke-width:1.0;"/></g><!--reverse link HyppoEngine\Parser to HyppoEngine\Parser\Bnf--><g id="link_HyppoEngine\Parser_HyppoEngine\Parser\Bnf"><path codeLine="7" d="M1153,787.04 C1153,808.44 1153,822.13 1153,843.63 " fill="none" id="HyppoEngine\Parser-backto-HyppoEngine\Parser\Bnf" style="stroke:#181818;stroke-width:1.0;"/><polygon fill="none" points="1153,769.04,1147,787.04,1159,787.04,1153,769.04" style="stroke:#181818;stroke-width:1.0;"/></g><!--reverse link HyppoEngine\Exception to HyppoEngine\Render--><g id="link_HyppoEngine\Exception_HyppoEngine\Render"><path codeLine="3" d="M1212.6389,502.0615 C1186.2289,517.2515 1156.65,534.97 1127,555 C1109.72,566.67 1091.23,580.5 1075.75,592.48 " fill="none" id="HyppoEngine\Exception-backto-HyppoEngine\Render" style="stroke:#181818;stroke-width:1.0;stroke-dasharray:7.0,7.0;"/><polygon fill="#181818" points="1217.84,499.07,1208.0441,500.0898,1213.5058,501.5629,1212.0327,507.0246,1217.84,499.07" style="stroke:#181818;stroke-width:1.0;"/></g><!--reverse link HyppoEngine\Render to HyppoEngine\Render\Html--><g id="link_HyppoEngine\Render_HyppoEngine\Render\Html"><path codeLine="9" d="M1040,669.68 C1040,690.78 1040,701.11 1040,720.8 " fill="none" id="HyppoEngine\Render-backto-HyppoEngine\Render\Html" style="stroke:#181818;stroke-width:1.0;"/><polygon fill="none" points="1040,651.68,1034,669.68,1046,669.68,1040,651.68" style="stroke:#181818;stroke-width:1.0;"/></g><!--reverse link HyppoEngine\Exception to HyppoEngine\Repository--><g id="link_HyppoEngine\Exception_HyppoEngine\Repository"><path codeLine="2" d="M1290.8643,503.218 C1306.0643,517.628 1319.41,533.39 1329,555 C1353.65,610.52 1353.72,683.87 1351.8,720.73 " fill="none" id="HyppoEngine\Exception-backto-HyppoEngine\Repository" style="stroke:#181818;stroke-width:1.0;stroke-dasharray:7.0,7.0;"/><polygon fill="#181818" points="1286.51,499.09,1290.2894,508.1848,1290.1386,502.53,1295.7934,502.3791,1286.51,499.09" style="stroke:#181818;stroke-width:1.0;"/></g><!--reverse link HyppoEngine\Repository to HyppoEngine\Repository\File--><g id="link_HyppoEngine\Repository_HyppoEngine\Repository\File"><path codeLine="7" d="M1367.3096,785.5287 C1376.6796,806.9287 1383.35,822.13 1392.76,843.63 " fill="none" id="HyppoEngine\Repository-backto-HyppoEngine\Repository\File" style="stroke:#181818;stroke-width:1.0;"/><polygon fill="none" points="1360.09,769.04,1361.8134,787.9352,1372.8058,783.1222,1360.09,769.04" style="stroke:#181818;stroke-width:1.0;"/></g><!--link HyppoEngine\Repository\File to HyppoEngine\DTO--><g id="link_HyppoEngine\Repository\File_HyppoEngine\DTO"><path codeLine="8" d="M1403,892.1 C1403,909.45 1403,927.32 1403,945.88 " fill="none" id="HyppoEngine\Repository\File-to-HyppoEngine\DTO" style="stroke:#181818;stroke-width:1.0;stroke-dasharray:7.0,7.0;"/><polygon fill="#181818" points="1403,951.88,1407,942.88,1403,946.88,1399,942.88,1403,951.88" style="stroke:#181818;stroke-width:1.0;"/></g><!--reverse link HyppoEngine\Exception to HyppoEngine\Repository\File--><g id="link_HyppoEngine\Exception_HyppoEngine\Repository\File"><path codeLine="9" d="M1304.9589,502.286 C1326.8189,516.226 1347.83,532.42 1366,555 C1403.54,601.65 1408.5,619.44 1421,678 C1431.67,727.99 1427.08,742.25 1421,793 C1418.92,810.33 1414.2,829.46 1410.12,843.93 " fill="none" id="HyppoEngine\Exception-backto-HyppoEngine\Repository\File" style="stroke:#181818;stroke-width:1.0;stroke-dasharray:7.0,7.0;"/><polygon fill="#181818" points="1299.9,499.06,1305.3377,507.2717,1304.1158,501.7484,1309.6391,500.5265,1299.9,499.06" style="stroke:#181818;stroke-width:1.0;"/></g><!--SRC=[TSp13O0W343HkrF80aoXPusoG0EDQTH22aJOtfC74pY__A-8xPKTZaQ0aWvWJpXGFz4DwgF9B6sOYyMGo7EdypRVo9th2X9HshOXkxu57obvgMtVAoSeHX1__W80]--></g></svg>