<svg xmlns="http://www.w3.org/2000/svg" xmlns:xlink="http://www.w3.org/1999/xlink" contentStyleType="text/css" height="371px" preserveAspectRatio="none" style="width:2501px;height:371px;background:#FFFFFF;" version="1.1" viewBox="0 0 2501 371" width="2501px" zoomAndPan="magnify"><defs/><g><!--cluster HyppoEngine\DTO--><g id="cluster_HyppoEngine\DTO"><path d="M1379,6 L1521,6 A3.75,3.75 0 0 1 1523.5,8.5 L1530.5,28.2969 L1626,28.2969 A2.5,2.5 0 0 1 1628.5,30.7969 L1628.5,169.5 A2.5,2.5 0 0 1 1626,172 L1379,172 A2.5,2.5 0 0 1 1376.5,169.5 L1376.5,8.5 A2.5,2.5 0 0 1 1379,6 " fill="none" style="stroke:#000000;stroke-width:1.5;"/><line style="stroke:#000000;stroke-width:1.5;" x1="1376.5" x2="1530.5" y1="28.2969" y2="28.2969"/><text fill="#000000" font-family="sans-serif" font-size="14" font-weight="bold" lengthAdjust="spacing" textLength="141" x="1380.5" y="20.9951">HyppoEngine\DTO</text></g><!--cluster HyppoEngine\Document--><g id="cluster_HyppoEngine\Document"><path d="M1403,49 L1592,49 A3.75,3.75 0 0 1 1594.5,51.5 L1601.5,71.2969 L1602,71.2969 A2.5,2.5 0 0 1 1604.5,73.7969 L1604.5,145.5 A2.5,2.5 0 0 1 1602,148 L1403,148 A2.5,2.5 0 0 1 1400.5,145.5 L1400.5,51.5 A2.5,2.5 0 0 1 1403,49 " fill="none" style="stroke:#000000;stroke-width:1.5;"/><line style="stroke:#000000;stroke-width:1.5;" x1="1400.5" x2="1601.5" y1="71.2969" y2="71.2969"/><text fill="#000000" font-family="sans-serif" font-size="14" font-weight="bold" lengthAdjust="spacing" textLength="188" x="1404.5" y="63.9951">HyppoEngine\Document</text></g><!--cluster HyppoEngine\Document--><g id="cluster_HyppoEngine\Document"><path d="M1655,49 L1844,49 A3.75,3.75 0 0 1 1846.5,51.5 L1853.5,71.2969 L1854,71.2969 A2.5,2.5 0 0 1 1856.5,73.7969 L1856.5,145.5 A2.5,2.5 0 0 1 1854,148 L1655,148 A2.5,2.5 0 0 1 1652.5,145.5 L1652.5,51.5 A2.5,2.5 0 0 1 1655,49 " fill="none" style="stroke:#000000;stroke-width:1.5;"/><line style="stroke:#000000;stroke-width:1.5;" x1="1652.5" x2="1853.5" y1="71.2969" y2="71.2969"/><text fill="#000000" font-family="sans-serif" font-size="14" font-weight="bold" lengthAdjust="spacing" textLength="188" x="1656.5" y="63.9951">HyppoEngine\Document</text></g><!--cluster HyppoEngine\Exception--><g id="cluster_HyppoEngine\Exception"><path d="M387,49 L573,49 A3.75,3.75 0 0 1 575.5,51.5 L582.5,71.2969 L941,71.2969 A2.5,2.5 0 0 1 943.5,73.7969 L943.5,361.5 A2.5,2.5 0 0 1 941,364 L387,364 A2.5,2.5 0 0 1 384.5,361.5 L384.5,51.5 A2.5,2.5 0 0 1 387,49 " fill="none" style="stroke:#000000;stroke-width:1.5;"/><line style="stroke:#000000;stroke-width:1.5;" x1="384.5" x2="582.5" y1="71.2969" y2="71.2969"/><text fill="#000000" font-family="sans-serif" font-size="14" font-weight="bold" lengthAdjust="spacing" textLength="185" x="388.5" y="63.9951">HyppoEngine\Exception</text></g><!--cluster HyppoEngine\Parser--><g id="cluster_HyppoEngine\Parser"><path d="M1883,49 L2044,49 A3.75,3.75 0 0 1 2046.5,51.5 L2053.5,71.2969 L2054,71.2969 A2.5,2.5 0 0 1 2056.5,73.7969 L2056.5,145.5 A2.5,2.5 0 0 1 2054,148 L1883,148 A2.5,2.5 0 0 1 1880.5,145.5 L1880.5,51.5 A2.5,2.5 0 0 1 1883,49 " fill="none" style="stroke:#000000;stroke-width:1.5;"/><line style="stroke:#000000;stroke-width:1.5;" x1="1880.5" x2="2053.5" y1="71.2969" y2="71.2969"/><text fill="#000000" font-family="sans-serif" font-size="14" font-weight="bold" lengthAdjust="spacing" textLength="160" x="1884.5" y="63.9951">HyppoEngine\Parser</text></g><!--cluster HyppoEngine\Render--><g id="cluster_HyppoEngine\Render"><path d="M2083,49 L2249,49 A3.75,3.75 0 0 1 2251.5,51.5 L2258.5,71.2969 L2259,71.2969 A2.5,2.5 0 0 1 2261.5,73.7969 L2261.5,145.5 A2.5,2.5 0 0 1 2259,148 L2083,148 A2.5,2.5 0 0 1 2080.5,145.5 L2080.5,51.5 A2.5,2.5 0 0 1 2083,49 " fill="none" style="stroke:#000000;stroke-width:1.5;"/><line style="stroke:#000000;stroke-width:1.5;" x1="2080.5" x2="2258.5" y1="71.2969" y2="71.2969"/><text fill="#000000" font-family="sans-serif" font-size="14" font-weight="bold" lengthAdjust="spacing" textLength="165" x="2084.5" y="63.9951">HyppoEngine\Render</text></g><!--cluster HyppoEngine\Repository--><g id="cluster_HyppoEngine\Repository"><path d="M2288,49 L2482,49 A3.75,3.75 0 0 1 2484.5,51.5 L2491.5,71.2969 L2492,71.2969 A2.5,2.5 0 0 1 2494.5,73.7969 L2494.5,145.5 A2.5,2.5 0 0 1 2492,148 L2288,148 A2.5,2.5 0 0 1 2285.5,145.5 L2285.5,51.5 A2.5,2.5 0 0 1 2288,49 " fill="none" style="stroke:#000000;stroke-width:1.5;"/><line style="stroke:#000000;stroke-width:1.5;" x1="2285.5" x2="2491.5" y1="71.2969" y2="71.2969"/><text fill="#000000" font-family="sans-serif" font-size="14" font-weight="bold" lengthAdjust="spacing" textLength="193" x="2289.5" y="63.9951">HyppoEngine\Repository</text></g><!--cluster HyppoEngine\Trait--><g id="cluster_HyppoEngine\Trait"><path d="M970,6 L1115,6 A3.75,3.75 0 0 1 1117.5,8.5 L1124.5,28.2969 L1350,28.2969 A2.5,2.5 0 0 1 1352.5,30.7969 L1352.5,277.5 A2.5,2.5 0 0 1 1350,280 L970,280 A2.5,2.5 0 0 1 967.5,277.5 L967.5,8.5 A2.5,2.5 0 0 1 970,6 " fill="none" style="stroke:#000000;stroke-width:1.5;"/><line style="stroke:#000000;stroke-width:1.5;" x1="967.5" x2="1124.5" y1="28.2969" y2="28.2969"/><text fill="#000000" font-family="sans-serif" font-size="14" font-weight="bold" lengthAdjust="spacing" textLength="144" x="971.5" y="20.9951">HyppoEngine\Trait</text></g><!--cluster HyppoEngine\Pattern--><g id="cluster_HyppoEngine\Pattern"><path d="M1094,49 L1261,49 A3.75,3.75 0 0 1 1263.5,51.5 L1270.5,71.2969 L1326,71.2969 A2.5,2.5 0 0 1 1328.5,73.7969 L1328.5,253.5 A2.5,2.5 0 0 1 1326,256 L1094,256 A2.5,2.5 0 0 1 1091.5,253.5 L1091.5,51.5 A2.5,2.5 0 0 1 1094,49 " fill="none" style="stroke:#000000;stroke-width:1.5;"/><line style="stroke:#000000;stroke-width:1.5;" x1="1091.5" x2="1270.5" y1="71.2969" y2="71.2969"/><text fill="#000000" font-family="sans-serif" font-size="14" font-weight="bold" lengthAdjust="spacing" textLength="166" x="1095.5" y="63.9951">HyppoEngine\Pattern</text></g><!--class Article--><g id="elem_Article"><rect codeLine="6" fill="#F1F1F1" height="48" id="Article" rx="2.5" ry="2.5" style="stroke:#181818;stroke-width:0.5;" width="74" x="1465.5" y="84"/><ellipse cx="1480.5" cy="100" fill="#ADD1B2" rx="11" ry="11" style="stroke:#181818;stroke-width:1.0;"/><path d="M1483.4688,105.6406 Q1482.8906,105.9375 1482.25,106.0781 Q1481.6094,106.2344 1480.9063,106.2344 Q1478.4063,106.2344 1477.0781,104.5938 Q1475.7656,102.9375 1475.7656,99.8125 Q1475.7656,96.6875 1477.0781,95.0313 Q1478.4063,93.375 1480.9063,93.375 Q1481.6094,93.375 1482.25,93.5313 Q1482.9063,93.6875 1483.4688,93.9844 L1483.4688,96.7031 Q1482.8438,96.125 1482.25,95.8594 Q1481.6563,95.5781 1481.0313,95.5781 Q1479.6875,95.5781 1479,96.6563 Q1478.3125,97.7188 1478.3125,99.8125 Q1478.3125,101.9063 1479,102.9844 Q1479.6875,104.0469 1481.0313,104.0469 Q1481.6563,104.0469 1482.25,103.7813 Q1482.8438,103.5 1483.4688,102.9219 L1483.4688,105.6406 Z " fill="#000000"/><text fill="#000000" font-family="sans-serif" font-size="14" lengthAdjust="spacing" textLength="42" x="1494.5" y="104.8467">Article</text><line style="stroke:#181818;stroke-width:0.5;" x1="1466.5" x2="1538.5" y1="116" y2="116"/><line style="stroke:#181818;stroke-width:0.5;" x1="1466.5" x2="1538.5" y1="124" y2="124"/></g><!--class Article--><g id="elem_Article"><rect codeLine="14" fill="#F1F1F1" height="48" id="Article" rx="2.5" ry="2.5" style="stroke:#181818;stroke-width:0.5;" width="74" x="1717.5" y="84"/><ellipse cx="1732.5" cy="100" fill="#ADD1B2" rx="11" ry="11" style="stroke:#181818;stroke-width:1.0;"/><path d="M1735.4688,105.6406 Q1734.8906,105.9375 1734.25,106.0781 Q1733.6094,106.2344 1732.9063,106.2344 Q1730.4063,106.2344 1729.0781,104.5938 Q1727.7656,102.9375 1727.7656,99.8125 Q1727.7656,96.6875 1729.0781,95.0313 Q1730.4063,93.375 1732.9063,93.375 Q1733.6094,93.375 1734.25,93.5313 Q1734.9063,93.6875 1735.4688,93.9844 L1735.4688,96.7031 Q1734.8438,96.125 1734.25,95.8594 Q1733.6563,95.5781 1733.0313,95.5781 Q1731.6875,95.5781 1731,96.6563 Q1730.3125,97.7188 1730.3125,99.8125 Q1730.3125,101.9063 1731,102.9844 Q1731.6875,104.0469 1733.0313,104.0469 Q1733.6563,104.0469 1734.25,103.7813 Q1734.8438,103.5 1735.4688,102.9219 L1735.4688,105.6406 Z " fill="#000000"/><text fill="#000000" font-family="sans-serif" font-size="14" lengthAdjust="spacing" textLength="42" x="1746.5" y="104.8467">Article</text><line style="stroke:#181818;stroke-width:0.5;" x1="1718.5" x2="1790.5" y1="116" y2="116"/><line style="stroke:#181818;stroke-width:0.5;" x1="1718.5" x2="1790.5" y1="124" y2="124"/></g><!--class AccessDenied--><g id="elem_AccessDenied"><rect codeLine="21" fill="#F1F1F1" height="48" id="AccessDenied" rx="2.5" ry="2.5" style="stroke:#181818;stroke-width:0.5;" width="132" x="408.5" y="84"/><ellipse cx="423.5" cy="100" fill="#ADD1B2" rx="11" ry="11" style="stroke:#181818;stroke-width:1.0;"/><path d="M426.4688,105.6406 Q425.8906,105.9375 425.25,106.0781 Q424.6094,106.2344 423.9063,106.2344 Q421.4063,106.2344 420.0781,104.5938 Q418.7656,102.9375 418.7656,99.8125 Q418.7656,96.6875 420.0781,95.0313 Q421.4063,93.375 423.9063,93.375 Q424.6094,93.375 425.25,93.5313 Q425.9063,93.6875 426.4688,93.9844 L426.4688,96.7031 Q425.8438,96.125 425.25,95.8594 Q424.6563,95.5781 424.0313,95.5781 Q422.6875,95.5781 422,96.6563 Q421.3125,97.7188 421.3125,99.8125 Q421.3125,101.9063 422,102.9844 Q422.6875,104.0469 424.0313,104.0469 Q424.6563,104.0469 425.25,103.7813 Q425.8438,103.5 426.4688,102.9219 L426.4688,105.6406 Z " fill="#000000"/><text fill="#000000" font-family="sans-serif" font-size="14" lengthAdjust="spacing" textLength="100" x="437.5" y="104.8467">AccessDenied</text><line style="stroke:#181818;stroke-width:0.5;" x1="409.5" x2="539.5" y1="116" y2="116"/><line style="stroke:#181818;stroke-width:0.5;" x1="409.5" x2="539.5" y1="124" y2="124"/></g><!--class FileNotFound--><g id="elem_FileNotFound"><rect codeLine="23" fill="#F1F1F1" height="48" id="FileNotFound" rx="2.5" ry="2.5" style="stroke:#181818;stroke-width:0.5;" width="123" x="576" y="84"/><ellipse cx="591" cy="100" fill="#ADD1B2" rx="11" ry="11" style="stroke:#181818;stroke-width:1.0;"/><path d="M593.9688,105.6406 Q593.3906,105.9375 592.75,106.0781 Q592.1094,106.2344 591.4063,106.2344 Q588.9063,106.2344 587.5781,104.5938 Q586.2656,102.9375 586.2656,99.8125 Q586.2656,96.6875 587.5781,95.0313 Q588.9063,93.375 591.4063,93.375 Q592.1094,93.375 592.75,93.5313 Q593.4063,93.6875 593.9688,93.9844 L593.9688,96.7031 Q593.3438,96.125 592.75,95.8594 Q592.1563,95.5781 591.5313,95.5781 Q590.1875,95.5781 589.5,96.6563 Q588.8125,97.7188 588.8125,99.8125 Q588.8125,101.9063 589.5,102.9844 Q590.1875,104.0469 591.5313,104.0469 Q592.1563,104.0469 592.75,103.7813 Q593.3438,103.5 593.9688,102.9219 L593.9688,105.6406 Z " fill="#000000"/><text fill="#000000" font-family="sans-serif" font-size="14" lengthAdjust="spacing" textLength="91" x="605" y="104.8467">FileNotFound</text><line style="stroke:#181818;stroke-width:0.5;" x1="577" x2="698" y1="116" y2="116"/><line style="stroke:#181818;stroke-width:0.5;" x1="577" x2="698" y1="124" y2="124"/></g><!--class ParserNotExists--><g id="elem_ParserNotExists"><rect codeLine="25" fill="#F1F1F1" height="48" id="ParserNotExists" rx="2.5" ry="2.5" style="stroke:#181818;stroke-width:0.5;" width="140" x="734.5" y="84"/><ellipse cx="749.5" cy="100" fill="#ADD1B2" rx="11" ry="11" style="stroke:#181818;stroke-width:1.0;"/><path d="M752.4688,105.6406 Q751.8906,105.9375 751.25,106.0781 Q750.6094,106.2344 749.9063,106.2344 Q747.4063,106.2344 746.0781,104.5938 Q744.7656,102.9375 744.7656,99.8125 Q744.7656,96.6875 746.0781,95.0313 Q747.4063,93.375 749.9063,93.375 Q750.6094,93.375 751.25,93.5313 Q751.9063,93.6875 752.4688,93.9844 L752.4688,96.7031 Q751.8438,96.125 751.25,95.8594 Q750.6563,95.5781 750.0313,95.5781 Q748.6875,95.5781 748,96.6563 Q747.3125,97.7188 747.3125,99.8125 Q747.3125,101.9063 748,102.9844 Q748.6875,104.0469 750.0313,104.0469 Q750.6563,104.0469 751.25,103.7813 Q751.8438,103.5 752.4688,102.9219 L752.4688,105.6406 Z " fill="#000000"/><text fill="#000000" font-family="sans-serif" font-size="14" lengthAdjust="spacing" textLength="108" x="763.5" y="104.8467">ParserNotExists</text><line style="stroke:#181818;stroke-width:0.5;" x1="735.5" x2="873.5" y1="116" y2="116"/><line style="stroke:#181818;stroke-width:0.5;" x1="735.5" x2="873.5" y1="124" y2="124"/></g><!--class RenderNotExists--><g id="elem_RenderNotExists"><rect codeLine="27" fill="#F1F1F1" height="48" id="RenderNotExists" rx="2.5" ry="2.5" style="stroke:#181818;stroke-width:0.5;" width="147" x="401" y="192"/><ellipse cx="416" cy="208" fill="#ADD1B2" rx="11" ry="11" style="stroke:#181818;stroke-width:1.0;"/><path d="M418.9688,213.6406 Q418.3906,213.9375 417.75,214.0781 Q417.1094,214.2344 416.4063,214.2344 Q413.9063,214.2344 412.5781,212.5938 Q411.2656,210.9375 411.2656,207.8125 Q411.2656,204.6875 412.5781,203.0313 Q413.9063,201.375 416.4063,201.375 Q417.1094,201.375 417.75,201.5313 Q418.4063,201.6875 418.9688,201.9844 L418.9688,204.7031 Q418.3438,204.125 417.75,203.8594 Q417.1563,203.5781 416.5313,203.5781 Q415.1875,203.5781 414.5,204.6563 Q413.8125,205.7188 413.8125,207.8125 Q413.8125,209.9063 414.5,210.9844 Q415.1875,212.0469 416.5313,212.0469 Q417.1563,212.0469 417.75,211.7813 Q418.3438,211.5 418.9688,210.9219 L418.9688,213.6406 Z " fill="#000000"/><text fill="#000000" font-family="sans-serif" font-size="14" lengthAdjust="spacing" textLength="115" x="430" y="212.8467">RenderNotExists</text><line style="stroke:#181818;stroke-width:0.5;" x1="402" x2="547" y1="224" y2="224"/><line style="stroke:#181818;stroke-width:0.5;" x1="402" x2="547" y1="232" y2="232"/></g><!--class RepositoryError--><g id="elem_RepositoryError"><rect codeLine="29" fill="#F1F1F1" height="48" id="RepositoryError" rx="2.5" ry="2.5" style="stroke:#181818;stroke-width:0.5;" width="139" x="583" y="192"/><ellipse cx="598" cy="208" fill="#ADD1B2" rx="11" ry="11" style="stroke:#181818;stroke-width:1.0;"/><path d="M600.9688,213.6406 Q600.3906,213.9375 599.75,214.0781 Q599.1094,214.2344 598.4063,214.2344 Q595.9063,214.2344 594.5781,212.5938 Q593.2656,210.9375 593.2656,207.8125 Q593.2656,204.6875 594.5781,203.0313 Q595.9063,201.375 598.4063,201.375 Q599.1094,201.375 599.75,201.5313 Q600.4063,201.6875 600.9688,201.9844 L600.9688,204.7031 Q600.3438,204.125 599.75,203.8594 Q599.1563,203.5781 598.5313,203.5781 Q597.1875,203.5781 596.5,204.6563 Q595.8125,205.7188 595.8125,207.8125 Q595.8125,209.9063 596.5,210.9844 Q597.1875,212.0469 598.5313,212.0469 Q599.1563,212.0469 599.75,211.7813 Q600.3438,211.5 600.9688,210.9219 L600.9688,213.6406 Z " fill="#000000"/><text fill="#000000" font-family="sans-serif" font-size="14" lengthAdjust="spacing" textLength="107" x="612" y="212.8467">RepositoryError</text><line style="stroke:#181818;stroke-width:0.5;" x1="584" x2="721" y1="224" y2="224"/><line style="stroke:#181818;stroke-width:0.5;" x1="584" x2="721" y1="232" y2="232"/></g><!--class RepositoryNotExists--><g id="elem_RepositoryNotExists"><rect codeLine="31" fill="#F1F1F1" height="48" id="RepositoryNotExists" rx="2.5" ry="2.5" style="stroke:#181818;stroke-width:0.5;" width="170" x="757.5" y="192"/><ellipse cx="772.5" cy="208" fill="#ADD1B2" rx="11" ry="11" style="stroke:#181818;stroke-width:1.0;"/><path d="M775.4688,213.6406 Q774.8906,213.9375 774.25,214.0781 Q773.6094,214.2344 772.9063,214.2344 Q770.4063,214.2344 769.0781,212.5938 Q767.7656,210.9375 767.7656,207.8125 Q767.7656,204.6875 769.0781,203.0313 Q770.4063,201.375 772.9063,201.375 Q773.6094,201.375 774.25,201.5313 Q774.9063,201.6875 775.4688,201.9844 L775.4688,204.7031 Q774.8438,204.125 774.25,203.8594 Q773.6563,203.5781 773.0313,203.5781 Q771.6875,203.5781 771,204.6563 Q770.3125,205.7188 770.3125,207.8125 Q770.3125,209.9063 771,210.9844 Q771.6875,212.0469 773.0313,212.0469 Q773.6563,212.0469 774.25,211.7813 Q774.8438,211.5 775.4688,210.9219 L775.4688,213.6406 Z " fill="#000000"/><text fill="#000000" font-family="sans-serif" font-size="14" lengthAdjust="spacing" textLength="138" x="786.5" y="212.8467">RepositoryNotExists</text><line style="stroke:#181818;stroke-width:0.5;" x1="758.5" x2="926.5" y1="224" y2="224"/><line style="stroke:#181818;stroke-width:0.5;" x1="758.5" x2="926.5" y1="232" y2="232"/></g><!--class SyntaxTreeNotExists--><g id="elem_SyntaxTreeNotExists"><rect codeLine="33" fill="#F1F1F1" height="48" id="SyntaxTreeNotExists" rx="2.5" ry="2.5" style="stroke:#181818;stroke-width:0.5;" width="173" x="401" y="300"/><ellipse cx="416" cy="316" fill="#ADD1B2" rx="11" ry="11" style="stroke:#181818;stroke-width:1.0;"/><path d="M418.9688,321.6406 Q418.3906,321.9375 417.75,322.0781 Q417.1094,322.2344 416.4063,322.2344 Q413.9063,322.2344 412.5781,320.5938 Q411.2656,318.9375 411.2656,315.8125 Q411.2656,312.6875 412.5781,311.0313 Q413.9063,309.375 416.4063,309.375 Q417.1094,309.375 417.75,309.5313 Q418.4063,309.6875 418.9688,309.9844 L418.9688,312.7031 Q418.3438,312.125 417.75,311.8594 Q417.1563,311.5781 416.5313,311.5781 Q415.1875,311.5781 414.5,312.6563 Q413.8125,313.7188 413.8125,315.8125 Q413.8125,317.9063 414.5,318.9844 Q415.1875,320.0469 416.5313,320.0469 Q417.1563,320.0469 417.75,319.7813 Q418.3438,319.5 418.9688,318.9219 L418.9688,321.6406 Z " fill="#000000"/><text fill="#000000" font-family="sans-serif" font-size="14" lengthAdjust="spacing" textLength="141" x="430" y="320.8467">SyntaxTreeNotExists</text><line style="stroke:#181818;stroke-width:0.5;" x1="402" x2="573" y1="332" y2="332"/><line style="stroke:#181818;stroke-width:0.5;" x1="402" x2="573" y1="340" y2="340"/></g><!--class Markdown--><g id="elem_Markdown"><rect codeLine="40" fill="#F1F1F1" height="48" id="Markdown" rx="2.5" ry="2.5" style="stroke:#181818;stroke-width:0.5;" width="103" x="1917" y="84"/><ellipse cx="1932" cy="100" fill="#ADD1B2" rx="11" ry="11" style="stroke:#181818;stroke-width:1.0;"/><path d="M1934.9688,105.6406 Q1934.3906,105.9375 1933.75,106.0781 Q1933.1094,106.2344 1932.4063,106.2344 Q1929.9063,106.2344 1928.5781,104.5938 Q1927.2656,102.9375 1927.2656,99.8125 Q1927.2656,96.6875 1928.5781,95.0313 Q1929.9063,93.375 1932.4063,93.375 Q1933.1094,93.375 1933.75,93.5313 Q1934.4063,93.6875 1934.9688,93.9844 L1934.9688,96.7031 Q1934.3438,96.125 1933.75,95.8594 Q1933.1563,95.5781 1932.5313,95.5781 Q1931.1875,95.5781 1930.5,96.6563 Q1929.8125,97.7188 1929.8125,99.8125 Q1929.8125,101.9063 1930.5,102.9844 Q1931.1875,104.0469 1932.5313,104.0469 Q1933.1563,104.0469 1933.75,103.7813 Q1934.3438,103.5 1934.9688,102.9219 L1934.9688,105.6406 Z " fill="#000000"/><text fill="#000000" font-family="sans-serif" font-size="14" lengthAdjust="spacing" textLength="71" x="1946" y="104.8467">Markdown</text><line style="stroke:#181818;stroke-width:0.5;" x1="1918" x2="2019" y1="116" y2="116"/><line style="stroke:#181818;stroke-width:0.5;" x1="1918" x2="2019" y1="124" y2="124"/></g><!--class Html--><g id="elem_Html"><rect codeLine="48" fill="#F1F1F1" height="48" id="Html" rx="2.5" ry="2.5" style="stroke:#181818;stroke-width:0.5;" width="63" x="2139" y="84"/><ellipse cx="2154" cy="100" fill="#ADD1B2" rx="11" ry="11" style="stroke:#181818;stroke-width:1.0;"/><path d="M2156.9688,105.6406 Q2156.3906,105.9375 2155.75,106.0781 Q2155.1094,106.2344 2154.4063,106.2344 Q2151.9063,106.2344 2150.5781,104.5938 Q2149.2656,102.9375 2149.2656,99.8125 Q2149.2656,96.6875 2150.5781,95.0313 Q2151.9063,93.375 2154.4063,93.375 Q2155.1094,93.375 2155.75,93.5313 Q2156.4063,93.6875 2156.9688,93.9844 L2156.9688,96.7031 Q2156.3438,96.125 2155.75,95.8594 Q2155.1563,95.5781 2154.5313,95.5781 Q2153.1875,95.5781 2152.5,96.6563 Q2151.8125,97.7188 2151.8125,99.8125 Q2151.8125,101.9063 2152.5,102.9844 Q2153.1875,104.0469 2154.5313,104.0469 Q2155.1563,104.0469 2155.75,103.7813 Q2156.3438,103.5 2156.9688,102.9219 L2156.9688,105.6406 Z " fill="#000000"/><text fill="#000000" font-family="sans-serif" font-size="14" lengthAdjust="spacing" textLength="31" x="2168" y="104.8467">Html</text><line style="stroke:#181818;stroke-width:0.5;" x1="2140" x2="2201" y1="116" y2="116"/><line style="stroke:#181818;stroke-width:0.5;" x1="2140" x2="2201" y1="124" y2="124"/></g><!--class file--><g id="elem_file"><rect codeLine="57" fill="#F1F1F1" height="48" id="file" rx="2.5" ry="2.5" style="stroke:#181818;stroke-width:0.5;" width="51" x="2364" y="84"/><ellipse cx="2379" cy="100" fill="#ADD1B2" rx="11" ry="11" style="stroke:#181818;stroke-width:1.0;"/><path d="M2381.9688,105.6406 Q2381.3906,105.9375 2380.75,106.0781 Q2380.1094,106.2344 2379.4063,106.2344 Q2376.9063,106.2344 2375.5781,104.5938 Q2374.2656,102.9375 2374.2656,99.8125 Q2374.2656,96.6875 2375.5781,95.0313 Q2376.9063,93.375 2379.4063,93.375 Q2380.1094,93.375 2380.75,93.5313 Q2381.4063,93.6875 2381.9688,93.9844 L2381.9688,96.7031 Q2381.3438,96.125 2380.75,95.8594 Q2380.1563,95.5781 2379.5313,95.5781 Q2378.1875,95.5781 2377.5,96.6563 Q2376.8125,97.7188 2376.8125,99.8125 Q2376.8125,101.9063 2377.5,102.9844 Q2378.1875,104.0469 2379.5313,104.0469 Q2380.1563,104.0469 2380.75,103.7813 Q2381.3438,103.5 2381.9688,102.9219 L2381.9688,105.6406 Z " fill="#000000"/><text fill="#000000" font-family="sans-serif" font-size="14" lengthAdjust="spacing" textLength="19" x="2393" y="104.8467">file</text><line style="stroke:#181818;stroke-width:0.5;" x1="2365" x2="2414" y1="116" y2="116"/><line style="stroke:#181818;stroke-width:0.5;" x1="2365" x2="2414" y1="124" y2="124"/></g><!--class Attribute--><g id="elem_Attribute"><rect codeLine="72" fill="#F1F1F1" height="48" id="Attribute" rx="2.5" ry="2.5" style="stroke:#181818;stroke-width:0.5;" width="91" x="984" y="84"/><ellipse cx="999" cy="100" fill="#ADD1B2" rx="11" ry="11" style="stroke:#181818;stroke-width:1.0;"/><path d="M1001.9688,105.6406 Q1001.3906,105.9375 1000.75,106.0781 Q1000.1094,106.2344 999.4063,106.2344 Q996.9063,106.2344 995.5781,104.5938 Q994.2656,102.9375 994.2656,99.8125 Q994.2656,96.6875 995.5781,95.0313 Q996.9063,93.375 999.4063,93.375 Q1000.1094,93.375 1000.75,93.5313 Q1001.4063,93.6875 1001.9688,93.9844 L1001.9688,96.7031 Q1001.3438,96.125 1000.75,95.8594 Q1000.1563,95.5781 999.5313,95.5781 Q998.1875,95.5781 997.5,96.6563 Q996.8125,97.7188 996.8125,99.8125 Q996.8125,101.9063 997.5,102.9844 Q998.1875,104.0469 999.5313,104.0469 Q1000.1563,104.0469 1000.75,103.7813 Q1001.3438,103.5 1001.9688,102.9219 L1001.9688,105.6406 Z " fill="#000000"/><text fill="#000000" font-family="sans-serif" font-size="14" lengthAdjust="spacing" textLength="59" x="1013" y="104.8467">Attribute</text><line style="stroke:#181818;stroke-width:0.5;" x1="985" x2="1074" y1="116" y2="116"/><line style="stroke:#181818;stroke-width:0.5;" x1="985" x2="1074" y1="124" y2="124"/></g><!--class Builder--><g id="elem_Builder"><rect codeLine="62" fill="#F1F1F1" height="48" id="Builder" rx="2.5" ry="2.5" style="stroke:#181818;stroke-width:0.5;" width="80" x="1110.5" y="84"/><ellipse cx="1125.5" cy="100" fill="#ADD1B2" rx="11" ry="11" style="stroke:#181818;stroke-width:1.0;"/><path d="M1128.4688,105.6406 Q1127.8906,105.9375 1127.25,106.0781 Q1126.6094,106.2344 1125.9063,106.2344 Q1123.4063,106.2344 1122.0781,104.5938 Q1120.7656,102.9375 1120.7656,99.8125 Q1120.7656,96.6875 1122.0781,95.0313 Q1123.4063,93.375 1125.9063,93.375 Q1126.6094,93.375 1127.25,93.5313 Q1127.9063,93.6875 1128.4688,93.9844 L1128.4688,96.7031 Q1127.8438,96.125 1127.25,95.8594 Q1126.6563,95.5781 1126.0313,95.5781 Q1124.6875,95.5781 1124,96.6563 Q1123.3125,97.7188 1123.3125,99.8125 Q1123.3125,101.9063 1124,102.9844 Q1124.6875,104.0469 1126.0313,104.0469 Q1126.6563,104.0469 1127.25,103.7813 Q1127.8438,103.5 1128.4688,102.9219 L1128.4688,105.6406 Z " fill="#000000"/><text fill="#000000" font-family="sans-serif" font-size="14" lengthAdjust="spacing" textLength="48" x="1139.5" y="104.8467">Builder</text><line style="stroke:#181818;stroke-width:0.5;" x1="1111.5" x2="1189.5" y1="116" y2="116"/><line style="stroke:#181818;stroke-width:0.5;" x1="1111.5" x2="1189.5" y1="124" y2="124"/></g><!--class Factory--><g id="elem_Factory"><rect codeLine="65" fill="#F1F1F1" height="48" id="Factory" rx="2.5" ry="2.5" style="stroke:#181818;stroke-width:0.5;" width="82" x="1225.5" y="84"/><ellipse cx="1240.5" cy="100" fill="#ADD1B2" rx="11" ry="11" style="stroke:#181818;stroke-width:1.0;"/><path d="M1243.4688,105.6406 Q1242.8906,105.9375 1242.25,106.0781 Q1241.6094,106.2344 1240.9063,106.2344 Q1238.4063,106.2344 1237.0781,104.5938 Q1235.7656,102.9375 1235.7656,99.8125 Q1235.7656,96.6875 1237.0781,95.0313 Q1238.4063,93.375 1240.9063,93.375 Q1241.6094,93.375 1242.25,93.5313 Q1242.9063,93.6875 1243.4688,93.9844 L1243.4688,96.7031 Q1242.8438,96.125 1242.25,95.8594 Q1241.6563,95.5781 1241.0313,95.5781 Q1239.6875,95.5781 1239,96.6563 Q1238.3125,97.7188 1238.3125,99.8125 Q1238.3125,101.9063 1239,102.9844 Q1239.6875,104.0469 1241.0313,104.0469 Q1241.6563,104.0469 1242.25,103.7813 Q1242.8438,103.5 1243.4688,102.9219 L1243.4688,105.6406 Z " fill="#000000"/><text fill="#000000" font-family="sans-serif" font-size="14" lengthAdjust="spacing" textLength="50" x="1254.5" y="104.8467">Factory</text><line style="stroke:#181818;stroke-width:0.5;" x1="1226.5" x2="1306.5" y1="116" y2="116"/><line style="stroke:#181818;stroke-width:0.5;" x1="1226.5" x2="1306.5" y1="124" y2="124"/></g><!--class DTO--><g id="elem_DTO"><rect codeLine="67" fill="#F1F1F1" height="48" id="DTO" rx="2.5" ry="2.5" style="stroke:#181818;stroke-width:0.5;" width="63" x="1108" y="192"/><ellipse cx="1123" cy="208" fill="#ADD1B2" rx="11" ry="11" style="stroke:#181818;stroke-width:1.0;"/><path d="M1125.9688,213.6406 Q1125.3906,213.9375 1124.75,214.0781 Q1124.1094,214.2344 1123.4063,214.2344 Q1120.9063,214.2344 1119.5781,212.5938 Q1118.2656,210.9375 1118.2656,207.8125 Q1118.2656,204.6875 1119.5781,203.0313 Q1120.9063,201.375 1123.4063,201.375 Q1124.1094,201.375 1124.75,201.5313 Q1125.4063,201.6875 1125.9688,201.9844 L1125.9688,204.7031 Q1125.3438,204.125 1124.75,203.8594 Q1124.1563,203.5781 1123.5313,203.5781 Q1122.1875,203.5781 1121.5,204.6563 Q1120.8125,205.7188 1120.8125,207.8125 Q1120.8125,209.9063 1121.5,210.9844 Q1122.1875,212.0469 1123.5313,212.0469 Q1124.1563,212.0469 1124.75,211.7813 Q1125.3438,211.5 1125.9688,210.9219 L1125.9688,213.6406 Z " fill="#000000"/><text fill="#000000" font-family="sans-serif" font-size="14" lengthAdjust="spacing" textLength="31" x="1137" y="212.8467">DTO</text><line style="stroke:#181818;stroke-width:0.5;" x1="1109" x2="1170" y1="224" y2="224"/><line style="stroke:#181818;stroke-width:0.5;" x1="1109" x2="1170" y1="232" y2="232"/></g><!--class Repository--><g id="elem_Repository"><rect codeLine="69" fill="#F1F1F1" height="48" id="Repository" rx="2.5" ry="2.5" style="stroke:#181818;stroke-width:0.5;" width="106" x="1206.5" y="192"/><ellipse cx="1221.5" cy="208" fill="#ADD1B2" rx="11" ry="11" style="stroke:#181818;stroke-width:1.0;"/><path d="M1224.4688,213.6406 Q1223.8906,213.9375 1223.25,214.0781 Q1222.6094,214.2344 1221.9063,214.2344 Q1219.4063,214.2344 1218.0781,212.5938 Q1216.7656,210.9375 1216.7656,207.8125 Q1216.7656,204.6875 1218.0781,203.0313 Q1219.4063,201.375 1221.9063,201.375 Q1222.6094,201.375 1223.25,201.5313 Q1223.9063,201.6875 1224.4688,201.9844 L1224.4688,204.7031 Q1223.8438,204.125 1223.25,203.8594 Q1222.6563,203.5781 1222.0313,203.5781 Q1220.6875,203.5781 1220,204.6563 Q1219.3125,205.7188 1219.3125,207.8125 Q1219.3125,209.9063 1220,210.9844 Q1220.6875,212.0469 1222.0313,212.0469 Q1222.6563,212.0469 1223.25,211.7813 Q1223.8438,211.5 1224.4688,210.9219 L1224.4688,213.6406 Z " fill="#000000"/><text fill="#000000" font-family="sans-serif" font-size="14" lengthAdjust="spacing" textLength="74" x="1235.5" y="212.8467">Repository</text><line style="stroke:#181818;stroke-width:0.5;" x1="1207.5" x2="1311.5" y1="224" y2="224"/><line style="stroke:#181818;stroke-width:0.5;" x1="1207.5" x2="1311.5" y1="232" y2="232"/></g><!--class DTO--><g id="elem_DTO"><rect codeLine="2" fill="#F1F1F1" height="48" id="DTO" rx="2.5" ry="2.5" style="stroke:#181818;stroke-width:0.5;" width="63" x="30" y="84"/><ellipse cx="45" cy="100" fill="#ADD1B2" rx="11" ry="11" style="stroke:#181818;stroke-width:1.0;"/><path d="M47.9688,105.6406 Q47.3906,105.9375 46.75,106.0781 Q46.1094,106.2344 45.4063,106.2344 Q42.9063,106.2344 41.5781,104.5938 Q40.2656,102.9375 40.2656,99.8125 Q40.2656,96.6875 41.5781,95.0313 Q42.9063,93.375 45.4063,93.375 Q46.1094,93.375 46.75,93.5313 Q47.4063,93.6875 47.9688,93.9844 L47.9688,96.7031 Q47.3438,96.125 46.75,95.8594 Q46.1563,95.5781 45.5313,95.5781 Q44.1875,95.5781 43.5,96.6563 Q42.8125,97.7188 42.8125,99.8125 Q42.8125,101.9063 43.5,102.9844 Q44.1875,104.0469 45.5313,104.0469 Q46.1563,104.0469 46.75,103.7813 Q47.3438,103.5 47.9688,102.9219 L47.9688,105.6406 Z " fill="#000000"/><text fill="#000000" font-family="sans-serif" font-size="14" lengthAdjust="spacing" textLength="31" x="59" y="104.8467">DTO</text><line style="stroke:#181818;stroke-width:0.5;" x1="31" x2="92" y1="116" y2="116"/><line style="stroke:#181818;stroke-width:0.5;" x1="31" x2="92" y1="124" y2="124"/></g><!--class Document--><g id="elem_Document"><rect codeLine="11" fill="#F1F1F1" height="48" id="Document" rx="2.5" ry="2.5" style="stroke:#181818;stroke-width:0.5;" width="105" x="128" y="84"/><ellipse cx="143" cy="100" fill="#ADD1B2" rx="11" ry="11" style="stroke:#181818;stroke-width:1.0;"/><path d="M145.9688,105.6406 Q145.3906,105.9375 144.75,106.0781 Q144.1094,106.2344 143.4063,106.2344 Q140.9063,106.2344 139.5781,104.5938 Q138.2656,102.9375 138.2656,99.8125 Q138.2656,96.6875 139.5781,95.0313 Q140.9063,93.375 143.4063,93.375 Q144.1094,93.375 144.75,93.5313 Q145.4063,93.6875 145.9688,93.9844 L145.9688,96.7031 Q145.3438,96.125 144.75,95.8594 Q144.1563,95.5781 143.5313,95.5781 Q142.1875,95.5781 141.5,96.6563 Q140.8125,97.7188 140.8125,99.8125 Q140.8125,101.9063 141.5,102.9844 Q142.1875,104.0469 143.5313,104.0469 Q144.1563,104.0469 144.75,103.7813 Q145.3438,103.5 145.9688,102.9219 L145.9688,105.6406 Z " fill="#000000"/><text fill="#000000" font-family="sans-serif" font-size="14" lengthAdjust="spacing" textLength="73" x="157" y="104.8467">Document</text><line style="stroke:#181818;stroke-width:0.5;" x1="129" x2="232" y1="116" y2="116"/><line style="stroke:#181818;stroke-width:0.5;" x1="129" x2="232" y1="124" y2="124"/></g><!--class Exception--><g id="elem_Exception"><rect codeLine="18" fill="#F1F1F1" height="48" id="Exception" rx="2.5" ry="2.5" style="stroke:#181818;stroke-width:0.5;" width="100" x="268.5" y="84"/><ellipse cx="283.5" cy="100" fill="#ADD1B2" rx="11" ry="11" style="stroke:#181818;stroke-width:1.0;"/><path d="M286.4688,105.6406 Q285.8906,105.9375 285.25,106.0781 Q284.6094,106.2344 283.9063,106.2344 Q281.4063,106.2344 280.0781,104.5938 Q278.7656,102.9375 278.7656,99.8125 Q278.7656,96.6875 280.0781,95.0313 Q281.4063,93.375 283.9063,93.375 Q284.6094,93.375 285.25,93.5313 Q285.9063,93.6875 286.4688,93.9844 L286.4688,96.7031 Q285.8438,96.125 285.25,95.8594 Q284.6563,95.5781 284.0313,95.5781 Q282.6875,95.5781 282,96.6563 Q281.3125,97.7188 281.3125,99.8125 Q281.3125,101.9063 282,102.9844 Q282.6875,104.0469 284.0313,104.0469 Q284.6563,104.0469 285.25,103.7813 Q285.8438,103.5 286.4688,102.9219 L286.4688,105.6406 Z " fill="#000000"/><text fill="#000000" font-family="sans-serif" font-size="14" lengthAdjust="spacing" textLength="68" x="297.5" y="104.8467">Exception</text><line style="stroke:#181818;stroke-width:0.5;" x1="269.5" x2="367.5" y1="116" y2="116"/><line style="stroke:#181818;stroke-width:0.5;" x1="269.5" x2="367.5" y1="124" y2="124"/></g><!--class Parser--><g id="elem_Parser"><rect codeLine="37" fill="#F1F1F1" height="48" id="Parser" rx="2.5" ry="2.5" style="stroke:#181818;stroke-width:0.5;" width="76" x="23.5" y="192"/><ellipse cx="38.5" cy="208" fill="#ADD1B2" rx="11" ry="11" style="stroke:#181818;stroke-width:1.0;"/><path d="M41.4688,213.6406 Q40.8906,213.9375 40.25,214.0781 Q39.6094,214.2344 38.9063,214.2344 Q36.4063,214.2344 35.0781,212.5938 Q33.7656,210.9375 33.7656,207.8125 Q33.7656,204.6875 35.0781,203.0313 Q36.4063,201.375 38.9063,201.375 Q39.6094,201.375 40.25,201.5313 Q40.9063,201.6875 41.4688,201.9844 L41.4688,204.7031 Q40.8438,204.125 40.25,203.8594 Q39.6563,203.5781 39.0313,203.5781 Q37.6875,203.5781 37,204.6563 Q36.3125,205.7188 36.3125,207.8125 Q36.3125,209.9063 37,210.9844 Q37.6875,212.0469 39.0313,212.0469 Q39.6563,212.0469 40.25,211.7813 Q40.8438,211.5 41.4688,210.9219 L41.4688,213.6406 Z " fill="#000000"/><text fill="#000000" font-family="sans-serif" font-size="14" lengthAdjust="spacing" textLength="44" x="52.5" y="212.8467">Parser</text><line style="stroke:#181818;stroke-width:0.5;" x1="24.5" x2="98.5" y1="224" y2="224"/><line style="stroke:#181818;stroke-width:0.5;" x1="24.5" x2="98.5" y1="232" y2="232"/></g><!--class Render--><g id="elem_Render"><rect codeLine="45" fill="#F1F1F1" height="48" id="Render" rx="2.5" ry="2.5" style="stroke:#181818;stroke-width:0.5;" width="83" x="135" y="192"/><ellipse cx="150" cy="208" fill="#ADD1B2" rx="11" ry="11" style="stroke:#181818;stroke-width:1.0;"/><path d="M152.9688,213.6406 Q152.3906,213.9375 151.75,214.0781 Q151.1094,214.2344 150.4063,214.2344 Q147.9063,214.2344 146.5781,212.5938 Q145.2656,210.9375 145.2656,207.8125 Q145.2656,204.6875 146.5781,203.0313 Q147.9063,201.375 150.4063,201.375 Q151.1094,201.375 151.75,201.5313 Q152.4063,201.6875 152.9688,201.9844 L152.9688,204.7031 Q152.3438,204.125 151.75,203.8594 Q151.1563,203.5781 150.5313,203.5781 Q149.1875,203.5781 148.5,204.6563 Q147.8125,205.7188 147.8125,207.8125 Q147.8125,209.9063 148.5,210.9844 Q149.1875,212.0469 150.5313,212.0469 Q151.1563,212.0469 151.75,211.7813 Q152.3438,211.5 152.9688,210.9219 L152.9688,213.6406 Z " fill="#000000"/><text fill="#000000" font-family="sans-serif" font-size="14" lengthAdjust="spacing" textLength="51" x="164" y="212.8467">Render</text><line style="stroke:#181818;stroke-width:0.5;" x1="136" x2="217" y1="224" y2="224"/><line style="stroke:#181818;stroke-width:0.5;" x1="136" x2="217" y1="232" y2="232"/></g><!--class Repository--><g id="elem_Repository"><rect codeLine="54" fill="#F1F1F1" height="48" id="Repository" rx="2.5" ry="2.5" style="stroke:#181818;stroke-width:0.5;" width="106" x="253.5" y="192"/><ellipse cx="268.5" cy="208" fill="#ADD1B2" rx="11" ry="11" style="stroke:#181818;stroke-width:1.0;"/><path d="M271.4688,213.6406 Q270.8906,213.9375 270.25,214.0781 Q269.6094,214.2344 268.9063,214.2344 Q266.4063,214.2344 265.0781,212.5938 Q263.7656,210.9375 263.7656,207.8125 Q263.7656,204.6875 265.0781,203.0313 Q266.4063,201.375 268.9063,201.375 Q269.6094,201.375 270.25,201.5313 Q270.9063,201.6875 271.4688,201.9844 L271.4688,204.7031 Q270.8438,204.125 270.25,203.8594 Q269.6563,203.5781 269.0313,203.5781 Q267.6875,203.5781 267,204.6563 Q266.3125,205.7188 266.3125,207.8125 Q266.3125,209.9063 267,210.9844 Q267.6875,212.0469 269.0313,212.0469 Q269.6563,212.0469 270.25,211.7813 Q270.8438,211.5 271.4688,210.9219 L271.4688,213.6406 Z " fill="#000000"/><text fill="#000000" font-family="sans-serif" font-size="14" lengthAdjust="spacing" textLength="74" x="282.5" y="212.8467">Repository</text><line style="stroke:#181818;stroke-width:0.5;" x1="254.5" x2="358.5" y1="224" y2="224"/><line style="stroke:#181818;stroke-width:0.5;" x1="254.5" x2="358.5" y1="232" y2="232"/></g><!--class SyntaxTree--><g id="elem_SyntaxTree"><rect codeLine="78" fill="#F1F1F1" height="48" id="SyntaxTree" rx="2.5" ry="2.5" style="stroke:#181818;stroke-width:0.5;" width="109" x="7" y="300"/><ellipse cx="22" cy="316" fill="#ADD1B2" rx="11" ry="11" style="stroke:#181818;stroke-width:1.0;"/><path d="M24.9688,321.6406 Q24.3906,321.9375 23.75,322.0781 Q23.1094,322.2344 22.4063,322.2344 Q19.9063,322.2344 18.5781,320.5938 Q17.2656,318.9375 17.2656,315.8125 Q17.2656,312.6875 18.5781,311.0313 Q19.9063,309.375 22.4063,309.375 Q23.1094,309.375 23.75,309.5313 Q24.4063,309.6875 24.9688,309.9844 L24.9688,312.7031 Q24.3438,312.125 23.75,311.8594 Q23.1563,311.5781 22.5313,311.5781 Q21.1875,311.5781 20.5,312.6563 Q19.8125,313.7188 19.8125,315.8125 Q19.8125,317.9063 20.5,318.9844 Q21.1875,320.0469 22.5313,320.0469 Q23.1563,320.0469 23.75,319.7813 Q24.3438,319.5 24.9688,318.9219 L24.9688,321.6406 Z " fill="#000000"/><text fill="#000000" font-family="sans-serif" font-size="14" lengthAdjust="spacing" textLength="77" x="36" y="320.8467">SyntaxTree</text><line style="stroke:#181818;stroke-width:0.5;" x1="8" x2="115" y1="332" y2="332"/><line style="stroke:#181818;stroke-width:0.5;" x1="8" x2="115" y1="340" y2="340"/></g><!--SRC=[XPF1RiCW38RlF4LUPLDJzTAjsdBiXH6liae16KTBLENTrpLRS1gI-S21_-S3Mp_6wXYBJVLQN5MlWZPdVO9YruNWItT21yT1AswLLRrfBk3ur_9Jvevy8aPZGUptQbXxfGQBEBjmzHIU0mjSsHe8ZDujygH308s163VW4EgHckGjMdZnlFMDoya7JH7ePYXRZ1mpZZTmzN-Eu2EofwuayhJgMEEyTuvrMn70t3MEQNZmuen6EM7tciwr_tAIfMHlYx1HJh0TN-m4f1uxNA49Io9-uYGDkPCLQUIL51yqCv2RXVYvGPiQ-Ak7H8keQ2DUbtEapvHJPmtARoC2oqpuqJ3avfWoS9_ZDm00]--></g></svg>